/* XPM */
static const char *antial[]={
"32 32 99 2",
"Qt c #000000",
".x c #020202",
".K c #040404",
"#x c #070707",
"#k c #090909",
"#o c #141413",
".4 c #171716",
"#h c #1a1a19",
".Y c #1b1b1a",
".B c #1b1b1b",
".C c #1e1e1d",
".1 c #232322",
".O c #242422",
"#l c #282827",
".d c #2a2a28",
".y c #2b2b29",
"#a c #2b2b2a",
".S c #2e2e2c",
"#B c #2e2e2d",
"#b c #2f2f2d",
"#C c #2f2f2e",
".m c #333332",
".g c #343432",
".X c #353533",
".T c #393937",
".c c #3b3b39",
".G c #3d3d3b",
".N c #40403d",
"#d c #42423f",
".u c #424240",
".0 c #454543",
".U c #4b4b48",
".F c #4c4c4a",
".7 c #4d4d4a",
".n c #4d4d4b",
".j c #4e4e4b",
"#r c #4f4f4c",
"#w c #50504e",
".H c #51514e",
".t c #535350",
".b c #565653",
".8 c #5c5c59",
"#g c #5f5f5c",
".5 c #60605d",
".Z c #61615d",
"#q c #61615e",
"#i c #62625e",
".6 c #656561",
".w c #656562",
"#e c #666662",
".f c #676763",
"#n c #6b6b67",
".q c #6d6d69",
".L c #6f6f6b",
"#y c #70706c",
".z c #71716d",
"#u c #787874",
".W c #797974",
".o c #7d7d79",
"#v c #7e7e7a",
".h c #81817d",
"#D c #83837f",
".2 c #868681",
".e c #8b8b86",
".D c #8c8c87",
"#f c #8d8d89",
".p c #8f8f8a",
"#m c #91918c",
".s c #92928e",
".v c #94948f",
"#t c #9c9c97",
".M c #9e9e98",
"#G c #9e9e99",
"#F c #a3a39e",
".E c #a6a6a1",
".9 c #a7a7a1",
".3 c #a9a9a3",
"## c #adada7",
".l c #aeaea8",
"#j c #b1b1ab",
".I c #b3b3ad",
".P c #b5b5ae",
".i c #b5b5af",
"#z c #b7b7b0",
".r c #b7b7b2",
"#c c #babab5",
"#E c #bcbcb6",
".R c #bdbdb7",
"#s c #bfbfb8",
"#A c #bfbfb9",
".A c #c0c0b9",
".# c #c3c3c3",
"#p c #c8c8c2",
".a c #cacac3",
".V c #cdcdc6",
".Q c #cfcfc8",
".J c #d5d5ce",
".k c #d7d7d0",
"#. c #dadad2",
"QtQtQtQtQtQtQtQtQtQtQtQtQtQtQtQtQtQtQtQtQtQtQtQtQtQtQtQtQtQtQtQt",
"Qt.#.#.#.#.#.#.#.#.#.#.#.#.#.#.#.#.#.#.#.#.#.#.#.#.#.#.#.#.#.#Qt",
"Qt.#.#.#.#.#.#.#.#.#.#.#.#.#.#.#.#.#.#.#.a.b.c.d.#.#.#.#.#.#.#Qt",
"Qt.#.#.#.#.#.#.#.#.#.#.#.#.#.#.#.#.#.#.e.f.g.h.i.#.#.#.#.#.#.#Qt",
"Qt.#.#.#.#.#.#.#.#.#.#.#.#.#.#.#.#.#.a.f.j.j.#.#.#.#.#.#.#.k.#Qt",
"Qt.#.#.#.#.#.#.#.#.#.#.#.#.#.#.#.#.l.b.m.n.#.#.#.#.#.#.#.k.o.#Qt",
"Qt.#.#.#.#.#.#.#.#.#.#.#.#.#.#.#.p.q.c.h.#.#.#.#.#.#.#.r.s.m.#Qt",
"Qt.#.#.#.#.#.#.#.#.#.#.#.#.#.#.#.t.u.d.#.#.#.#.#.#.#.#.v.w.x.#Qt",
"Qt.#.#.#.#.#.#.#.#.#.#.#.#.#.p.t.y.z.#.#.#.#.#.#.#.A.o.B.C.D.#Qt",
"Qt.#.#.#.#.#.#.#.#.#.#.#.#.l.q.u.z.#.#.#.#.#.#.#.#.E.F.G.H.I.#Qt",
"Qt.#.#.#.#.#.#.#.#.#.#.#.a.b.c.d.#.#.#.#.#.#.#.#.J.h.K.L.M.#.#Qt",
"Qt.#.#.#.#.#.#.#.#.#.#.e.f.g.h.#.#.#.#.#.#.#.#.#.t.N.O.P.#.#.#Qt",
"Qt.#.#.#.#.#.#.#.#.#.a.f.j.j.#.#.#.#.#.#.#.#.Q.R.S.T.U.V.#.#.#Qt",
"Qt.#.#.#.#.#.#.#.#.l.b.m.n.#.#.#.#.#.#.#.#.#.W.X.Y.Z.a.#.#.#.#Qt",
"Qt.#.#.#.#.#.#.#.p.q.c.h.#.#.#.#.#.#.#.#.Q.W.0.1.2.3.#.#.#.#.#Qt",
"Qt.#.#.#.#.#.#.#.t.u.d.#.#.#.#.#.#.#.#.#.R.X.1.4.V.#.#.#.#.#.#Qt",
"Qt.#.#.#.#.#.p.t.y.z.#.#.#.#.#.#.#.#.#.e.5.Y.2.V.#.#.#.#.#.#.#Qt",
"Qt.#.#.#.#.l.q.u.z.#.#.#.#.#.#.#.#.#.#.6.7.8.9#..#.#.#.#.#.#.#Qt",
"Qt.#.#.#.a.b.c.d.#.#.#.#.#.#.#.#.#.####a#b.R.#.#.#.#.#.#.#.#.#Qt",
"Qt.#.#.e.f.g.h.#.#.#.#.#.#.#.#.##c.h#a#d#e.#.#.#.#.#.#.#.#.#.#Qt",
"Qt.#.a.f.j.j.#.#.#.#.#.#.#.#.#.##f#g#h#i.e.#.#.#.#.#.#.#.#.#.#Qt",
"Qt.#.b.m.n.#.#.#.#.#.#.#.#.#.##j#k#l.b.a.#.#.#.#.#.#.#.#.#.#.#Qt",
"Qt.#.c.h.#.#.#.#.#.#.#.#.#.##m.t.X.w.l.#.#.#.#.#.#.#.#.#.#.#.#Qt",
"Qt.#.d.#.#.#.#.#.#.#.#.#.#.##n#o.t.p.#.#.#.#.#.#.#.#.#.#.#.#.#Qt",
"Qt.##p.#.#.#.#.#.#.#.#.#.Q#q.b#r.#.#.#.#.#.#.#.#.#.#.#.#.#.#.#Qt",
"Qt.#.#.#.#.#.#.#.#.#.##s#t.G.5#u.#.#.#.#.#.#.#.#.#.#.#.#.#.#.#Qt",
"Qt.#.#.#.#.#.#.#.#.#.##v#w#x#y#z.#.#.#.#.#.#.#.#.#.#.#.#.#.#.#Qt",
"Qt.#.#.#.#.#.#.#.##A#v#B#C#D#E.#.#.#.#.#.#.#.#.#.#.#.#.#.#.#.#Qt",
"Qt.#.#.#.#.#.#.#.##F#w#C.u#j.#.#.#.#.#.#.#.#.#.#.#.#.#.#.#.#.#Qt",
"Qt.#.#.#.#.#.#.##G#q#x#D#j.#.#.#.#.#.#.#.#.#.#.#.#.#.#.#.#.#.#Qt",
"Qt.#.#.#.#.#.#.#.#.#.#.#.#.#.#.#.#.#.#.#.#.#.#.#.#.#.#.#.#.#.#Qt",
"QtQtQtQtQtQtQtQtQtQtQtQtQtQtQtQtQtQtQtQtQtQtQtQtQtQtQtQtQtQtQtQt"};
