/* XPM */
static const char * appicon[] = {
"48 48 220 2",
"  	c None",
". 	c #000000",
"+ 	c #280000",
"@ 	c #8C0000",
"# 	c #A00000",
"$ 	c #780000",
"% 	c #140000",
"& 	c #400000",
"* 	c #DF0000",
"= 	c #FF0000",
"- 	c #C00000",
"; 	c #200000",
"> 	c #001000",
", 	c #003800",
"' 	c #001800",
") 	c #00C300",
"! 	c #005400",
"~ 	c #006400",
"{ 	c #00B700",
"] 	c #00F300",
"^ 	c #007800",
"/ 	c #001400",
"( 	c #640000",
"_ 	c #3C0000",
": 	c #00FF00",
"< 	c #00CF00",
"[ 	c #005800",
"} 	c #004000",
"| 	c #003000",
"1 	c #000800",
"2 	c #600000",
"3 	c #00F700",
"4 	c #00E300",
"5 	c #00DF00",
"6 	c #00A800",
"7 	c #001C00",
"8 	c #BF0000",
"9 	c #009B00",
"0 	c #006000",
"a 	c #008800",
"b 	c #00EB00",
"c 	c #00E700",
"d 	c #00AC00",
"e 	c #003C00",
"f 	c #00EF00",
"g 	c #00C700",
"h 	c #004800",
"i 	c #000C00",
"j 	c #002800",
"k 	c #008C00",
"l 	c #00DB00",
"m 	c #00D700",
"n 	c #007400",
"o 	c #002400",
"p 	c #007000",
"q 	c #009000",
"r 	c #00FB00",
"s 	c #000400",
"t 	c #281111",
"u 	c #401818",
"v 	c #400F0F",
"w 	c #182C05",
"x 	c #100404",
"y 	c #380F0F",
"z 	c #401D1D",
"A 	c #302C1C",
"B 	c #083D05",
"C 	c #8C3C3C",
"D 	c #DF5353",
"E 	c #DF3333",
"F 	c #549C11",
"G 	c #C33535",
"H 	c #DF6868",
"I 	c #A89961",
"J 	c #1CD410",
"K 	c #A06C6C",
"L 	c #FF8787",
"M 	c #FF2727",
"N 	c #749207",
"O 	c #18BF00",
"P 	c #047000",
"Q 	c #645757",
"R 	c #B77171",
"S 	c #F32E2E",
"T 	c #A28C2F",
"U 	c #50D92A",
"V 	c #0DF907",
"W 	c #C01000",
"X 	c #203800",
"Y 	c #788B63",
"Z 	c #CCAB77",
"` 	c #EA2914",
" .	c #9A740F",
"..	c #4D8512",
"+.	c #0D1603",
"@.	c #A07C7C",
"#.	c #F99C97",
"$.	c #EB331F",
"%.	c #5FA303",
"&.	c #09E600",
"*.	c #02C600",
"=.	c #00C000",
"-.	c #C03800",
";.	c #20C300",
">.	c #149C11",
",.	c #4BC914",
"'.	c #B54D03",
").	c #DB5935",
"!.	c #AC5340",
"~.	c #1D0E0B",
"{.	c #A05656",
"].	c #EB7C68",
"^.	c #B95912",
"/.	c #43BD00",
"(.	c #002000",
"_.	c #BF4000",
":.	c #20DF00",
"<.	c #3ADE1A",
"[.	c #CB8D59",
"}.	c #F74941",
"|.	c #E74545",
"1.	c #AC8888",
"2.	c #3C3838",
"3.	c #282727",
"4.	c #8C8A8A",
"5.	c #D06458",
"6.	c #CB5824",
"7.	c #768F06",
"8.	c #267600",
"9.	c #C03000",
"0.	c #20A800",
"a.	c #40BE2E",
"b.	c #DFB9A1",
"c.	c #FF4C4C",
"d.	c #FF3F3F",
"e.	c #FFBEBE",
"f.	c #605151",
"g.	c #353B2F",
"h.	c #B7CEA5",
"i.	c #DA6B47",
"j.	c #C44B10",
"k.	c #7DB938",
"l.	c #2A4E18",
"m.	c #00A000",
"n.	c #C00800",
"o.	c #201C00",
"p.	c #40533B",
"q.	c #DFD3CF",
"r.	c #FF6363",
"s.	c #FF3434",
"t.	c #FF8B8B",
"u.	c #603B3B",
"v.	c #183008",
"w.	c #52A81C",
"x.	c #AD5E0C",
"y.	c #DF5838",
"z.	c #E6DCC2",
"A.	c #575C53",
"B.	c #180000",
"C.	c #540000",
"D.	c #480000",
"E.	c #0C0000",
"F.	c #181717",
"G.	c #545151",
"H.	c #C35353",
"I.	c #FF4E4E",
"J.	c #FF5050",
"K.	c #60811E",
"L.	c #219600",
"M.	c #747F00",
"N.	c #C96B35",
"O.	c #CD6157",
"P.	c #72605E",
"Q.	c #242424",
"R.	c #FF6F6F",
"S.	c #FF2C2C",
"T.	c #6D9E0B",
"U.	c #40C000",
"V.	c #AA5702",
"W.	c #E77C64",
"X.	c #C07777",
"Y.	c #201414",
"Z.	c #A07F7F",
"`.	c #FF9999",
" +	c #FF1E1E",
".+	c #8C7402",
"++	c #738E02",
"@+	c #DF2808",
"#+	c #FB908C",
"$+	c #C0A3A3",
"%+	c #201B1B",
"&+	c #3C9633",
"*+	c #7EBE3D",
"=+	c #C9410A",
"-+	c #C83D06",
";+	c #CE4514",
">+	c #F7372F",
",+	c #9B4A4A",
"'+	c #484141",
")+	c #0C0B0B",
"!+	c #34D50A",
"~+	c #B66E25",
"{+	c #ED2816",
"]+	c #FF2121",
"^+	c #FF5B5B",
"/+	c #602727",
"(+	c #784000",
"_+	c #3EE625",
":+	c #D8A780",
"<+	c #FC3B38",
"[+	c #FF2A2A",
"}+	c #FF9090",
"|+	c #603D3D",
"1+	c #14DF00",
"2+	c #185810",
"3+	c #544337",
"4+	c #601818",
"5+	c #601111",
"6+	c #603A3A",
"7+	c #241919",
". . . . . . . . . . . . . . . . . . . . . . . . . . . . . . . . . . . . . . . . . . . . . . . . ",
". . . . . . . . . . . . . . . . . . . . . . . . . . . . . . . . . . . . . . . . . . . . . . . . ",
". . . . . . . . . . . . . . . . . . . . . . . . . . . . . . . . . . . . . . . . . . . . . . . . ",
". . . . + @ # $ % . . . . . . . . . . . . . . . . . . . . . . . . . . . . . . . . . . . . . . . ",
". . . . & * = - ; . . . . . . . . . . . . . > , ' . . . . . . . . . . . . . . . . . . . . . . . ",
". . . . & * = - ; . . . . . . . . . . . . . , ) ! . . . . . . . . . . . . . . . . . . . . . . . ",
". . . . & * = - ; . . . . . . . . . . . . ~ { ] ) ^ / . . . . . . . . . . . . . . . ( # # _ . . ",
". . . . & * = - ; . . . . . . . . . . > , { : : : < [ } | 1 . . . . . . . . . . . . # = = 2 . . ",
". . . . & * = - ; . . . . . . . . . . , ) ] : : : 3 4 5 6 7 . . . . . . . . . . . . # = = 2 . . ",
". . . . & * = 8 ; . . . . . . . . . ~ { ] 9 0 0 0 a b : c d e . . . . . . . . . . . # = = 2 . . ",
". . . . & * = - ; . . . . . . . > , { f g h . . . | 6 c : : 0 . . . . . . . . . . . # = = 2 . . ",
". . . . & * = - ; . . . . . . . , ) ] g e i . . . 1 7 d : : 0 . . . . . . . . . . . # = = 2 . . ",
". . . . & * = - ; . . . . . . ~ { ] 9 h i . . . . j k l m n o . . . . . . . . . . . # = = 2 . . ",
". . . . & * = - ; . . . . > , { f g h . . . . . j p c m q ' . . . . . . . . . . . . # = = 2 . . ",
". . . . & * = - ; . . . . , ) ] g e i . . . . . k c r n ' s . . . . . . . . . . . . # = = 2 . . ",
". . . . & * = 8 ; . . . ~ { ] 9 h i . . . . j k l m n o . . . . . ~ ^ / . . . . . . # = = 2 . . ",
". . . . & * = - ; . > , { f g h . . t u v w p c m q ' . x y z A B { < [ ' . . . . . # = = 2 . . ",
". . . . & * = - ; . , ) ] g e i . . C D E F c r n ' s . y G H I J ] 3 4 ! . . . . . # = = 2 . . ",
". . . . & * = - ; ~ { ] 9 h i . . . K L M N O P o . . Q R S T U V : : : 0 . . . . . # = = 2 . . ",
". . . . & * = W X { f g h . . . . . Y Z `  ...+.. . . @.#.$.%.&.*.=.< 3 a | 1 . . . # = = 2 . . ",
". . . . & * = -.;.] g e i . . . . . >.,.'.).!.~.. . . {.].^./.*.e (.[ 4 b 6 7 . . . # = = 2 . . ",
". . . . & * = _.:.9 h i . . . . j k l <.[.}.|.1.2.3.4.5.6.7.8.h i . ' ! ) c d e . . # = = 2 . . ",
". . . . & * = 9.0.h . . . . . j p c m a.b.c.d.e.f.g.h.i.j.k.l.. . . . . m.: : 0 . . # = = 2 . . ",
". . . . & * = n.o.i . . . . . k c r n p.q.r.s.t.u.v.w.x.y.z.A.. . . . . m.: : 0 . . # = = 2 . . ",
". . . . B.C.2 D.E.. . . . j k l m n o F.G.H.I.J.K.L.M.N.O.P.Q.. . . j k l m n o . . # = = 2 . . ",
". . . . . . . . . . . . j p c m q ' . . . {.R.S.T.U.V.W.X.Y.. . . j p c m q ' . . . # = = 2 . . ",
". . . . . . . . . . . . k c r n ' s . . . Z.`. +.+++@+#+$+%+. . . k c r n ' s . . . # = = 2 . . ",
". . . . . . . . . . j k l m n o . . . . . &+*+=+-+;+>+,+'+)+. j k l m n o . . . . . # = = 2 . . ",
". . . . . . . . . j p c m q ' . . . . > , { !+~+{+]+^+/+. . j p c m q ' . . . . > , (+9.n.D.. . ",
". . . . . . . . . k c r n ' s . . . . , ) ] _+:+<+[+}+|+. . k c r n ' s . . . . , ) 1+0.o.E.. . ",
". . . . . . . j k l m n o . . . . . ~ { ] 9 2+3+4+5+6+7+j k l m n o . . . . . ~ { ] 9 h i . . . ",
". . . . . . j p c m q ' . . . . > , { f g h . . . . . j p c m q ' . . . . > , { f g h . . . . . ",
". . . . . . k c r n ' s . . . . , ) ] g e i . . . . . k c r n ' s . . . . , ) ] g e i . . . . . ",
". . . . . . e a b ) ^ / . . . ~ { ] 9 h i . . . . j k l m n o . . . . . ~ { ] 9 h i . . . . . . ",
". . . . . . . } 5 : =.(.. > , { f g h . . . . . j p c m q ' . . . . > , { f g h . . . . . . . . ",
". . . . . . . } 5 : =.(.. , ) ] g e i . . . . . k c r n ' s . . . . , ) ] g e i . . . . . . . . ",
". . . . . . . ' ! ) c d m.{ ] 9 h i . . . . j k l m n o . . . . . ~ { ] 9 h i . . . . . . . . . ",
". . . . . . . . . ^ < 3 : f g h . . . . . j p c m q ' . . . . > , { f g h . . . . . . . . . . . ",
". . . . . . . . . / [ 4 : g e i . . . . . k c r n ' s . . . . , ) ] g e i . . . . . . . . . . . ",
". . . . . . . . . . ' ! 0 h i . . . . j k l m n o . . . . . ~ { ] 9 h i . . . . . . . . . . . . ",
". . . . . . . . . . . . . . . . . . j p c m q ' . . . . > , { f g h . . . . . . . . . . . . . . ",
". . . . . . . . . . . . . . . . . . k c r n ' s . . . . , ) ] g e i . . . . . . . . . . . . . . ",
". . . . . . . . . . . . . . . . j k l : : ) ^ / . . . ~ { ] 9 h i . . . . . . . . . . . . . . . ",
". . . . . . . . . . . . . . . . | 6 =.< 3 : < [ } } } { f g h . . . . . . . . . . . . . . . . . ",
". . . . . . . . . . . . . . . . 1 7 (.[ 4 : 3 4 5 5 5 ] g e i . . . . . . . . . . . . . . . . . ",
". . . . . . . . . . . . . . . . . . . ' ! 0 a b : : : 9 h i . . . . . . . . . . . . . . . . . . ",
". . . . . . . . . . . . . . . . . . . . . . | 6 =.=.=.h . . . . . . . . . . . . . . . . . . . . ",
". . . . . . . . . . . . . . . . . . . . . . 1 7 (.(.(.i . . . . . . . . . . . . . . . . . . . . "};
