/* XPM */
static const char *appicontr[]={
"48 48 218 2",
"Qt c None",
".2 c #000400",
".A c #000800",
".S c #000c00",
".j c #001000",
".s c #001400",
".l c #001800",
".G c #001c00",
"#U c #002000",
".Y c #002400",
".T c #002800",
".z c #003000",
".k c #003800",
".O c #003c00",
".y c #004000",
".R c #004800",
".n c #005400",
".x c #005800",
".J c #006000",
".o c #006400",
".Z c #007000",
".X c #007400",
".r c #007800",
".K c #008800",
".U c #008c00",
".0 c #009000",
".I c #009b00",
"al c #00a000",
".F c #00a800",
".N c #00ac00",
".p c #00b700",
"#H c #00c000",
".m c #00c300",
".Q c #00c700",
".w c #00cf00",
".W c #00d700",
".V c #00db00",
".E c #00df00",
".D c #00e300",
".M c #00e700",
".L c #00eb00",
".P c #00ef00",
".q c #00f300",
".C c #00f700",
".1 c #00fb00",
".v c #00ff00",
"#G c #02c600",
"#m c #047000",
"#. c #083d05",
"#F c #09e600",
"aD c #0c0000",
"bd c #0c0b0b",
"#A c #0d1603",
"#s c #0df907",
".d c #140000",
"#K c #149c11",
"br c #14df00",
"aA c #180000",
"aE c #181717",
".6 c #182c05",
"au c #183008",
"bs c #185810",
"#l c #18bf00",
"#g c #1cd410",
"#P c #1d0e0b",
".i c #200000",
"aX c #201414",
"a6 c #201b1b",
"an c #201c00",
"#u c #203800",
"a. c #20a800",
"#J c #20c300",
"#W c #20df00",
"aK c #219600",
"bx c #241919",
"aP c #242424",
"#8 c #267600",
".# c #280000",
".3 c #281111",
"#3 c #282727",
"ak c #2a4e18",
".9 c #302c1c",
"be c #34d50a",
"af c #353b2f",
".7 c #380f0f",
"#X c #3ade1a",
".u c #3c0000",
"#2 c #3c3838",
"a7 c #3c9633",
"bl c #3ee625",
".e c #400000",
".5 c #400f0f",
".4 c #401818",
".8 c #401d1d",
"ao c #40533b",
"a# c #40be2e",
"aT c #40c000",
"#T c #43bd00",
"aC c #480000",
"bc c #484141",
"#L c #4bc914",
"#z c #4d8512",
"#r c #50d92a",
"av c #52a81c",
"aB c #540000",
"bt c #544337",
"aF c #545151",
"#c c #549c11",
"az c #575c53",
"#E c #5fa303",
".B c #600000",
"bv c #601111",
"bu c #601818",
"bj c #602727",
"bw c #603a3a",
"at c #603b3b",
"bq c #603d3d",
"ae c #605151",
"aJ c #60811e",
".t c #640000",
"#n c #645757",
"aS c #6d9e0b",
"aO c #72605e",
"a2 c #738e02",
"aL c #747f00",
"#k c #749207",
"#7 c #768f06",
".c c #780000",
"bk c #784000",
"#v c #788b63",
"aj c #7db938",
"a8 c #7ebe3d",
".a c #8c0000",
"## c #8c3c3c",
"a1 c #8c7402",
"#4 c #8c8a8a",
"#y c #9a740f",
"bb c #9b4a4a",
".b c #a00000",
"#Q c #a05656",
"#h c #a06c6c",
"#B c #a07c7c",
"aY c #a07f7f",
"#q c #a28c2f",
"#f c #a89961",
"aU c #aa5702",
"#O c #ac5340",
"#1 c #ac8888",
"aw c #ad5e0c",
"#M c #b54d03",
"bf c #b66e25",
"#o c #b77171",
"ag c #b7cea5",
"#S c #b95912",
".H c #bf0000",
"#V c #bf4000",
".h c #c00000",
"am c #c00800",
"#t c #c01000",
"#9 c #c03000",
"#I c #c03800",
"aW c #c07777",
"a5 c #c0a3a3",
"#d c #c33535",
"aG c #c35353",
"ai c #c44b10",
"b. c #c83d06",
"a9 c #c9410a",
"aM c #c96b35",
"#6 c #cb5824",
"#Y c #cb8d59",
"#w c #ccab77",
"aN c #cd6157",
"b# c #ce4514",
"#5 c #d06458",
"bm c #d8a780",
"ah c #da6b47",
"#N c #db5935",
".f c #df0000",
"a3 c #df2808",
"#b c #df3333",
"#a c #df5353",
"ax c #df5838",
"#e c #df6868",
"aa c #dfb9a1",
"ap c #dfd3cf",
"ay c #e6dcc2",
"#0 c #e74545",
"aV c #e77c64",
"#x c #ea2914",
"#D c #eb331f",
"#R c #eb7c68",
"bg c #ed2816",
"#p c #f32e2e",
"ba c #f7372f",
"#Z c #f74941",
"#C c #f99c97",
"a4 c #fb908c",
"bn c #fc3b38",
".g c #ff0000",
"a0 c #ff1e1e",
"bh c #ff2121",
"#j c #ff2727",
"bo c #ff2a2a",
"aR c #ff2c2c",
"ar c #ff3434",
"ac c #ff3f3f",
"ab c #ff4c4c",
"aH c #ff4e4e",
"aI c #ff5050",
"bi c #ff5b5b",
"aq c #ff6363",
"aQ c #ff6f6f",
"#i c #ff8787",
"as c #ff8b8b",
"bp c #ff9090",
"aZ c #ff9999",
"ad c #ffbebe",
"QtQtQtQtQtQtQtQtQtQtQtQtQtQtQtQtQtQtQtQtQtQtQtQtQtQtQtQtQtQtQtQtQtQtQtQtQtQtQtQtQtQtQtQtQtQtQtQt",
"QtQtQtQtQtQtQtQtQtQtQtQtQtQtQtQtQtQtQtQtQtQtQtQtQtQtQtQtQtQtQtQtQtQtQtQtQtQtQtQtQtQtQtQtQtQtQtQt",
"QtQtQtQtQtQtQtQtQtQtQtQtQtQtQtQtQtQtQtQtQtQtQtQtQtQtQtQtQtQtQtQtQtQtQtQtQtQtQtQtQtQtQtQtQtQtQtQt",
"QtQtQtQt.#.a.b.c.dQtQtQtQtQtQtQtQtQtQtQtQtQtQtQtQtQtQtQtQtQtQtQtQtQtQtQtQtQtQtQtQtQtQtQtQtQtQtQt",
"QtQtQtQt.e.f.g.h.iQtQtQtQtQtQtQtQtQtQtQtQtQt.j.k.lQtQtQtQtQtQtQtQtQtQtQtQtQtQtQtQtQtQtQtQtQtQtQt",
"QtQtQtQt.e.f.g.h.iQtQtQtQtQtQtQtQtQtQtQtQtQt.k.m.nQtQtQtQtQtQtQtQtQtQtQtQtQtQtQtQtQtQtQtQtQtQtQt",
"QtQtQtQt.e.f.g.h.iQtQtQtQtQtQtQtQtQtQtQtQt.o.p.q.m.r.sQtQtQtQtQtQtQtQtQtQtQtQtQtQtQt.t.b.b.uQtQt",
"QtQtQtQt.e.f.g.h.iQtQtQtQtQtQtQtQtQtQt.j.k.p.v.v.v.w.x.y.z.AQtQtQtQtQtQtQtQtQtQtQtQt.b.g.g.BQtQt",
"QtQtQtQt.e.f.g.h.iQtQtQtQtQtQtQtQtQtQt.k.m.q.v.v.v.C.D.E.F.GQtQtQtQtQtQtQtQtQtQtQtQt.b.g.g.BQtQt",
"QtQtQtQt.e.f.g.H.iQtQtQtQtQtQtQtQtQt.o.p.q.I.J.J.J.K.L.v.M.N.OQtQtQtQtQtQtQtQtQtQtQt.b.g.g.BQtQt",
"QtQtQtQt.e.f.g.h.iQtQtQtQtQtQtQt.j.k.p.P.Q.RQtQtQt.z.F.M.v.v.JQtQtQtQtQtQtQtQtQtQtQt.b.g.g.BQtQt",
"QtQtQtQt.e.f.g.h.iQtQtQtQtQtQtQt.k.m.q.Q.O.SQtQtQt.A.G.N.v.v.JQtQtQtQtQtQtQtQtQtQtQt.b.g.g.BQtQt",
"QtQtQtQt.e.f.g.h.iQtQtQtQtQtQt.o.p.q.I.R.SQtQtQtQt.T.U.V.W.X.YQtQtQtQtQtQtQtQtQtQtQt.b.g.g.BQtQt",
"QtQtQtQt.e.f.g.h.iQtQtQtQt.j.k.p.P.Q.RQtQtQtQtQt.T.Z.M.W.0.lQtQtQtQtQtQtQtQtQtQtQtQt.b.g.g.BQtQt",
"QtQtQtQt.e.f.g.h.iQtQtQtQt.k.m.q.Q.O.SQtQtQtQtQt.U.M.1.X.l.2QtQtQtQtQtQtQtQtQtQtQtQt.b.g.g.BQtQt",
"QtQtQtQt.e.f.g.H.iQtQtQt.o.p.q.I.R.SQtQtQtQt.T.U.V.W.X.YQtQtQtQtQt.o.r.sQtQtQtQtQtQt.b.g.g.BQtQt",
"QtQtQtQt.e.f.g.h.iQt.j.k.p.P.Q.RQtQt.3.4.5.6.Z.M.W.0.lQtQt.7.8.9#..p.w.x.lQtQtQtQtQt.b.g.g.BQtQt",
"QtQtQtQt.e.f.g.h.iQt.k.m.q.Q.O.SQtQt###a#b#c.M.1.X.l.2Qt.7#d#e#f#g.q.C.D.nQtQtQtQtQt.b.g.g.BQtQt",
"QtQtQtQt.e.f.g.h.i.o.p.q.I.R.SQtQtQt#h#i#j#k#l#m.YQtQt#n#o#p#q#r#s.v.v.v.JQtQtQtQtQt.b.g.g.BQtQt",
"QtQtQtQt.e.f.g#t#u.p.P.Q.RQtQtQtQtQt#v#w#x#y#z#AQtQtQt#B#C#D#E#F#G#H.w.C.K.z.AQtQtQt.b.g.g.BQtQt",
"QtQtQtQt.e.f.g#I#J.q.Q.O.SQtQtQtQtQt#K#L#M#N#O#PQtQtQt#Q#R#S#T#G.O#U.x.D.L.F.GQtQtQt.b.g.g.BQtQt",
"QtQtQtQt.e.f.g#V#W.I.R.SQtQtQtQt.T.U.V#X#Y#Z#0#1#2#3#4#5#6#7#8.R.SQt.l.n.m.M.N.OQtQt.b.g.g.BQtQt",
"QtQtQtQt.e.f.g#9a..RQtQtQtQtQt.T.Z.M.Wa#aaabacadaeafagahaiajakQtQtQtQtQtal.v.v.JQtQt.b.g.g.BQtQt",
"QtQtQtQt.e.f.gaman.SQtQtQtQtQt.U.M.1.XaoapaqarasatauavawaxayazQtQtQtQtQtal.v.v.JQtQt.b.g.g.BQtQt",
"QtQtQtQtaAaB.BaCaDQtQtQtQt.T.U.V.W.X.YaEaFaGaHaIaJaKaLaMaNaOaPQtQtQt.T.U.V.W.X.YQtQt.b.g.g.BQtQt",
"QtQtQtQtQtQtQtQtQtQtQtQt.T.Z.M.W.0.lQtQtQt#QaQaRaSaTaUaVaWaXQtQtQt.T.Z.M.W.0.lQtQtQt.b.g.g.BQtQt",
"QtQtQtQtQtQtQtQtQtQtQtQt.U.M.1.X.l.2QtQtQtaYaZa0a1a2a3a4a5a6QtQtQt.U.M.1.X.l.2QtQtQt.b.g.g.BQtQt",
"QtQtQtQtQtQtQtQtQtQt.T.U.V.W.X.YQtQtQtQtQta7a8a9b.b#babbbcbdQt.T.U.V.W.X.YQtQtQtQtQt.b.g.g.BQtQt",
"QtQtQtQtQtQtQtQtQt.T.Z.M.W.0.lQtQtQtQt.j.k.pbebfbgbhbibjQtQt.T.Z.M.W.0.lQtQtQtQt.j.kbk#9amaCQtQt",
"QtQtQtQtQtQtQtQtQt.U.M.1.X.lQtQtQtQtQt.k.m.qblbmbnbobpbqQtQt.U.M.1.X.l.2QtQtQtQt.k.mbra.anaDQtQt",
"QtQtQtQtQtQtQt.T.U.V.W.X.YQtQtQtQtQt.o.p.q.Ibsbtbubvbwbx.T.U.V.W.X.YQtQtQtQtQt.o.p.q.I.R.SQtQtQt",
"QtQtQtQtQtQt.T.Z.M.W.0.lQtQtQtQt.j.k.p.P.Q.RQtQtQtQtQt.T.Z.M.W.0.lQtQtQtQt.j.k.p.P.Q.RQtQtQtQtQt",
"QtQtQtQtQtQt.U.M.1.X.lQtQtQtQtQt.k.m.q.Q.O.SQtQtQtQtQt.U.M.1.X.l.2QtQtQtQt.k.m.q.Q.O.SQtQtQtQtQt",
"QtQtQtQtQtQt.O.K.L.m.rQtQtQtQt.o.p.q.I.R.SQtQtQtQt.T.U.V.W.X.YQtQtQtQtQt.o.p.q.I.R.SQtQtQtQtQtQt",
"QtQtQtQtQtQtQt.y.E.v#H#UQt.j.k.p.P.Q.RQtQtQtQtQt.T.Z.M.W.0.lQtQtQtQt.j.k.p.P.Q.RQtQtQtQtQtQtQtQt",
"QtQtQtQtQtQtQt.y.E.v#H#UQt.k.m.q.Q.O.SQtQtQtQtQt.U.M.1.X.l.2QtQtQtQt.k.m.q.Q.O.SQtQtQtQtQtQtQtQt",
"QtQtQtQtQtQtQt.l.n.m.M.Nal.p.q.I.R.SQtQtQtQt.T.U.V.W.X.YQtQtQtQtQt.o.p.q.I.R.SQtQtQtQtQtQtQtQtQt",
"QtQtQtQtQtQtQtQtQt.r.w.C.v.P.Q.RQtQtQtQtQt.T.Z.M.W.0.lQtQtQtQt.j.k.p.P.Q.RQtQtQtQtQtQtQtQtQtQtQt",
"QtQtQtQtQtQtQtQtQt.s.x.D.v.Q.O.SQtQtQtQtQt.U.M.1.X.l.2QtQtQtQt.k.m.q.Q.O.SQtQtQtQtQtQtQtQtQtQtQt",
"QtQtQtQtQtQtQtQtQtQt.l.n.J.R.SQtQtQtQt.T.U.V.W.X.YQtQtQtQtQt.o.p.q.I.R.SQtQtQtQtQtQtQtQtQtQtQtQt",
"QtQtQtQtQtQtQtQtQtQtQtQtQtQtQtQtQtQt.T.Z.M.W.0.lQtQtQtQt.j.k.p.P.Q.RQtQtQtQtQtQtQtQtQtQtQtQtQtQt",
"QtQtQtQtQtQtQtQtQtQtQtQtQtQtQtQtQtQt.U.M.1.X.l.2QtQtQtQt.k.m.q.Q.O.SQtQtQtQtQtQtQtQtQtQtQtQtQtQt",
"QtQtQtQtQtQtQtQtQtQtQtQtQtQtQtQt.T.U.V.v.v.m.r.sQtQtQt.o.p.q.I.R.SQtQtQtQtQtQtQtQtQtQtQtQtQtQtQt",
"QtQtQtQtQtQtQtQtQtQtQtQtQtQtQtQt.z.F#H.w.C.v.w.x.y.y.y.p.P.Q.RQtQtQtQtQtQtQtQtQtQtQtQtQtQtQtQtQt",
"QtQtQtQtQtQtQtQtQtQtQtQtQtQtQtQt.A.G#U.x.D.v.C.D.E.E.E.q.Q.O.SQtQtQtQtQtQtQtQtQtQtQtQtQtQtQtQtQt",
"QtQtQtQtQtQtQtQtQtQtQtQtQtQtQtQtQtQtQt.l.n.J.K.L.v.v.v.I.R.SQtQtQtQtQtQtQtQtQtQtQtQtQtQtQtQtQtQt",
"QtQtQtQtQtQtQtQtQtQtQtQtQtQtQtQtQtQtQtQtQtQt.z.F#H#H#H.RQtQtQtQtQtQtQtQtQtQtQtQtQtQtQtQtQtQtQtQt",
"QtQtQtQtQtQtQtQtQtQtQtQtQtQtQtQtQtQtQtQtQtQt.A.G#U#U#U.SQtQtQtQtQtQtQtQtQtQtQtQtQtQtQtQtQtQtQtQt"};
