/* XPM */
static const char *axo[]={
"32 32 125 2",
"Qt c #000000",
".T c #8a8a12",
"#6 c #919181",
".P c #969676",
".2 c #979704",
"#3 c #9d9d1a",
"#. c #9f9f00",
"#0 c #a3a300",
".U c #a4a467",
".3 c #a8a864",
"#5 c #abab9b",
".1 c #adad02",
".B c #adad50",
"#d c #afaf00",
"#2 c #afaf28",
".9 c #b0b000",
"#A c #b0b018",
"#w c #b0b077",
"#v c #b2b200",
".a c #b2b253",
".O c #b2b278",
".r c #b3b353",
"#X c #b5b579",
"#E c #b6b679",
"#Z c #b7b709",
".S c #b8b80b",
".V c #b9b929",
".4 c #bdbd28",
"#u c #bebe00",
"#a c #bfbf00",
"#1 c #bfbf62",
"#4 c #bfbf8f",
"#O c #c0c062",
"#P c #c0c08f",
".b c #c1c12c",
"#k c #c3c300",
".# c #c3c3c3",
".N c #c5c54c",
".K c #c6c630",
".j c #c6c65c",
".d c #c6c65d",
".J c #c6c665",
".W c #c7c700",
"#m c #c8c800",
".Q c #c9c92f",
".5 c #cbcb00",
"#K c #cbcb16",
"#C c #cbcb1a",
".c c #cccc12",
".C c #cccc30",
".k c #cccc35",
"#V c #cccc3d",
"#D c #cccc48",
"#B c #cdcd5d",
"#U c #cdcd8e",
"#z c #cece0e",
".I c #cece78",
".q c #cece9a",
".0 c #cfcf00",
".h c #cfcf36",
".v c #cfcf60",
"#F c #cfcf81",
".H c #d0d012",
".u c #d0d016",
".i c #d1d16e",
"#Y c #d1d185",
"#b c #d2d200",
"#J c #d2d28c",
"#o c #d3d300",
".A c #d4d447",
".p c #d4d448",
"#W c #d5d516",
"#T c #d7d732",
"#q c #d8d800",
"#x c #d8d833",
".F c #d9d910",
".o c #d9d911",
"#h c #dbdb00",
"#f c #dcdc00",
"## c #dcdc28",
".w c #dede21",
"#p c #dfdf00",
"#G c #dfdf0d",
"#i c #e0e000",
"#r c #e1e100",
".M c #e2e20b",
"#l c #e3e300",
"#e c #e4e400",
"#L c #e4e418",
"#Q c #e4e41b",
"#s c #e5e500",
".6 c #e6e600",
"#j c #e7e700",
".e c #eaea11",
"#S c #eaea15",
".8 c #ebeb00",
"#H c #ebeb08",
".s c #ebeb11",
".R c #ecec00",
".t c #ecec09",
"#I c #eded0e",
".7 c #eeee00",
"#R c #eeee09",
"#c c #efef00",
"#N c #efef02",
"#g c #f0f000",
".f c #f0f009",
"#t c #f2f200",
".X c #f3f300",
".g c #f4f404",
"#y c #f4f405",
".Z c #f5f500",
".G c #f5f504",
".x c #f6f607",
".Y c #f7f700",
".z c #f7f704",
"#M c #f8f801",
"#n c #f9f900",
".L c #f9f902",
".l c #fafa00",
".D c #fbfb00",
".y c #fcfc00",
".m c #fdfd00",
".E c #fefe00",
".n c #ffff00",
"QtQtQtQtQtQtQtQtQtQtQtQtQtQtQtQtQtQtQtQtQtQtQtQtQtQtQtQtQtQtQtQt",
"Qt.#.#.#.#.#.#.#.#.#.#.#.#.#.#.#.#.#.#.#.#.#.#.#.#.#.#.#.#.#.#Qt",
"Qt.#.#.#.#.#.#.#.#.#.#.#.#.a.b.c.#.#.#.#.#.#.#.#.#.#.#.#.#.#.#Qt",
"Qt.#.#.#.#.#.#.#.#.#.#.#.d.e.f.g.h.i.#.#.#.#.#.#.#.#.#.#.#.#.#Qt",
"Qt.#.#.#.#.#.#.#.#.#.#.j.k.l.m.n.o.p.q.#.#.#.#.#.#.#.#.#.#.#.#Qt",
"Qt.#.#.#.#.#.#.#.#.#.r.s.l.n.n.n.n.t.u.q.#.#.#.#.#.#.#.#.#.#.#Qt",
"Qt.#.#.#.#.#.#.#.#.v.w.x.y.n.n.n.n.z.t.A.i.#.#.#.#.#.#.#.#.#.#Qt",
"Qt.#.#.#.#.#.#.#.B.C.D.E.n.n.n.n.n.n.n.F.h.#.#.#.#.#.#.#.#.#.#Qt",
"Qt.#.#.#.#.#.#.B.n.n.n.n.n.n.n.n.n.n.n.n.G.H.I.#.#.#.#.#.#.#.#Qt",
"Qt.#.#.#.#.#.J.K.n.n.n.n.n.n.n.n.n.n.n.n.L.M.N.O.#.#.#.#.#.#.#Qt",
"Qt.#.#.#.#.P.Q.R.n.n.n.n.n.n.n.n.n.n.n.n.n.n.S.T.#.#.#.#.#.#.#Qt",
"Qt.#.#.#.#.U.V.W.X.Y.n.n.n.n.n.n.n.n.n.n.Z.0.1.2.#.#.#.#.#.#.#Qt",
"Qt.#.#.#.#.3.4.5.6.7.D.E.n.n.n.n.n.n.n.Z.8.5.9#..#.#.#.#.#.#.#Qt",
"Qt.#.#.#.#.3##.n#a#b#c.D.n.n.n.n.n.n.n.0.5.8.W#d.#.#.#.#.#.#.#Qt",
"Qt.#.#.#.#.3##.n#e#f#b.7.Y.n.n.n.n#g#h#h#i.Y.5#d.#.#.#.#.#.#.#Qt",
"Qt.#.#.#.#.3##.n.E#e#a.6.X.n.n.n.n#j#k#l#c.n.0#d.#.#.#.#.#.#.#Qt",
"Qt.#.#.#.#.3##.n.n.n.n.5#m#g#n.n#k#o.8.D.n.n.0#d.#.#.#.#.#.#.#Qt",
"Qt.#.#.#.#.3##.n.n.n.n#p#q#f#r#s#o#p.X.y.n.n.0#d.#.#.#.#.#.#.#Qt",
"Qt.#.#.#.#.3##.n.n.n.n.n#t#u#u#u.8.X.n.n.n.n.0#d.#.#.#.#.#.#.#Qt",
"Qt.#.#.#.#.3##.n.n.n.n.n.y#t.5#v.D.y.n.n.n.n.0#d.#.#.#.#.#.#.#Qt",
"Qt.#.#.#.##w#x#y.n.n.n.n.n.n.0#d.n.n.n.n.E.D#z#A.#.#.#.#.#.#.#Qt",
"Qt.#.#.#.#.##B#C.n.n.n.n.n.n.0#d.n.n.n.n.D#c#D#E.#.#.#.#.#.#.#Qt",
"Qt.#.#.#.#.#.##F#G#H.n.n.n.n.0#d.n.n.n.Y#I#D#J.#.#.#.#.#.#.#.#Qt",
"Qt.#.#.#.#.#.#.##K#G.n.n.n.n.0#d.n.n.n.X#L#E.#.#.#.#.#.#.#.#.#Qt",
"Qt.#.#.#.#.#.#.#.##F#C#y.n.n.0#d.n#M#N#O#P.#.#.#.#.#.#.#.#.#.#Qt",
"Qt.#.#.#.#.#.#.#.#.##B#Q#R.n.0#d#M#S#T#U.#.#.#.#.#.#.#.#.#.#.#Qt",
"Qt.#.#.#.#.#.#.#.#.#.##V#W.n.0#d#N#T#X.#.#.#.#.#.#.#.#.#.#.#.#Qt",
"Qt.#.#.#.#.#.#.#.#.#.#.##Y#W#Z#0#1#U.#.#.#.#.#.#.#.#.#.#.#.#.#Qt",
"Qt.#.#.#.#.#.#.#.#.#.#.#.##V#2#3#4.#.#.#.#.#.#.#.#.#.#.#.#.#.#Qt",
"Qt.#.#.#.#.#.#.#.#.#.#.#.#.##5#6.#.#.#.#.#.#.#.#.#.#.#.#.#.#.#Qt",
"Qt.#.#.#.#.#.#.#.#.#.#.#.#.#.#.#.#.#.#.#.#.#.#.#.#.#.#.#.#.#.#Qt",
"QtQtQtQtQtQtQtQtQtQtQtQtQtQtQtQtQtQtQtQtQtQtQtQtQtQtQtQtQtQtQtQt"};
