/* XPM */
static const char *back[]={
"32 32 6 1",
". c #000000",
"a c #3b3b39",
"b c #777773",
"d c #b2b2ac",
"# c #c3c3c3",
"c c #ffff00",
"................................",
".##############################.",
".##############################.",
".###########abbbbbbbbbbbbbab###.",
".##########bbccccccccccccddb###.",
".#########b#bcccccccccccddcb###.",
".########b##bccccccccccddccb###.",
".#######b###bcccccccccddcccb###.",
".######b####bccccccccddccccb###.",
".#####b#####bcccccccddcccccb###.",
".####b######bccccccddccccccb###.",
".###b#######bcccccddcccccccb###.",
".##abbbbbbbbabbbbbdccccccccb###.",
".##b########bccccbcccccccccb###.",
".##b########bccccbcccccccccb###.",
".##b########bccccbcccccccccb###.",
".##b########bccccbcccccccccb###.",
".##b########bbbbbabbbbbbbbbb###.",
".##b#######dd####b########b####.",
".##b######dd#####b#######b#####.",
".##b#####dd######b######b######.",
".##b####dd#######b#####b#######.",
".##b###dd########b####b########.",
".##b##dd#########b###b#########.",
".##b#dd##########b##b##########.",
".##bdd###########b#b###########.",
".##ad############bb############.",
".##bbbbbbbbbbbbbbb#############.",
".##############################.",
".##############################.",
".##############################.",
"................................"};
