/* XPM */
static const char * bg_xpm[] = {
"94 94 9 1",
" 	c None",
".	c #294D54",
"+	c #517175",
"@	c #06292F",
"#	c #011619",
"$	c #385D63",
"%	c #13373E",
"&	c #1E4249",
"*	c #000000",
"&$.&%$@@@%$#@@%.%%@@&$&**#..%$@%++$$&@&+$&.$+@%%@#$$@&%&&++.@.$..$@%#@%+%*&$+&..@..&...%%%#&.*",
"@@$@*+%###..##@...$$&..&&#&$$&@*%...&&#%++%.+$#@##%$#&&@@%&@*@$%&+.@..@+$@*%$@&$#$$%&.+$.@*@.%",
"&@$.#+$@.@&+.*#%&##.&$&%$@&.%#@**#%&%%#*.$@*%%#@@#&.@.&%@@$$###@&$.#@$.+$$%#$&@.@.+%#@.$+$##@.",
"%@.%*&.%+$.++.&@.%*#%$$..%&%#&$%###$+.&@@+$@&.@%.##@#%%&$&&+$.%#%&$&#$$$%%$&%...%*&&&$@#@$$&%%",
"@@+&#.%@$&&$.$$@%.#@%%&..@@%..+$$&*@+%@%*.+%&$@%+&@%@@&%.$@%&+$@.&&%#@&$%#&#.@@#@#@%%.%&%##.+$",
"&@+$%$@#.@%&#@&%%$..+%#@&%%%&%.&$$**$%..#.+%@+%%.%..$@*#*@&*#.$&%%$&###..@@*%%&&%&%*@&@&+$*#++",
"&&++$.&&+@#%$.%+.%##.&*#&.##%%&%$$*%+%$&**&.#%&$$..$+.*@@%+@&.&&.#+$@.@&+.+.&&++@&.#.&*#$+%*@&",
"*@%&$$%*.$&@.%*.$%#*.$%@&.#%...&.@**%@.$.@*%%*#@%%%@&+%@%%$@@&%#%#..%+$.+++$.%&$#.$#%.%%$$&@&@",
"#*##%@%**.%@%%@&$$.%&$+&%.@%%%++&##*#*#%+$##%$&#@#&&%+$&&&%##%@#@#.%@$&&.&+$%%&.*@$&#&@#%$.#%.",
".%%%@*$&*&&@.%@&$&@&&%$+@&@@#*%+++.##@&@.$.##++..@@@&.$@#%%%%.%.&%$@#&@%##@%%&.%%@.+%#*@#%+$&$",
"@#@#&$&%&#.$@.#*$+.*@%#%&$.@#%.$&@%.$.%*#&#@.$@*&+.$.@&&$$.&$+@$+$.&&$@@++..$%@@##%..%+.@+$.++",
"&#@#%.%..#%+.+$*%++*@..&#&.$&#@..@**%&..@$.*@$%*.$#&+..@%$.%&$#&&$$%#.$##+$%&&++@@%.&*&..$%@.+",
".@@%$.%&%@&+$$.**&+.@%&$@@&$+%**@%@#&%*..@.&@+&#+$*@.&+%.$%%&.*##%@%#*.&*#.#$%%$%%$++**@$+%#%.",
"+&*@....%@*@$++%*%.$.#*&$@*#$+.@%%%@.+@@&#%&@$%#++@@%*%%@%%&.%%&%@*.&#&.&@$$*@$.**#$+%@@#$$&$+",
"$.##*#&&$.**.+$++&@&.&**.&#@%$$.$..@@&.&%%&$@&@*&$&@&&$+..$%@@%.%&$%&&%@.%%&**$+&@*@+.@@%&&**&",
"$&@&%&&@.$%*@%*.+%*#$+&@@@%@@.%.$.++.@$$&@#&.%@@%&%#@%@+$%&&++#&.%&%%&%@.$.@$@%$.&&..$+&%@&#*.",
"++..@%@*$+%@&.#*..@#$+&.$%%#*.%#&@@$.&.%%.@#%&%%&$%#%&*#.#$%%.#.$$.%&&**@.$$&%@%&##%**&$##$%%+",
"+$.$%.%*@$&&.$$#@$&@%$$%$+$.*#&*#.%%%%%@@++%@..#.++.&.&@$$*@$&%++$.&++@*#..%#@%...%@#**+.*%@@&",
".@%$$$$#@%%$$&$.%...%&+%*....#&#*@%#@&&.#%$&#&&#.&$+.@.%%&**$.@&+.%*$+$%%&%#%@@%#&+.&@#$+@***#",
"$.*#.@.@@#**%&.&#@%@&.&$%&$.+&%&##@#@&%&#%%%#&%*.#*%%@..&%$@%#*#&@.**#&&@@%&&&&&#*%$+%*#++%.@#",
"&+#*.%&@#&***@$+@#.##+.@$&&$+$@.$+$&..%%@&@&#@&*%&&&**@&$$&%@.@#$&$+&@@$.%.%@%.$$&@@+$%@$+%$$@",
"*..*&..&@$.%##.+.%+.*+$*&#*%&&&&%$+&@&+$%.&$&@&&%&++@*#..%#@&$$@&.%+$$&$+%...$.&++$@@...$.#*@@",
"*%+%.+$%@$..%%$.&%&%*++#&@#+$@&.&$.%##.+%@.+$&%@&%$+$%%&%#%@%#@@#@*@%.##$%%%%$&#*%$$$+.%%@%@*#",
".%&@&+&*&+$%**+&*&&@*%$.$@*+.*%%%+$&&&&.&**....**@@#&&@@%.$%%@*@%@**%+#**.$.@%@%**#*@%&%%%@&$$",
"+.#*%+$**&$.@*&+*#.&&&@%+@*&&@&**$$&*%$&$%**#&$.@#.%@$&%%..&&%@@$$#*#+.#*%$+&+$$&&.@**#.$+$$++",
"++.*@++.@@%.$.&+.#%#.++@@&.$+..**@&.@&+&$+&&.&...&.$@&.##%#$+.&%&$.%...+$%%*%&$.&#%$$..&#@&&$$",
"%$.@@&@@.$#@..#&.&.**@&&@%$..%&%#@@&%@&%@+$%$$$&#@.$@%.##.@.+$$..&*#&%#%.&&%@*%$$&&@%%&$%%@*@@",
"@%%@%..**$@#&+$###&@*@@@&**#&%%&&$@%&##@*#.@&&$$@#&.&%.&%.@%%&$%$$**%#@#**#.@@@.@@$&#*@&%%&@#@",
".&@*@&$.*&#*#&+$%%$$#$+%..##%.%&.$&%++@&#@%@@%%$$@%#.%..$$%.%%+%.+@.+*#$.&.@$%@+$@&$$%.&##@$$$",
"&&%#%..@%.@*@&$$&&$$@#.$$+$@@.@*&%@#&+%%@&@#@@*#&#.@&$.#%&@@%.+.%+@#+%*.$.$&+@*.$$...*.$.#*#.+",
"&.$#@&+$#@@&@#&.@@%%@**@.+$$..&@&@@%@..%%$.#%$@@.%&@&%&@.@#**%++$&@*&&@&%.%&$&**#%..@**.$%***.",
"%&$*@@&+$%%$$#$+%$+.%$&*@$@#@&$$+%@@%$.%%..#&++%...@&%&.++$.**@+++$.+$$$.$@&++..&#@&&@*@&&.&%.",
"@@$%@%%&..%%%@&&#@$$@@%%#.&@@#@&.%&*#&&#%&%#*&.@#%&@@%@@.$$.#**@..$&&@@&$+**@%$$..$.$&#&@#.@.+",
"%&.&..+$#..%##%$@*&%&%#&&%.$$&@@%.+&%@%@$$.&##&&@&%&$.&&.@@&&@****%.%###@$&##*@%#.+&+$#&.%$#@$",
"$+.%&%++@%&$+$%$.&$@%$$%&@#%.++$$+&.+..$+$&@%.&&&$%.+&.%+$@$+.%.&##%.%++@%&%&$..#..*$.##%%+%%+",
"%..&**.+%@@@.++$%.+%##$+++@#*@$.$+%#%@%@&.%#@&@#%.@..*@*&$@@.$%$+$.%.*@$.@**#&.&*$+#$+.%##$@*@",
"##.+&**.&##%**%%#&+$&#*.$$..&@@**..@##%%@$+$.&@@.&*$+%%@.$.@@.%#%$+$$&@@&.#*%@%%*#.@@++++$&%*#",
"%+..$%*@.%#&.#@#**.&.$**@@%@$+.#@%$.%%$$&$$$&@%@%%*#&$&&..+$..%*@..%*&$$$&.&$..+$@%&*@.+$$..&.",
"%$$.++.&&.&#$&#%@*@*@.#@&@#**@$&%$$+.#@.$%*@%@$..+$@#@&$&#%&.+.**#&+##@@&**%$$%%...+&%#@%@%%&&",
"@@&.$$.##&$@$+@&$$.%@@@&$++@*#%.@%%.$@*#$+@*&%$$%%&%%##.$@**@.+.*#%++$&%&@*@%@@#@%&+.$@#%@#.$%",
"&@#%$%%@#%.@&+&&@&$.+$@@&.+.%.&.&@@@#%**#++&#@%@@#%%.#**.$#@%@$+%&*#+++.++@%&&%@%@%$$&@$&.&#&&",
"&%*@+$.$.%&%..@.$&$%$+..%@.&*@.@**%$%%.@*@$$.%&&%@@@&%##+$@.&#%$&$@*%+$@.+%#.$$&&%@#..@.%%@#&$",
".@**&$@%$&%@%%*#.$$##&@@%&$+@*&.%@%..&%&&&&.$%.$$$.&$$&@+$#@&@**@$+@*%+@#$$%$.&%@@@#%%#%@&%&.%",
"&$&@&$**..&##&@*%$$&*&.%&&++.@.+..$@@.&&&&@%@@&.%+.#+$%*#.&@%@#*@%&.*#+&*.+&++@#@..&+%##%+$..@",
".+$##.%#%$+$@@@#%&&+&%$%@@%&@*@$%&+&@%$+..%&&%.&#.&*%.&%@.&&+$.#@@@@*#$$*#..@$$&@.&%$+$@#$@#%%",
"@.$%@%%%@.+$$.@@%@%.%@@@&@@$$#*#@.$$$#%.&$%.$$$%*%..&&.$$+$%++.#@@&@#@%..@@%@@$$@@%&@@.$@&&#&%",
"*@&.$+.&*@$@@$%@&*.%@&@&+$#.+$@@#&&$$%.&%&%&@%$$@@@&$&#@#$$#*@%.$%@#%&@%%&%%&%@..#%.&##$%%$*@@",
"%@@@@$%%%#.%###&.*&&.$%#&$%%.&&&@&@.+@@#@+$&#@@&&@@#&&@#*@+$@@...%%%$+&&**@%%&%#%@@&.$&@%@+@&$",
"$$.%@&%#&.&%%%#%$..%.@%@@&%.$.&$$$#@$@%@#&$$..&%$$$.#$$%**%+%#$.%%$.%&@&&#@&$%$&@%#%%&+###%*%$",
"&&@..%$$%.$.$$@@@&.&$@#@%&@@@@%&$+#%.&&%.$.&%.$#@&++@$.%@*@+.*.+&#%$@#@%&#&+&&.%%$$.&%$.@%&**%",
".$%&&##$$$$%.$%$#*%@$$.%%.&&&#&@#&%..$.@&$%@%&$#*%+.&++..&%.+.@$&**.+.$+$#@+.&+.@@@#.$$..%+$#@",
"..&$$&#*%&&@&$@$%*%#%@&%.$.&$$&%@%@%&$$%@..@#.+&*#%##+$%@&@*#.@%&@#@$%@.$@@+$%.$.&@*%%.@%&$$%@",
"%#*.&.$#@&@@%.%.%*@%&%%##%&@#&.*@.@**@%%%$+%*%.#*#.&*#&&%$$@*@&%.$$.$@#&@@@&%@%@&%&#.@&&##..&&",
"%@*@*@$#@&**@++.@@@%+.$.@@%%%$+@*&.%@@%@#.$%@&$&%@&+%@%%.$$&$..@@..$+&*$+@@@%#%%.&&%$...%@&%##",
"&$$.@@$.&$.**#$+.&@*##$$@&%&&++.@.+..$@%#&&%.$+$%*@+%.&@@%.*.++$**%@$.*%+$%@+&@.$..%&&.$$$%.$@",
"&@&.%%%$..+.#*.$&..%#*%$#&&@@%&@*@$%&+.@&$$&%@&&&@&.&&@%@.+*#+.$%#&%$$##.$%#++%@&%@@.@&&*&@&+&",
"..&.@.%@@%$$...&%%.&%&+$@.&&@@$$###@&$.#%.@@@*#@%.+&@.&&.$+@*...$&&%$$&&&&..@.%@.@*@&**.#@%&.@",
"@%@#@$..@#&$@@.%@@&%#&+$@.%$.@&+$.%#%&$%@+$.+$%@*#.@*&+..@%@*#&.@&$@*@##&&#.&$@@$@#%$&@+$%@%%*",
"%$.#*$$$$%@$.@%&%&++**&%%.%&$.&.%+$@..@#*$.@.$.%@%.%*%$.%&$.%##@*#++&&&@.$@@%+&@&@#%.+$$.@#&&@",
".&$%*.%&++&@@@&.@@.+$%%@..@@@&$&@+$..&&%*.##&..#@..&#@%&%&+$.@&$@*@$$+$&&+++*&$.%.&%#@&&.%%$.%",
"$$&##&**&$.%&*&$***#$.##@@#.@#$#*%#&$@..#$.@%..#*.$&##@@&%%&.&@$+#***&.#***%@@.$%@@%@&.%.#*@.#",
"*$+@#&#**@&.+%@$.$.*@+..$%%$%#&@*###.*@$&%%@@@*##%+$%%%@%.@#%+&&+.***#.$%###.@*%$&#%%%&#$&@&.*",
"*&$$%&$&@#*#&&@$$++&@%%%.%%$&@&+$%+$+.@$+%%$$$#*@%@&$%##@&@*#$&.++$%@#&.%%.%%%@@%$%%$.%@&$&$+@",
"@&%$.@.+$.@#..@%%$++$@%&#@%.%%%++##%%&**.#*&+++#@+%@+$#@#%&*%.**.$..%%+$%%$&&@%@%@**%.#@@&@$+.",
"@&%@@#&+$$$&..@%#@%.+.$+@@.%%@#&+%*#*@**$.#*.++%*%##%$.$$&.*@.%#&$%.%%$+&@$+$&.@&&**@@*%@#&&+.",
"%@%**%&$.##%@*#$&@%#%%&$@*&&&@*@++&%&$%#%.%*@.+$@&@%#@&&&.$@%@%@&.@@*&$..@%+%.$%%$.%$$*@&*@.&&",
"..+%#&%$$%%..**&#@.%%$$.&@&.$&**%$.%&$.@&%@##&++%%.$.$.%@.$%&&.@&..%*@@*$+&%&&@&$%*#$+.&&#@$..",
"..+.#$$.&.$$.@%$#*%##&..$$&@&.@@@&&&$.@#..&&*@&+.*#.&.$%&$+..&$$@#$$@#@**..%$+%@&$@#@$$&@**$$.",
"$&%&#&&%@@&..#@+$#%%#@%#.$.&%&.%$+@#$$%%&@##*##.$$%&%@&#*@.$$##$.**@$&&@*@.%@+&*&++$@&.&$.@*&.",
"&$%%#$$#%$$@@**$+$@@@&.##&.&%*&@%+$#%$%.$&@##&%@#&$.&@&.&%##..@$++%%+$%$%%&.*%&&+%%%#.$.+$&*#%",
"#&##*&$@@$+%@@@.&$&#@@.$#@...%#&%@$&#$.%+++$$.$$**%.&%@#$.%@.$@#.$$&$$@&.$&$*##&.@@@@.&#@..@*#",
"@&.&##&$@@+$$$$.%%...%&$.%.&$$#.$%$.##.&&++.%#&+%%&@@.&*..@%$.##@@..$$&%@+.@.@#%&&&.&%###&&%*#",
"%%%..%%$&*&%#&$$$.@%.%@&$%%#$$#@%@..%#%&#*@.@#@&%$+&#%&#&.##.$$.@@##@@$$*%$@+..&*.&&#$++$%$+&@",
".$%&.##.$&&#***.++%@$.@@$&@#%$&.%#&&@%&@#@#$$%@##%++..##@&.@&%@.%@@*@*@+@#.%.&&&##&%**@+.@.+$%",
".%.$.#@$.++&#**@$.&&$&@#&..%@%&++%.+%%$&@.&%...&#*&&.+.&@@.@&.#%.%+.&#*%&%&&#%%&%@%%.@*..@@%.&",
"+@*%@**#*%+.$.@@@%..+.@*&.$.&&*@+&#%@&&%#%+.%@#*#%%%..%.%*@@@+$+$@.@%.@@###@.$&%@..@$@#&@#@#%$",
"%%#%.&@&*#$..$$%.@@@.+.@&#$@@.@#$$@&%$.@#*&&..@#*&@*&.@&+...&.&++%+%@$++$.&@%$...+$%.**&.%#@##",
"@&$+$$$+&#%%**$&&#@@#%%&&%+.%@&%&+&$..++$@##%+$$&%$#*&@@&..@@@#..@$.*#%.$+$.@&%@&.%%++&.+$%%.$",
"$%&$.##+$@@.$@%@.@%.##@@#%$.&*@@#.@#&&.$+$..%&@.+..+&#*@@&+#*%@$$%.$@*@@**#&&.@*%.@@@.%#&.&&$+",
"&.%$$@*$+%@$+$.@$@%+&@&%**@..#.@*&.#*%##%@$+$&**++@&+@*%%%+$%&*@.%#&$%.$***@$$@#.$$$@&&*@%#@%@",
"@$$..@*%+%#%@..@+%%.&%&+&@%..@$&*%$&**@%&*#$$+@**+.@+$****@@@&**.$#*%.$+$%%#&+@#&@&$..&&@@@@.%",
"#&&@$$**.@#%%$.#%&$$&%@.$$$.@@$&&$++.@%$+@*%++$@*$+@$+.@&***#+.#@&.@%$+.$$.@.+.%$.&%.$&$.&.%%%",
"#$$#.+.#@%*##@&%*#%&#*@@.&+$@.$@@+$$+%#...@*@%%&*#$%@.$.+$%@#.$@..%%@%+%@.@#$%@@%$.%.$&...+$.@",
"*&$@$++$%.**@##%$&@$@*%@@*&%*&$#*&##$&#&@%.@#%..@#.$@.&%.$+.%@%#@.&&#*+.#&@#$$&#@..&.&.&#@.$+@",
"####$.$$&+$&.&##++%+$**#.@+$**&**+.&+$@&@@@..#%.%@.@*%@%%&$#%%&&@%$$&*@.&$$.@.$&%$%@%@&&&$@#@&",
".&%#%#.$.$.&.#@.$.@$+.%@$@.++&.&#&&#$$@@.$&#%@#&%@$$@&%&@.+.&&$$%#@.&%#@$.&%#%#**&@#@*@%%.%&%.",
"...$&*%&#@&%$.*@&$%@.+%+@*@$.@#&.#&#@&.&@$+@%.%@..&++$.@*%$$$&&.##%.%$.*%&.%%$%**.$&$%%*@&%&&&",
"&.&%&*#..%&%@.&@@..@.&@*%%#$+%#@.*#%&&.$*@+.$$.**.%&&&$#*@@&@&%++%$$%.$&&@..@$$.%$$%.%.#..%@.$",
"*%...#*@..%%#%&%%.@*@$+..&*@+++.%%%.&@@%%@%%@$$@**&.@*&.@@#.$%@@&##%%&$..%.%&$%**@.%&&$#%.$%*@",
"*@#.+$@*#%.%%&.%@$$@%.++..**%.&@@%&$.@.%&&&%*%$$&%@.$@@&.@@#&$.%..#@$$.@@.$%&$$@**%%..$&*#%%#*",
"%$#%+$&@@#.&@#@..&+$@#&$$+.@.%&++##%&#@&%&$$&.$%&.%&$$.&$.@##%.%&$.@&..&.$$.#.++$$.%@%$&.$@&.%",
"*$&%..$$$#@%.&**.%$$@#.$$$&@%$%%.%&.&%@@&@..%$$@%.%.@%.&.+.%.&.&&$$%@..%$$@@%&@%%$&@@*%&$+$%@*",
"#@@#@%%$+.@@$$@*#&.+.*%..&@#%#@.%@@$..$@#@.&*%$%$.#.@@%%@.&*@.@**@%%%+&*%.@*#@@@*%%#&@*@%@&$$&",
"$.%&%%*@&$.*@$$&@@**%%#*#&.%%**$$.@%@#%%**#@**&&+$.&##@%&$+@*&.%@@%@#..#*&+%&%%&#&$&&&#@.%@++$"};
