/* XPM */
static const char *bottom[]={
"32 32 6 1",
". c #000000",
"a c #3b3b39",
"b c #777773",
"c c #b2b2ac",
"# c #c3c3c3",
"d c #ffff00",
"................................",
".##############################.",
".##############################.",
".###########abbbbbbbbbbbbbab###.",
".##########bb############ccb###.",
".#########b#b###########cc#b###.",
".########b##b##########cc##b###.",
".#######b###b#########cc###b###.",
".######b####b########cc####b###.",
".#####b#####b#######cc#####b###.",
".####b######b######cc######b###.",
".###b#######b#####cc#######b###.",
".##abbbbbbbbabbbbbc########b###.",
".##b########b####b#########b###.",
".##b########b####b#########b###.",
".##b########b####b#########b###.",
".##b########b####b#########b###.",
".##b########bbbbbabbbbbbbbbb###.",
".##b#######ccddddbddddddddb####.",
".##b######ccdddddbdddddddb#####.",
".##b#####ccddddddbddddddb######.",
".##b####ccdddddddbdddddb#######.",
".##b###ccddddddddbddddb########.",
".##b##ccdddddddddbdddb#########.",
".##b#ccddddddddddbddb##########.",
".##bccdddddddddddbdb###########.",
".##acddddddddddddbb############.",
".##bbbbbbbbbbbbbbb#############.",
".##############################.",
".##############################.",
".##############################.",
"................................"};
