/* XPM */
static char *cancel[]={
"32 32 4 1",
". c None",
"a c #000000",
"b c #808080",
"# c #ff0000",
"................................",
"................................",
"................................",
"................................",
"................................",
".......................##.......",
"..........##a.........###a......",
".........###ab.......###aab.....",
".........####ab.....###aabbb....",
"..........###ab....###aabbbb....",
"..........####ab..###aabbbb.....",
"...........####..###aabbbb......",
"...........#########abbbb.......",
"............#######aabbb........",
"............######aabbb.........",
"............######abbbb.........",
"............######abbb..........",
"...........########ab...........",
"..........##########a...........",
".........############a..........",
"........#####aa#######a.........",
"........####aab.######aa........",
".......####aabbb.####aabb.......",
".......###aabbbb..##aabbbb......",
".......###abbbb...#aabbbb.......",
".......##aabbb.....abbbb........",
"........aabbb......bbbb.........",
"........bbbbb.......bb..........",
"..........bb....................",
"................................",
"................................",
"................................"};
