/* XPM */
static char * cancel[] = {
"32 32 168 2",
"  	c None",
". 	c #1D1414",
"+ 	c #775151",
"@ 	c #76504F",
"# 	c #1F1514",
"$ 	c #1C1010",
"% 	c #734241",
"& 	c #73413F",
"* 	c #1E1110",
"= 	c #2C1E1E",
"- 	c #EDA19F",
"; 	c #ED9897",
"> 	c #EE7F7E",
", 	c #DF6E6D",
"' 	c #2C1616",
") 	c #563130",
"! 	c #E6827F",
"~ 	c #E57B78",
"{ 	c #E56866",
"] 	c #D65A57",
"^ 	c #1C0A0A",
"/ 	c #000000",
"( 	c #936160",
"_ 	c #EC9593",
": 	c #F1514F",
"< 	c #F3403F",
"[ 	c #E33C3B",
"} 	c #2D0C0B",
"| 	c #562F2E",
"1 	c #E57E7B",
"2 	c #E47774",
"3 	c #E54442",
"4 	c #E43635",
"5 	c #E13533",
"6 	c #701A19",
"7 	c #A16765",
"8 	c #EE6F6D",
"9 	c #F23F3E",
"0 	c #E23B3A",
"a 	c #2C0B0B",
"b 	c #552E2D",
"c 	c #E47A77",
"d 	c #E37370",
"e 	c #E34240",
"f 	c #DF3332",
"g 	c #DD3230",
"h 	c #6D1817",
"i 	c #492C2C",
"j 	c #EE6664",
"k 	c #F13F3E",
"l 	c #EF3D3C",
"m 	c #ED3C3B",
"n 	c #DC3735",
"o 	c #722F2E",
"p 	c #E37672",
"q 	c #E26F6C",
"r 	c #E1403E",
"s 	c #DF3331",
"t 	c #DC3230",
"u 	c #DA302F",
"v 	c #D82F2D",
"w 	c #360B0B",
"x 	c #592020",
"y 	c #F13F3D",
"z 	c #EC3C3A",
"A 	c #EA3A39",
"B 	c #E83938",
"C 	c #E53736",
"D 	c #E33A38",
"E 	c #E1605D",
"F 	c #DF3E3C",
"G 	c #DA302E",
"H 	c #D62E2B",
"I 	c #501110",
"J 	c #591616",
"K 	c #E83937",
"L 	c #E33634",
"M 	c #E13433",
"N 	c #D32C2A",
"O 	c #4F100F",
"P 	c #561514",
"Q 	c #E03433",
"R 	c #DE3331",
"S 	c #DC3130",
"T 	c #D52D2B",
"U 	c #D12B28",
"V 	c #4E100F",
"W 	c #6F1F1E",
"X 	c #D72F2D",
"Y 	c #CF2927",
"Z 	c #661413",
"` 	c #291211",
" .	c #D05B57",
"..	c #DB4946",
"+.	c #CC2825",
"@.	c #CA2724",
"#.	c #BC2320",
"$.	c #250606",
"%.	c #291110",
"&.	c #CF5753",
"*.	c #DC5753",
"=.	c #D43431",
"-.	c #D02A28",
";.	c #CE2927",
">.	c #CA2624",
",.	c #C82523",
"'.	c #C62421",
").	c #C42320",
"!.	c #B61F1D",
"~.	c #240605",
"{.	c #29100F",
"].	c #CE534F",
"^.	c #DB534F",
"/.	c #D2322F",
"(.	c #CE2926",
"_.	c #C82522",
":.	c #C2211E",
"<.	c #C0201D",
"[.	c #BE1F1C",
"}.	c #B11C19",
"|.	c #220504",
"1.	c #290F0F",
"2.	c #CD4F4B",
"3.	c #DA4F4B",
"4.	c #D0302D",
"5.	c #7B1614",
"6.	c #BC1E1B",
"7.	c #BA1D19",
"8.	c #B91B18",
"9.	c #AB1915",
"0.	c #160302",
"a.	c #88312F",
"b.	c #D94B47",
"c.	c #CE2E2B",
"d.	c #C42220",
"e.	c #490C0B",
"f.	c #470B0A",
"g.	c #BC1E1A",
"h.	c #BA1C19",
"i.	c #B81B18",
"j.	c #B71A17",
"k.	c #B51916",
"l.	c #B31815",
"m.	c #590B0A",
"n.	c #95322F",
"o.	c #D13935",
"p.	c #C4221F",
"q.	c #480C0B",
"r.	c #450A09",
"s.	c #B61A17",
"t.	c #B11713",
"u.	c #B01612",
"v.	c #570A09",
"w.	c #431513",
"x.	c #CD322E",
"y.	c #C3221F",
"z.	c #430907",
"A.	c #AE1511",
"B.	c #AD1410",
"C.	c #2B0504",
"D.	c #3F0D0C",
"E.	c #901816",
"F.	c #831513",
"G.	c #2F0706",
"H.	c #360605",
"I.	c #820F0C",
"J.	c #760D0B",
"K.	c #2A0403",
"                                                                ",
"                                                                ",
"                                                                ",
"                                                                ",
"                                                                ",
"                                                                ",
"                                                                ",
"                                                                ",
"                  . + @ #               $ % & *                 ",
"                = - ; > , '           ) ! ~ { ] ^               ",
"              / ( _ : < < [ }       | 1 2 3 4 5 6               ",
"              / 7 8 < < < 9 0 a / b c d e 5 f g h               ",
"                i j < 9 k l m n o p q r s t u v w               ",
"                / x y l z A B C D E F t G v H I /               ",
"                  / J A K C L M s t G v H N O /                 ",
"                    / P L Q R S G v T N U V /                   ",
"                      / W S G X T N U Y Z /                     ",
"                      `  ...T N U Y +.@.#.$.                    ",
"                    %.&.*.=.-.;.+.>.,.'.).!.~.                  ",
"                  {.].^./.(.+.>._.'.).:.<.[.}.|.                ",
"                1.2.3.4.+.>._.'.5.:.<.[.6.7.8.9.0.              ",
"              / a.b.c.>._.'.d.e./ f.g.h.i.j.k.l.m.              ",
"              / n.o._.'.p.:.q./   / r.s.k.l.t.u.v.              ",
"                w.x.y.:.<.f./       / z.t.u.A.B.C.              ",
"                / D.E.F.G./           / H.I.J.K./               ",
"                    / /                   / /                   ",
"                                                                ",
"                                                                ",
"                                                                ",
"                                                                ",
"                                                                ",
"                                                                "};
