/* XPM */
static char * close_xpm[] = {
"16 16 114 2",
"  	c None",
". 	c #A62212",
"+ 	c #BC5D48",
"@ 	c #CC846A",
"# 	c #CA8164",
"$ 	c #C98063",
"% 	c #C98061",
"& 	c #C97F60",
"* 	c #C87E5E",
"= 	c #C87D5C",
"- 	c #C77C5B",
"; 	c #C67B59",
"> 	c #C57856",
", 	c #B75036",
"' 	c #C47252",
") 	c #BA5632",
"! 	c #BB5A36",
"~ 	c #BC5F39",
"{ 	c #BD623C",
"] 	c #BE653F",
"^ 	c #C06942",
"/ 	c #C26D46",
"( 	c #C27149",
"_ 	c #C4744D",
": 	c #C57750",
"< 	c #C88059",
"[ 	c #B54D34",
"} 	c #D28C6F",
"| 	c #EBCBBD",
"1 	c #FDF0EA",
"2 	c #FCEEE7",
"3 	c #EACABA",
"4 	c #D29070",
"5 	c #C67C54",
"6 	c #C77F58",
"7 	c #C2704C",
"8 	c #DEAB95",
"9 	c #FFFFFF",
"0 	c #FAF0EA",
"a 	c #E4BEAD",
"b 	c #E6C3B2",
"c 	c #FEF6F2",
"d 	c #DCAB91",
"e 	c #C8825C",
"f 	c #C2724D",
"g 	c #D39276",
"h 	c #EBC6B5",
"i 	c #C37049",
"j 	c #DFAE96",
"k 	c #D9A48A",
"l 	c #C77C56",
"m 	c #F2DED1",
"n 	c #D49876",
"o 	c #CA8760",
"p 	c #C26F4C",
"q 	c #F1D6CB",
"r 	c #F8EAE4",
"s 	c #F6E2D8",
"t 	c #ECD0C1",
"u 	c #CB8661",
"v 	c #FEF7F4",
"w 	c #ECD1C1",
"x 	c #CA8963",
"y 	c #C16E49",
"z 	c #FFFAF8",
"A 	c #E2B9A6",
"B 	c #F6E3D9",
"C 	c #EDD1C3",
"D 	c #EFD6C8",
"E 	c #F8E8DF",
"F 	c #CD8E69",
"G 	c #C16C48",
"H 	c #E2BBA8",
"I 	c #F7E4DA",
"J 	c #EDD2C4",
"K 	c #F0D8CA",
"L 	c #F9E9E0",
"M 	c #CF936F",
"N 	c #C06946",
"O 	c #F5DFD4",
"P 	c #F8ECE6",
"Q 	c #F7E5DB",
"R 	c #EED4C5",
"S 	c #FEF8F4",
"T 	c #EED6C8",
"U 	c #D29876",
"V 	c #C06846",
"W 	c #D8A186",
"X 	c #EDCBB9",
"Y 	c #E5BEA8",
"Z 	c #DFB299",
"` 	c #CC8C66",
" .	c #F4E3D8",
"..	c #DEAF92",
"+.	c #D49D7D",
"@.	c #BF6645",
"#.	c #E9C3B0",
"$.	c #F9EEE8",
"%.	c #E7C7B5",
"&.	c #E8CAB9",
"*.	c #FCF4EF",
"=.	c #E5C1AB",
"-.	c #D6A183",
";.	c #BE6444",
">.	c #DBA88B",
",.	c #F2DCCF",
"'.	c #FFFAF5",
").	c #FFF8F4",
"!.	c #F2DCD0",
"~.	c #DFB195",
"{.	c #D8A78B",
"].	c #BA5538",
"^.	c #CD8A6D",
"/.	c #AE361E",
"      . . . . . . . . . .       ",
"  . + @ # $ % & * = - ; > , .   ",
"  + ' ) ! ~ { ] ^ / ( _ : < [   ",
". @ ) ! ~ } | 1 2 3 4 : 5 6 7 . ",
". # ! ~ 8 9 0 a b c 9 d 6 e f . ",
". $ ~ g 9 h i j k l m 9 n o p . ",
". % { q r / ( s t 5 u v w x y . ",
". & ] z A ( _ B C 6 e D E F G . ",
". * ^ z H _ : I J e o K L M N . ",
". = / O P : 5 Q R o F S T U V . ",
". - ( W 9 X 6 Y Z `  .9 ..+.@.. ",
". ; _ : #.9 $.%.&.*.9 =.+.-.;.. ",
". > : 5 6 >.,.'.).!.~.+.-.{.].. ",
"  , < 6 e o x F M U +.-.{.^./.  ",
"  . [ 7 f p y G N V @.;.]./..   ",
"      . . . . . . . . . .       "};
