/* XPM */
static char * copy_xpm[] = {
"16 16 101 2",
"  	c None",
". 	c #D9D8E7",
"+ 	c #BDBDCE",
"@ 	c #FFFFFF",
"# 	c #FEFDFE",
"$ 	c #FAF9FC",
"% 	c #F6F6FA",
"& 	c #E3E2EE",
"* 	c #A5A6B8",
"= 	c #FDFCFE",
"- 	c #F8F6FB",
"; 	c #F0EFF6",
"> 	c #E7E6F0",
", 	c #D7D6E2",
"' 	c #A7A8BA",
") 	c #FEFEFF",
"! 	c #F9F8FC",
"~ 	c #F2F1F8",
"{ 	c #C6C6D4",
"] 	c #AEAEC0",
"^ 	c #FBFAFE",
"/ 	c #F3F2F8",
"( 	c #E4E3EE",
"_ 	c #D8D7E6",
": 	c #C0BFC5",
"< 	c #ECECF3",
"[ 	c #D0D0DE",
"} 	c #FFFEFF",
"| 	c #FCFCFE",
"1 	c #F7F6FA",
"2 	c #EAE9F2",
"3 	c #E3E2ED",
"4 	c #E0DFEB",
"5 	c #C1C1D0",
"6 	c #CACACE",
"7 	c #F6F4FA",
"8 	c #EFEEF6",
"9 	c #B6B6C6",
"0 	c #F8F7FC",
"a 	c #EBEAF3",
"b 	c #E8E7F0",
"c 	c #E6E4EE",
"d 	c #C4C4D2",
"e 	c #CCCCCE",
"f 	c #F8F8FC",
"g 	c #F2F0F7",
"h 	c #C5C5D3",
"i 	c #FCFBFD",
"j 	c #F4F3F9",
"k 	c #EEEDF5",
"l 	c #E8E6F0",
"m 	c #CCCCCF",
"n 	c #FAF8FD",
"o 	c #EAE8F2",
"p 	c #D7D6E5",
"q 	c #BBBBCC",
"r 	c #F5F4FA",
"s 	c #F2F1F7",
"t 	c #ECEBF4",
"u 	c #E8E8F1",
"v 	c #C7C6D4",
"w 	c #FAF9FD",
"x 	c #E2E0EC",
"y 	c #DCDBE8",
"z 	c #BFBFCF",
"A 	c #E8E8F2",
"B 	c #C7C7D4",
"C 	c #CAC9CC",
"D 	c #E5E4EE",
"E 	c #C3C3D2",
"F 	c #FAFAFC",
"G 	c #F6F5FA",
"H 	c #F4F2F9",
"I 	c #F0F0F6",
"J 	c #EEECF4",
"K 	c #C9C9D6",
"L 	c #C4C4C8",
"M 	c #F0EEF6",
"N 	c #EDECF4",
"O 	c #C5C5D4",
"P 	c #A1A2B5",
"Q 	c #9F9FAF",
"R 	c #ACACB6",
"S 	c #A8A8B4",
"T 	c #CACACF",
"U 	c #F1F0F7",
"V 	c #EEEDF6",
"W 	c #CECEDC",
"X 	c #F4F4F4",
"Y 	c #EBEBEF",
"Z 	c #EFEEF4",
"` 	c #F2F2F8",
" .	c #E9E8F2",
"..	c #E8E7F1",
"+.	c #D0D0DA",
"@.	c #CFCFDA",
"#.	c #CECED9",
"$.	c #CDCDD9",
"%.	c #CBCBD7",
"&.	c #CACAD6",
"*.	c #B6B7C6",
"  . . . . . +                   ",
". @ @ # $ % & *                 ",
". @ @ = - ; > , '               ",
". @ @ ) ! ~ { + ]               ",
". @ @ ) ^ / ( _ + : < < [       ",
". @ } | 1 2 3 4 5 6 7 8 & 9     ",
". @ ) 0 8 a b c d e f g { h *   ",
". @ i j ; k a l { m n / o p q   ",
". @ 0 r s 8 t u v e w 8 x y z   ",
". @ % j s 8 t A B C ~ o D 3 E   ",
". ) F f G H I J K L M N o > O   ",
"  P P P P P Q R S T U V t b {   ",
"            W X Y Z ` M t  .B   ",
"            . ) % j g V t ..v   ",
"            + +.+.@.#.$.%.&.*.  ",
"                                "};
