/* XPM */
static const char *crosscursor[]={
"33 33 4 1",
"a c None",
". c None",
"# c #ffff00",
"b c #ffffff",
".................................",
"...............#.................",
"...............#.................",
".............aa#.................",
".............aa#.................",
".............aa..................",
".............aa#.................",
".............aa..................",
".............aa#.................",
"............aaa#.................",
"............aaa#.................",
"...........aaaa#.................",
"..........aaaabbb................",
"........aaaaab.#.b...............",
"...aaaaaaaaaba.#..b..............",
"...aaaaaaaaba..#...b.............",
".###.#.###.b#######b#a###a#.###..",
"...aaaaaaaab...#...b.............",
"...aaaaaaaa.b..#..b..............",
".............b.#.b...............",
"..............bbb................",
"...............#.................",
"...............#.................",
"...............#.................",
"...............#.................",
"...............#.................",
"...............a.................",
"...............#.................",
"...............#.................",
"...............#.................",
"...............#.................",
".................................",
"................................."};
