/* XPM */
static const char * cross_xpm[] = {
"25 25 4 1",
" 	c None",
".	c #040204",
"+	c #FC0204",
"@	c #9C9A9C",
"                         ",
"                         ",
"                         ",
"                         ",
"   +            +...+    ",
"    +...+      ++...+    ",
"     +++..+    ..+++.    ",
"     +++..+    ..+++.    ",
"      ++..++.++..+++@    ",
"        ++..+..++..@     ",
"         +..+..++@@      ",
"          ++.++.@        ",
"           +.++.         ",
"           .+..++        ",
"          ++.++..++      ",
"         .++.++..+++     ",
"         +..+ .++...+    ",
"         +.   @++...+    ",
"         +.   @++...+    ",
"         .+    @.+++.    ",
"        .@      @+++.    ",
"        +                ",
"      @@                 ",
"                         ",
"                         "};
