/* XPM */
static char * cut_xpm[] = {
"16 16 91 1",
" 	c None",
".	c #D2D2DB",
"+	c #CACAD4",
"@	c #E8E8ED",
"#	c #D2D2DC",
"$	c #DFDFE6",
"%	c #DADAE1",
"&	c #D3D3DC",
"*	c #C4C4D0",
"=	c #CBCBD6",
"-	c #FAFAFB",
";	c #A7A7B7",
">	c #B6B6C5",
",	c #B7B7C5",
"'	c #EBEBEF",
")	c #B0B0C0",
"!	c #A7A7B9",
"~	c #AAAABB",
"{	c #A2A2B5",
"]	c #D9D9E0",
"^	c #9A9AAE",
"/	c #82829C",
"(	c #9999AE",
"_	c #C7C7D2",
":	c #84849C",
"<	c #C7962E",
"[	c #E8CE38",
"}	c #F0DC3A",
"|	c #E1B833",
"1	c #A59A98",
"2	c #777792",
"3	c #C89A2D",
"4	c #F4D534",
"5	c #DDB02F",
"6	c #D5AA2D",
"7	c #FEE636",
"8	c #EDC531",
"9	c #CAB95E",
"0	c #A38A63",
"a	c #986228",
"b	c #F2C42A",
"c	c #A77323",
"d	c #F0C02A",
"e	c #FCD02B",
"f	c #E4B22E",
"g	c #F4D736",
"h	c #DAAE2E",
"i	c #D9A52D",
"j	c #BC8024",
"k	c #F3B220",
"l	c #7E5020",
"m	c #B27625",
"n	c #F8B620",
"o	c #CE9126",
"p	c #E8BB2E",
"q	c #FFDF32",
"r	c #F7D031",
"s	c #FCD931",
"t	c #D39F2B",
"u	c #925C24",
"v	c #F9A414",
"w	c #C37B1A",
"x	c #B6721C",
"y	c #E99717",
"z	c #C48222",
"A	c #E4AE29",
"B	c #E2AC29",
"C	c #C58A28",
"D	c #F4C229",
"E	c #9A6623",
"F	c #A3631D",
"G	c #D17C16",
"H	c #CC7A17",
"I	c #9F641F",
"J	c #E0A123",
"K	c #B78021",
"L	c #ECAD22",
"M	c #B87C26",
"N	c #C88620",
"O	c #BE7E1E",
"P	c #9B6326",
"Q	c #F0A41A",
"R	c #8C5A23",
"S	c #A46823",
"T	c #F29712",
"U	c #C67919",
"V	c #E08A15",
"W	c #CA801A",
"X	c #A4621D",
"Y	c #D37B14",
"Z	c #BC6E17",
"         .      ",
"        +@      ",
"        #$   %& ",
"        *.  =-; ",
"        >* ,')  ",
"        !~{]^   ",
"        /(_:    ",
"   <[}| 1~2     ",
"  34567890      ",
" abc  defghi    ",
" jkl mnopqrst   ",
" uvwxyz AB CDE  ",
"  FGHI  JK  LM  ",
"        NO PQR  ",
"        STUVW   ",
"         XYZ    "};
