/* XPM */
static const char * fileopen[] = {
"16 16 164 2",
"  	c None",
". 	c #848CBC",
"+ 	c #9098C3",
"@ 	c #A3AACD",
"# 	c #DEE0F0",
"$ 	c #ECEDF7",
"% 	c #747DAC",
"& 	c #2A6CCB",
"* 	c #7EA8DF",
"= 	c #75A5DE",
"- 	c #6EA0DD",
"; 	c #5690D9",
"> 	c #114EB2",
", 	c #8F95BF",
"' 	c #C4C8E0",
") 	c #F6F6FD",
"! 	c #EEEEFA",
"~ 	c #EAEAF6",
"{ 	c #C6CAE3",
"] 	c #4880D4",
"^ 	c #DEFAFF",
"/ 	c #C9F2FF",
"( 	c #C0ECFF",
"_ 	c #AFD8F5",
": 	c #A0B1D7",
"< 	c #EFF0F7",
"[ 	c #FAFAFF",
"} 	c #F4F4FC",
"| 	c #E9E9F6",
"1 	c #EDEDF7",
"2 	c #7A89BE",
"3 	c #467ED2",
"4 	c #DCF9FF",
"5 	c #C8F0FF",
"6 	c #AEC7E4",
"7 	c #D4D7E8",
"8 	c #FFFFFF",
"9 	c #FEFEFF",
"0 	c #DEE1F2",
"a 	c #ABBCE4",
"b 	c #A4B6E0",
"c 	c #2B4EA1",
"d 	c #0036A6",
"e 	c #427AD2",
"f 	c #D8F8FF",
"g 	c #C6EEFE",
"h 	c #C0C8DF",
"i 	c #EBECF8",
"j 	c #507ECF",
"k 	c #78A8EA",
"l 	c #72A6EE",
"m 	c #6DA0EA",
"n 	c #548BE0",
"o 	c #043CAC",
"p 	c #3D78D0",
"q 	c #D5F6FF",
"r 	c #C3EDFF",
"s 	c #4E85D4",
"t 	c #84AAE3",
"u 	c #83AAE4",
"v 	c #7EA7E2",
"w 	c #78A2E0",
"x 	c #729DDF",
"y 	c #6995DC",
"z 	c #8ABAF4",
"A 	c #57A2FF",
"B 	c #509EFF",
"C 	c #4C95F7",
"D 	c #0839BE",
"E 	c #002FA2",
"F 	c #3974CE",
"G 	c #D2F4FF",
"H 	c #8ABEEC",
"I 	c #B1CDEE",
"J 	c #DAE6F5",
"K 	c #E8FFFF",
"L 	c #CEF2FF",
"M 	c #ABD8FF",
"N 	c #87BDFC",
"O 	c #66A4F8",
"P 	c #4C8EF4",
"Q 	c #3D7EEC",
"R 	c #285ED7",
"S 	c #042AB6",
"T 	c #0026AC",
"U 	c #3471CE",
"V 	c #CEF3FF",
"W 	c #5792DC",
"X 	c #EDFCFF",
"Y 	c #D0F1FE",
"Z 	c #B1D9F8",
"` 	c #97C8FE",
" .	c #76ABF8",
"..	c #5690F2",
"+.	c #3674EB",
"@.	c #1F5BDE",
"#.	c #0C3FC9",
"$.	c #0333C2",
"%.	c #001CB0",
"&.	c #0027A1",
"*.	c #306ECC",
"=.	c #C1EAFE",
"-.	c #709EDE",
";.	c #D5F4FF",
">.	c #ACE0FF",
",.	c #8DC3FA",
"'.	c #85B9FB",
").	c #6CA4F8",
"!.	c #4D89F2",
"~.	c #2062E4",
"{.	c #094AD9",
"].	c #0843D0",
"^.	c #0436C6",
"/.	c #001EB0",
"(.	c #002AA6",
"_.	c #2B6ACC",
":.	c #78AFE7",
"<.	c #BCD4F2",
"[.	c #E2F4FF",
"}.	c #D9EEFF",
"|.	c #C9E0FC",
"1.	c #B6CEF4",
"2.	c #AAC3F0",
"3.	c #92ADE7",
"4.	c #7C9BE1",
"5.	c #7490D9",
"6.	c #6F85CE",
"7.	c #677CC6",
"8.	c #3150B3",
"9.	c #002082",
"0.	c #2768CA",
"a.	c #508ADA",
"b.	c #F8F8FC",
"c.	c #F0F0F6",
"d.	c #E7E7F0",
"e.	c #DFDFE9",
"f.	c #D6D6E3",
"g.	c #CDCDDD",
"h.	c #C4C4D6",
"i.	c #BCBCD0",
"j.	c #3955AE",
"k.	c #1254C0",
"l.	c #81A6DF",
"m.	c #FCFCFE",
"n.	c #F0F1F5",
"o.	c #E4E5EB",
"p.	c #D8D8E1",
"q.	c #CCCDD6",
"r.	c #C0C1CC",
"s.	c #B6B7C3",
"t.	c #ACAEBF",
"u.	c #072B98",
"v.	c #2A64C6",
"w.	c #4174CC",
"x.	c #4072CA",
"y.	c #3E70C8",
"z.	c #3B6CC6",
"A.	c #3666C0",
"B.	c #3160BC",
"C.	c #2B5AB6",
"D.	c #0638AC",
"E.	c #002BA7",
"F.	c #0028A6",
"G.	c #0026A4",
"                                ",
"                  . +           ",
"                @ # $ %         ",
"& * = - ; > , ' ) ! ~ {         ",
"] ^ / ( _ : < [ } ! | 1 2       ",
"3 4 5 6 7 8 9 [ } ! 0 a b c d   ",
"e f g h 8 8 9 [ } i j k l m n o ",
"p q r s t u v w x y z A B C D E ",
"F G H I J K L M N O P Q R S T   ",
"U V W X Y Z `  ...+.@.#.$.%.&.  ",
"*.=.-.;.>.,.'.).!.~.{.].^./.(.  ",
"_.:.<.[.}.|.1.2.3.4.5.6.7.8.9.  ",
"0.a.8 8 8 b.c.d.e.f.g.h.i.j.    ",
"k.l.8 8 8 m.n.o.p.q.r.s.t.u.    ",
"  v.w.x.y.z.A.B.C.D.E.F.G.      ",
"                                "};
