/* XPM */
static char * filesaveas_xpm[] = {
"16 16 173 2",
"  	c None",
". 	c #F3C24C",
"+ 	c #E4AC84",
"@ 	c #CC6F37",
"# 	c #A6A6BE",
"$ 	c #A2A2BA",
"% 	c #9A9AB4",
"& 	c #9090AC",
"* 	c #8787A6",
"= 	c #7E7E9F",
"- 	c #747498",
"; 	c #D19F25",
"> 	c #FFDF04",
", 	c #FFD060",
"' 	c #F0AE72",
") 	c #C9CBD9",
"! 	c #DDE1EA",
"~ 	c #FFFFFF",
"{ 	c #7385A8",
"] 	c #7F90AF",
"^ 	c #FEFCF7",
"/ 	c #FAD619",
"( 	c #FFCA04",
"_ 	c #FFAD16",
": 	c #D08243",
"< 	c #494B7A",
"[ 	c #C0C2D3",
"} 	c #CED5E1",
"| 	c #3A5384",
"1 	c #7788AA",
"2 	c #FBE09A",
"3 	c #FFE209",
"4 	c #FFC114",
"5 	c #FB9926",
"6 	c #9C8686",
"7 	c #484A78",
"8 	c #B8BBCD",
"9 	c #C6CDDC",
"0 	c #7A8BAC",
"a 	c #B0BBCE",
"b 	c #FFFEFB",
"c 	c #FAD636",
"d 	c #FFD423",
"e 	c #FFB92C",
"f 	c #EC984D",
"g 	c #7786A6",
"h 	c #3C3E6E",
"i 	c #B0B4C8",
"j 	c #BDC6D6",
"k 	c #ECEEF3",
"l 	c #EAEDF2",
"m 	c #E8ECF1",
"n 	c #E7EAF0",
"o 	c #EED9AB",
"p 	c #FEE835",
"q 	c #FFCD37",
"r 	c #FDAD44",
"s 	c #C49F8D",
"t 	c #647295",
"u 	c #353667",
"v 	c #A8ACC2",
"w 	c #B4BED0",
"x 	c #ADB8CC",
"y 	c #A6B2C8",
"z 	c #A0ACC4",
"A 	c #99A6C0",
"B 	c #E4C852",
"C 	c #FFDF4C",
"D 	c #FFC94E",
"E 	c #DA8E49",
"F 	c #636E91",
"G 	c #59668C",
"H 	c #2E3061",
"I 	c #A0A5BD",
"J 	c #ACB6CB",
"K 	c #AAB6CA",
"L 	c #A4B0C6",
"M 	c #B0A692",
"N 	c #FEEA5E",
"O 	c #FFD85C",
"P 	c #FFC468",
"Q 	c #997365",
"R 	c #647093",
"S 	c #4E5C82",
"T 	c #27295C",
"U 	c #989DB7",
"V 	c #A3AFC6",
"W 	c #F8F8FA",
"X 	c #EBEBF0",
"Y 	c #F5DA83",
"Z 	c #FFE976",
"` 	c #FFD870",
" .	c #EAA762",
"..	c #C3BFCC",
"+.	c #BCBCCE",
"@.	c #424F78",
"#.	c #1F2053",
"$.	c #9096B2",
"%.	c #9AA7C0",
"&.	c #E8E8F0",
"*.	c #D1D1E2",
"=.	c #CACADD",
"-.	c #FBDC74",
";.	c #FFE381",
">.	c #FFD888",
",.	c #BF947E",
"'.	c #A1A1BC",
").	c #9B9BB4",
"!.	c #34416A",
"~.	c #191A4D",
"{.	c #888EAC",
"].	c #8B99B5",
"^.	c #DEDEE8",
"/.	c #CECEDE",
"(.	c #C9C2CB",
"_.	c #F8D6AB",
":.	c #FFECBF",
"<.	c #E5B282",
"[.	c #9C90A2",
"}.	c #9292AF",
"|.	c #9292AD",
"1.	c #2C3963",
"2.	c #141648",
"3.	c #7D84A5",
"4.	c #7A88A7",
"5.	c #D4D4E1",
"6.	c #C4C4D7",
"7.	c #C0B2B7",
"8.	c #DCC3AD",
"9.	c #E2BCA0",
"0.	c #9F8E9A",
"a.	c #9090AE",
"b.	c #8A8AA8",
"c.	c #8989A7",
"d.	c #25325C",
"e.	c #101245",
"f.	c #70779A",
"g.	c #6E7C9E",
"h.	c #C5C5D7",
"i.	c #B1B1CA",
"j.	c #AD9EAC",
"k.	c #A8745E",
"l.	c #92879D",
"m.	c #8787A8",
"n.	c #8181A3",
"o.	c #7D7DA0",
"p.	c #8585A4",
"q.	c #212F59",
"r.	c #0E1042",
"s.	c #64688E",
"t.	c #5E668B",
"u.	c #BABAC7",
"v.	c #B2B2C1",
"w.	c #ABA7B6",
"x.	c #A199A8",
"y.	c #9898AE",
"z.	c #9292A8",
"A.	c #8A8AA2",
"B.	c #8888A1",
"C.	c #80809C",
"D.	c #162048",
"E.	c #090A3C",
"F.	c #1D1D56",
"G.	c #28285D",
"H.	c #26265C",
"I.	c #24245A",
"J.	c #232359",
"K.	c #222258",
"L.	c #202056",
"M.	c #1E1E56",
"N.	c #1C1C54",
"O.	c #1C1C53",
"P.	c #04043F",
"                  . + @         ",
"  # $ % & * = - ; > , '         ",
") ! ~ { ] ~ ~ ^ / ( _ : <       ",
"[ } ~ | 1 ~ ~ 2 3 4 5 6 7       ",
"8 9 ~ 0 a ~ b c d e f g h       ",
"i j k l m n o p q r s t u       ",
"v w x y z A B C D E F G H       ",
"I J a K L M N O P Q R S T       ",
"U V ~ W X Y Z `  ...+.@.#.      ",
"$.%.&.*.=.-.;.>.,.'.).!.~.      ",
"{.].^./.(._.:.<.[.}.|.1.2.      ",
"3.4.5.6.7.8.9.0.a.b.c.d.e.      ",
"f.g.h.i.j.k.l.m.n.o.p.q.r.      ",
"s.t.u.v.w.x.y.z.A.B.C.D.E.      ",
"  F.G.H.I.J.K.L.M.N.O.P.        ",
"                                "};
