/* XPM */
static const char *filewritegcode[]={
"24 24 333 2",
".# c None",
"Qt c #000000",
".l c #00028c",
".m c #000791",
".a c #020a97",
".k c #03139e",
".i c #0518a1",
".h c #0618a2",
"c9 c #07088c",
".g c #0719a2",
".f c #071aa2",
".e c #081aa2",
".d c #081aa3",
".j c #081ba5",
".b c #081ca6",
".c c #091ba4",
".E c #0d24a8",
".F c #0e27af",
".Y c #112aaf",
"#d c #132caf",
"cr c #1335ea",
"cb c #1434eb",
"#u c #152eaf",
"dk c #161f9c",
"#L c #1730af",
"#0 c #1a31af",
"ab c #1d33af",
"ao c #1f35af",
"bu c #2158f2",
"aH c #2237af",
"#c c #2255cb",
".X c #2257cc",
"a0 c #2538af",
"cU c #2832a5",
"bh c #283baf",
"#t c #295cd0",
"bz c #2a3caf",
"bW c #2a44e6",
"cR c #2b89ff",
"#K c #2c5dd1",
"bL c #2c60f2",
"bQ c #2d3eaf",
"#Z c #2d5fd0",
"aa c #2f60d0",
"b7 c #3040af",
"cz c #308cff",
"an c #3262d0",
"cl c #3342af",
".D c #3373e0",
"c6 c #3391ff",
"aG c #3463d0",
"ci c #348fff",
"cS c #3491ff",
"cC c #3543af",
"aZ c #3664d0",
"b4 c #3891ff",
"cA c #3893ff",
"bg c #3967d1",
".n c #3a6bd3",
"cj c #3a96ff",
"bv c #3b88fc",
"by c #3c68d0",
"bc c #3c8afc",
"bN c #3c94ff",
"bM c #3d89fc",
"b5 c #3d97ff",
"bP c #3e69d0",
"c7 c #3e99fe",
"d. c #3f56bc",
"c8 c #3f62c6",
"be c #3f95ff",
"bw c #3f96ff",
"dj c #4062c5",
"b6 c #406bd0",
"b2 c #4073f4",
"b3 c #408cfc",
"bd c #4094fe",
"bO c #4098ff",
"#b c #418fe1",
"ck c #426cd1",
"bb c #428efa",
"ch c #428efc",
"bx c #429aff",
"cy c #4391fd",
"cB c #446dd0",
"bf c #449bff",
"di c #456dcf",
"cQ c #4594fe",
"cT c #4770d1",
"ba c #4a93fa",
"aY c #4a9fff",
"cF c #4c91f6",
"da c #4d6ecb",
"dh c #4d72cf",
"b# c #4d95fa",
"aF c #4da1ff",
"am c #4ea1ff",
"b. c #4f97fa",
".W c #4f9be8",
"co c #5094f6",
"cg c #5182f5",
"c5 c #51a0ff",
"a# c #51a3fe",
"cX c #5298f7",
"a9 c #5299fa",
"#Y c #52a4fe",
"d# c #5377cf",
"c. c #5396f7",
"a8 c #559afa",
"#J c #55a5ff",
"bT c #5697f7",
"#s c #56a6fe",
".C c #5881d2",
"a7 c #589bfa",
"bC c #599af8",
"a6 c #5b9dfa",
"cE c #5ba8ff",
"bk c #5c9cfa",
"a4 c #5e9efa",
"a5 c #5e9ffa",
"dg c #607bcf",
"cn c #60abff",
".o c #618fe0",
"cx c #6191f7",
"cW c #62b1ff",
"b9 c #63adff",
"df c #6571b9",
"a3 c #66acfe",
"bS c #66afff",
"bt c #6889e9",
"bB c #6ab1ff",
"db c #6b6dac",
"bj c #6eb4ff",
"a2 c #70b4ff",
"cD c #71b9ff",
"cV c #72b6f9",
"cm c #72b9ff",
"b8 c #73baff",
"cP c #74a3fa",
"bR c #75baff",
"dd c #7676af",
"bA c #76bbff",
"de c #7776ae",
"dc c #7777af",
"bi c #77bcff",
"aX c #78b0f6",
"a1 c #78bcff",
"aI c #78bdff",
"ap c #79bdff",
"ac c #7abdff",
"#1 c #7bbeff",
"#M c #7cbfff",
"#v c #7dc0ff",
"#e c #7fc1ff",
".Z c #80c2ff",
".p c #849cd9",
".w c #849cda",
".v c #849cdb",
".u c #849ddb",
".t c #849ddc",
".G c #84c6ff",
".z c #859cd8",
".A c #859dd8",
".y c #859dd9",
".x c #859dda",
".s c #869fdc",
".B c #879cd5",
".r c #88a0dd",
".q c #8aa2df",
"aJ c #8ac0fd",
"c4 c #8bbafd",
"bK c #8ca1e6",
"#a c #8dabd2",
"b1 c #8ea4e4",
"cI c #919bcc",
"cf c #91a6e1",
"#r c #92b1d8",
"aW c #92bcf1",
".V c #93b0d3",
"aV c #93bdf2",
"cw c #94a8df",
"#I c #94b3da",
"aU c #95bff3",
"cO c #96a9db",
"#X c #96b5dc",
"aT c #97c1f4",
"a. c #98b7de",
"aS c #99c2f5",
"cs c #9ba7d7",
"cq c #9ba7dc",
"al c #9bb9df",
"aR c #9bc4f5",
"aQ c #9cc5f5",
"aE c #9ebce1",
"aP c #9ec6f6",
"bl c #a0b1e7",
"c3 c #a0b3db",
".0 c #a0c8f3",
"#f c #a0c8f4",
"aO c #a0c8f8",
"cc c #a1acdc",
"ca c #a1aee1",
"#w c #a1c9f5",
"#N c #a1c9f6",
"#2 c #a1caf6",
"aN c #a2caf9",
"ad c #a2cbf8",
"aq c #a2ccf9",
"aM c #a4cbf9",
".H c #a5cbf2",
"aL c #a5ccf9",
"aK c #a5ccfa",
"cG c #acafcc",
"bX c #acb7e0",
"cY c #adafca",
"bV c #aeb9e4",
"br c #b3c3eb",
"cJ c #b4b6ce",
"bq c #b4c3ea",
"bp c #b4c3eb",
"bo c #b6c4eb",
"cH c #b7bacf",
"bn c #b8c6eb",
"bs c #b8c8ea",
"bm c #b9c7eb",
"cp c #bebfd5",
"cL c #c4c4d4",
"cM c #c5c5d4",
"cK c #c6c6d4",
"c# c #c6c7da",
"c1 c #c7c7d2",
"cN c #c8c6d3",
"c0 c #c8c8d3",
"c2 c #c9c8d1",
"cZ c #cccbd2",
"bU c #cdcfe0",
"bD c #d4d7e6",
"cu c #d5d5e0",
"cv c #dad8de",
"ct c #dbd9df",
"ce c #dedee5",
"aD c #e1e3e9",
"cd c #e4e2e4",
"aC c #e6a9af",
"bZ c #e6e6ea",
".1 c #e7eaef",
"bF c #e8eaea",
"aj c #ead1df",
"#g c #eaedf1",
"ak c #eaeef9",
".I c #eceeef",
"#9 c #eceff8",
"aB c #ed6e70",
"#D c #edb2bf",
"bY c #edebea",
"#x c #edeff2",
"aA c #ee6f71",
"#E c #eeb3bf",
"b0 c #eeebe9",
"#O c #eef0f3",
"#W c #eef0f8",
"ar c #eef1f4",
"az c #ef7072",
"#C c #efb4bf",
"bG c #efeded",
"ay c #f07173",
"#F c #f0b5bf",
"#3 c #f0f1f4",
"#G c #f1d5df",
"#H c #f1f2f8",
"ax c #f27374",
"#B c #f2b6bf",
"bH c #f2f1f0",
"bI c #f2f2f0",
"ae c #f2f3f6",
"aw c #f37375",
".7 c #f3777f",
"bE c #f3f2ed",
"#q c #f3f4f7",
"av c #f47576",
"#A c #f4b7bf",
"au c #f57677",
".6 c #f5787f",
"#8 c #f57880",
"ai c #f5b7bf",
".N c #f5b9bf",
"## c #f5f5f7",
"#U c #f65960",
"at c #f67778",
".8 c #f6797f",
"#V c #f67980",
"#T c #f67a7f",
"#z c #f6b9bf",
".O c #f6babf",
"as c #f6d7d8",
".5 c #f7797f",
".M c #f7babf",
".4 c #f87b7f",
"#n c #f93b40",
"#m c #f93c40",
".9 c #f95b60",
"#p c #f97b80",
".P c #f9bbbf",
"#7 c #fa2c30",
"#l c #fa3c40",
".3 c #fa7c7f",
"#. c #fa7c80",
".2 c #fadcdf",
"bJ c #faf8ef",
"#k c #fb3d40",
".L c #fbbcbf",
".Q c #fbbdbf",
"#o c #fc2e30",
"#j c #fc3d40",
"#y c #fc5e60",
"#S c #fc7d7f",
"ah c #fcbcbf",
".K c #fcbebf",
"#i c #fd3e40",
".R c #fdbebf",
"#h c #fdcecf",
".J c #fdeeef",
".U c #fdfdf7",
"#6 c #fe3f40",
"#R c #fe7e7f",
"ag c #febfbf",
".T c #fededf",
"#5 c #ff4040",
"af c #ff6060",
"#Q c #ff7f7f",
".S c #ffbfbf",
"#4 c #ffcfcf",
"#P c #ffdfdf",
"QtQtQtQtQtQtQtQtQtQtQtQtQtQtQtQtQtQtQtQtQtQtQtQt",
"Qt.#.#.a.b.c.d.e.e.e.f.g.g.g.h.h.i.h.j.k.l.#.#Qt",
"Qt.#.m.n.o.p.q.r.s.t.u.v.w.x.y.z.A.B.C.D.E.#.#Qt",
"Qt.#.F.G.H.I.J.K.L.M.N.O.P.Q.R.S.T.U.V.W.X.#.#Qt",
"Qt.#.Y.Z.0.1.2.3.4.5.6.7.7.6.8.9#.###a#b#c.#.#Qt",
"Qt.##d#e#f#g#h#i#j#k#l#m#n#l#l#o#p#q#r#s#t.#.#Qt",
"Qt.##u#v#w#x.S#y.P#z#A#B#C#D#E#F#G#H#I#J#K.#.#Qt",
"Qt.##L#M#N#O#P#Q#R#S.3.4#T.6.7#U#V#W#X#Y#Z.#.#Qt",
"Qt.##0#1#2#3#4#5#6#i#i#j#k#l#m#7#8#9a.a#aa.#.#Qt",
"Qt.#abacadae.Saf.Sagah.P#zai#B#Cajakalaman.#.#Qt",
"Qt.#aoapaqarasatauavawaxayazaAaBaCaDaEaFaG.#.#Qt",
"Qt.#aHaIaJaKaLaMaNaOaPaQaRaSaTaUaVaWaXaYaZ.#.#Qt",
"Qt.#a0a1a2a3a4a5a6a7a8a9b.b#babbbcbdbebfbg.#.#Qt",
"Qt.#bhbibjbkblbmbnbobpbqbrbrbsbtbubvbwbxby.#.#Qt",
"Qt.#bzbAbBbCbDbEbFbGbHbIbIbIbJbKbLbMbNbObP.#.#Qt",
"Qt.#bQbRbSbTbUbVbWbXbYbZbZbZb0b1b2b3b4b5b6.#.#Qt",
"Qt.#b7b8b9c.c#cacbcccdcecececdcfcgchcicjck.#.#Qt",
"Qt.#clcmcncocpcqcrcsctcucucucvcwcxcyczcAcB.#.#Qt",
"Qt.#cCcDcEcFcGcHcIcJcKcLcMcMcNcOcPcQcRcScT.#.#Qt",
"Qt.#cUcVcWcXcYcZcZc0c1c1c1c1c2c3c4c5c6c7c8.#.#Qt",
"Qt.#c9d.d#dadbdcdddddddddddddedfdgdhdidjdk.#.#Qt",
"Qt.#.#.#.#.#.#.#.#.#.#.#.#.#.#.#.#.#.#.#.#.#.#Qt",
"Qt.#.#.#.#.#.#.#.#.#.#.#.#.#.#.#.#.#.#.#.#.#.#Qt",
"QtQtQtQtQtQtQtQtQtQtQtQtQtQtQtQtQtQtQtQtQtQtQtQt"};
