/* XPM */
static const char * filestl[] = {
"64 64 642 2",
"  	c None",
". 	c #FEFEFE",
"+ 	c #FAFAFA",
"@ 	c #F0F0F0",
"# 	c #FDFDFD",
"$ 	c #EDEDED",
"% 	c #C9C9C9",
"& 	c #F2F2F2",
"* 	c #FCFCFC",
"= 	c #FBFBFB",
"- 	c #E7E7E7",
"; 	c #E4E4E4",
"> 	c #D8D8D8",
", 	c #F9F9F9",
"' 	c #F6F6F6",
") 	c #F4F4F4",
"! 	c #E9E9E9",
"~ 	c #DADADA",
"{ 	c #F3F3F3",
"] 	c #DEDEDE",
"^ 	c #E0E0E0",
"/ 	c #D6D6D6",
"( 	c #A4A4A4",
"_ 	c #E5E5E5",
": 	c #F5F5F5",
"< 	c #D9D9D9",
"[ 	c #E8E8E8",
"} 	c #F7F7F7",
"| 	c #CDCDCD",
"1 	c #C0C0C0",
"2 	c #BDBDBD",
"3 	c #C1C1C1",
"4 	c #E6E6E6",
"5 	c #D2D2D2",
"6 	c #ECECEC",
"7 	c #DFDFDF",
"8 	c #CBCBCB",
"9 	c #737373",
"0 	c #CFCFCF",
"a 	c #C4C4C4",
"b 	c #AFAFAF",
"c 	c #B4B4B4",
"d 	c #BEBEBE",
"e 	c #BFBFBF",
"f 	c #CECECE",
"g 	c #F8F8F8",
"h 	c #DDDDDD",
"i 	c #C5C5C5",
"j 	c #A3A3A3",
"k 	c #B9B9B9",
"l 	c #575757",
"m 	c #C2C2C2",
"n 	c #D3D3D3",
"o 	c #C7C7C7",
"p 	c #868686",
"q 	c #A2A2A2",
"r 	c #C8C8C8",
"s 	c #D1D1D1",
"t 	c #A9A9A9",
"u 	c #B3B3B3",
"v 	c #E2E2E2",
"w 	c #AEAEAE",
"x 	c #858585",
"y 	c #9C9C9C",
"z 	c #9E9E9E",
"A 	c #757575",
"B 	c #C3C3C3",
"C 	c #CCCCCC",
"D 	c #8F8F8F",
"E 	c #545454",
"F 	c #D5D5D5",
"G 	c #B2B2B2",
"H 	c #838383",
"I 	c #818181",
"J 	c #7A7A7A",
"K 	c #777777",
"L 	c #A1A1A1",
"M 	c #D4D4D4",
"N 	c #5D5D5D",
"O 	c #525252",
"P 	c #393939",
"Q 	c #959595",
"R 	c #747474",
"S 	c #9B9B9B",
"T 	c #BABABA",
"U 	c #5F5F5F",
"V 	c #535353",
"W 	c #A8A8A8",
"X 	c #636363",
"Y 	c #2E2E2E",
"Z 	c #474747",
"` 	c #595959",
" .	c #5B5B5B",
"..	c #484848",
"+.	c #7C7C7C",
"@.	c #F1F1F1",
"#.	c #929292",
"$.	c #666666",
"%.	c #656565",
"&.	c #606060",
"*.	c #BCBCBC",
"=.	c #8E8E8E",
"-.	c #4B4B4B",
";.	c #515151",
">.	c #797979",
",.	c #5C5C5C",
"'.	c #676767",
").	c #363636",
"!.	c #585858",
"~.	c #9A9A9A",
"{.	c #A7A7A7",
"].	c #9D9D9D",
"^.	c #989898",
"/.	c #414141",
"(.	c #C6C6C6",
"_.	c #DCDCDC",
":.	c #BBBBBB",
"<.	c #B5B5B5",
"[.	c #939393",
"}.	c #404040",
"|.	c #5A5A5A",
"1.	c #4E4E4E",
"2.	c #EEEEEE",
"3.	c #CACACA",
"4.	c #333333",
"5.	c #3C3C3C",
"6.	c #3E3E3E",
"7.	c #EFEFEF",
"8.	c #ABABAB",
"9.	c #B1B1B1",
"0.	c #878787",
"a.	c #909090",
"b.	c #EAEAEA",
"c.	c #A0A0A0",
"d.	c #2F2F2F",
"e.	c #3B3B3B",
"f.	c #727272",
"g.	c #313131",
"h.	c #E1E1E1",
"i.	c #D7D7D7",
"j.	c #7D7D7D",
"k.	c #6A6A6A",
"l.	c #B0B0B0",
"m.	c #ACACAC",
"n.	c #B6B6B6",
"o.	c #4F4F4F",
"p.	c #5E5E5E",
"q.	c #848484",
"r.	c #D0D0D0",
"s.	c #8A8A8A",
"t.	c #555555",
"u.	c #4D4D4D",
"v.	c #717171",
"w.	c #707070",
"x.	c #6D6D6D",
"y.	c #626262",
"z.	c #7B7B7B",
"A.	c #AAAAAA",
"B.	c #4A4A4A",
"C.	c #888888",
"D.	c #464646",
"E.	c #B8B8B8",
"F.	c #7F7F7F",
"G.	c #808080",
"H.	c #828282",
"I.	c #8C8C8C",
"J.	c #DBDBDB",
"K.	c #696969",
"L.	c #949494",
"M.	c #494949",
"N.	c #B7B7B7",
"O.	c #898989",
"P.	c #999999",
"Q.	c #6F6F6F",
"R.	c #686868",
"S.	c #565656",
"T.	c #E3E3E3",
"U.	c #3F3F3F",
"V.	c #7F85B8",
"W.	c #767FB1",
"X.	c #8189B9",
"Y.	c #878FBE",
"Z.	c #CBCFE6",
"`.	c #828BBC",
" +	c #818AB9",
".+	c #A2A9CD",
"++	c #F0F1FA",
"@+	c #F7F7FE",
"#+	c #D2D5E9",
"$+	c #6D77AC",
"%+	c #858DBB",
"&+	c #8C94C0",
"*+	c #DDDFEF",
"=+	c #FBFBFF",
"-+	c #EDEDF9",
";+	c #EAEAF6",
">+	c #FFFFFF",
",+	c #979FC9",
"'+	c #596190",
")+	c #0953BF",
"!+	c #0851BE",
"~+	c #0850BD",
"{+	c #074FBC",
"]+	c #074EBC",
"^+	c #064DBB",
"/+	c #054BBA",
"(+	c #868EBC",
"_+	c #AEB4D4",
":+	c #FBFCFF",
"<+	c #F5F5FD",
"[+	c #F0F0FA",
"}+	c #ECECF7",
"|+	c #F3F4FC",
"1+	c #757EB5",
"2+	c #FBFFFF",
"3+	c #EBFFFF",
"4+	c #E7FCFF",
"5+	c #DFF9FF",
"6+	c #D8F5FF",
"7+	c #D2F2FF",
"8+	c #CAEFFF",
"9+	c #83B8F1",
"0+	c #0F54C1",
"a+	c #1349A4",
"b+	c #868BB7",
"c+	c #989FC7",
"d+	c #DFE1F0",
"e+	c #FDFDFF",
"f+	c #F3F3FC",
"g+	c #E8E8F5",
"h+	c #F6F6FE",
"i+	c #B9BEDD",
"j+	c #606AA4",
"k+	c #EDFFFF",
"l+	c #CFF5FF",
"m+	c #CBF3FF",
"n+	c #C7F1FF",
"o+	c #C2EDFF",
"p+	c #BEEBFF",
"q+	c #B8E8FF",
"r+	c #B4E6FF",
"s+	c #84AEE2",
"t+	c #7A8ABE",
"u+	c #C1C6DE",
"v+	c #FCFCFF",
"w+	c #F9F9FF",
"x+	c #E5E5F3",
"y+	c #838CC0",
"z+	c #2C4C98",
"A+	c #B6E3FF",
"B+	c #9AAFD6",
"C+	c #9CA2C8",
"D+	c #E8EAF5",
"E+	c #FEFEFF",
"F+	c #EBEBF7",
"G+	c #DFE1F2",
"H+	c #5C6BAE",
"I+	c #053596",
"J+	c #EAFEFF",
"K+	c #B0D2F2",
"L+	c #929CC4",
"M+	c #CBCEE3",
"N+	c #ABB2D5",
"O+	c #4D5B98",
"P+	c #E7FDFF",
"Q+	c #C3EBFF",
"R+	c #9FAFD3",
"S+	c #A8ADCD",
"T+	c #F2F3FB",
"U+	c #BDC9E9",
"V+	c #7194D5",
"W+	c #7192D4",
"X+	c #7295D5",
"Y+	c #7899D8",
"Z+	c #2F56B0",
"`+	c #05389B",
" @	c #0036A4",
".@	c #0036A8",
"+@	c #0034A7",
"@@	c #A6A6A6",
"#@	c #E3FBFF",
"$@	c #BDE0FB",
"%@	c #99A0C4",
"&@	c #BECBEB",
"*@	c #0D4DBA",
"=@	c #3D75CE",
"-@	c #6190DD",
";@	c #5D8EDD",
">@	c #5D8EDC",
",@	c #5E8EDC",
"'@	c #5282D5",
")@	c #4F81D5",
"!@	c #4E80D4",
"~@	c #0B47B6",
"{@	c #002F9D",
"]@	c #E0FAFF",
"^@	c #9FB2D6",
"/@	c #CACEE3",
"(@	c #DEE2F4",
"_@	c #2B62C3",
":@	c #4A7FD4",
"<@	c #B4D8FF",
"[@	c #8DC1FF",
"}@	c #87BEFF",
"|@	c #8DC3FF",
"1@	c #76ADF9",
"2@	c #5F9CEF",
"3@	c #568FE7",
"4@	c #003DB1",
"5@	c #9F9F9F",
"6@	c #969696",
"7@	c #DDF9FF",
"8@	c #5892DD",
"9@	c #2964C1",
"0@	c #4881D3",
"a@	c #4780D3",
"b@	c #467DD2",
"c@	c #457CD1",
"d@	c #447ACF",
"e@	c #4378CE",
"f@	c #4077CD",
"g@	c #3F75CC",
"h@	c #3E72CB",
"i@	c #3D71CA",
"j@	c #3B6FC9",
"k@	c #1D58BF",
"l@	c #4C80D4",
"m@	c #B7DBFF",
"n@	c #64AAFF",
"o@	c #529FFF",
"p@	c #509EFF",
"q@	c #52A0FF",
"r@	c #56A3FF",
"s@	c #1C66DF",
"t@	c #0027B1",
"u@	c #0032AC",
"v@	c #4C4C4C",
"w@	c #D9F6FF",
"x@	c #AEDDFF",
"y@	c #0954C2",
"z@	c #AEC9F0",
"A@	c #BACEEF",
"B@	c #C7DBF6",
"C@	c #C3D8F6",
"D@	c #BFD8F5",
"E@	c #BAD6F5",
"F@	c #B6D3F4",
"G@	c #B2CFF4",
"H@	c #ADCCF3",
"I@	c #AACAF3",
"J@	c #A5C7F3",
"K@	c #A1C3F2",
"L@	c #AACAF7",
"M@	c #BADDFF",
"N@	c #6BAEFF",
"O@	c #57A2FF",
"P@	c #519FFF",
"Q@	c #58A5FF",
"R@	c #326DE0",
"S@	c #032CB7",
"T@	c #002BAF",
"U@	c #002C98",
"V@	c #7E7E7E",
"W@	c #979797",
"X@	c #8D8D8D",
"Y@	c #6E6E6E",
"Z@	c #444444",
"`@	c #D6F5FF",
" #	c #73ACE9",
".#	c #3675CF",
"+#	c #FAFFFF",
"@#	c #D8DFF1",
"##	c #E8F1FB",
"$#	c #F3FFFF",
"%#	c #E6FFFF",
"&#	c #D8FAFF",
"*#	c #CBF0FF",
"=#	c #BDE7FF",
"-#	c #AFDEFF",
";#	c #A2D4FF",
">#	c #95CBFF",
",#	c #86C2FF",
"'#	c #79B9FF",
")#	c #6CAFFF",
"!#	c #5EA6FF",
"~#	c #4D96FA",
"{#	c #3D7BE9",
"]#	c #123FC3",
"^#	c #0029B5",
"/#	c #001DAF",
"(#	c #002DAB",
"_#	c #002177",
":#	c #6C6C6C",
"<#	c #6B6B6B",
"[#	c #A5A5A5",
"}#	c #767676",
"|#	c #434343",
"1#	c #D3F3FF",
"2#	c #2067CB",
"3#	c #A1C1ED",
"4#	c #F2FFFF",
"5#	c #E1F4FF",
"6#	c #C6D5EA",
"7#	c #EAFFFF",
"8#	c #DFFEFF",
"9#	c #D2F5FF",
"0#	c #ADD9FF",
"a#	c #92C4FE",
"b#	c #81B7FC",
"c#	c #649EF5",
"d#	c #5490F3",
"e#	c #4583F0",
"f#	c #3877EC",
"g#	c #306DE6",
"h#	c #2B65DF",
"i#	c #2758D4",
"j#	c #153DC2",
"k#	c #032CB8",
"l#	c #0023B3",
"m#	c #001BAE",
"n#	c #001EAD",
"o#	c #002FAA",
"p#	c #505050",
"q#	c #CFF2FF",
"r#	c #A6D5FB",
"s#	c #0752C1",
"t#	c #EDF9FF",
"u#	c #EBFDFF",
"v#	c #DFFAFF",
"w#	c #C6E3F9",
"x#	c #BFDDF2",
"y#	c #D1F4FF",
"z#	c #90C2FD",
"A#	c #80B4FA",
"B#	c #70A6F7",
"C#	c #6199F4",
"D#	c #518CF1",
"E#	c #427DED",
"F#	c #306FEA",
"G#	c #2563E3",
"H#	c #215ADD",
"I#	c #1D4FD3",
"J#	c #0936C0",
"K#	c #0632BE",
"L#	c #002EC0",
"M#	c #001EB2",
"N#	c #0025AD",
"O#	c #002BA0",
"P#	c #CCF1FF",
"Q#	c #5D98E0",
"R#	c #5389D6",
"S#	c #F7FFFF",
"T#	c #E6FCFF",
"U#	c #C1EDFF",
"V#	c #99C7F2",
"W#	c #9CCCFE",
"X#	c #97C8FF",
"Y#	c #89BDFC",
"Z#	c #7AAFFA",
"`#	c #6CA3F6",
" $	c #5C96F3",
".$	c #4C87F1",
"+$	c #3C79EC",
"@$	c #2B6CE9",
"#$	c #2462E3",
"$$	c #134CD4",
"%$	c #053AC7",
"&$	c #073CC9",
"*$	c #073DCA",
"=$	c #002FC1",
"-$	c #0028AA",
";$	c #00258D",
">$	c #C8EFFF",
",$	c #1F65C9",
"'$	c #A0C0EC",
")$	c #F0FFFF",
"!$	c #BAE8FF",
"~$	c #A6DDFF",
"{$	c #97CDFF",
"]$	c #85B7F3",
"^$	c #91C3FE",
"/$	c #84B8FC",
"($	c #76ACFA",
"_$	c #669FF6",
":$	c #5791F3",
"<$	c #4784F0",
"[$	c #3877ED",
"}$	c #2163E6",
"|$	c #0947D5",
"1$	c #0745D3",
"2$	c #0946D4",
"3$	c #0840CD",
"4$	c #002CA8",
"5$	c #C4EDFF",
"6$	c #AAD6FB",
"7$	c #155AC3",
"8$	c #EBF9FF",
"9$	c #D4F3FF",
"0$	c #B8E7FF",
"a$	c #ADE1FF",
"b$	c #A2D9FF",
"c$	c #96CFFF",
"d$	c #81B8F6",
"e$	c #7FB4F6",
"f$	c #80B6FC",
"g$	c #70A8F9",
"h$	c #629BF5",
"i$	c #528EF3",
"j$	c #4381F0",
"k$	c #1F62E2",
"l$	c #084DDB",
"m$	c #0950DF",
"n$	c #0A4EDC",
"o$	c #083FCC",
"p$	c #0022AD",
"q$	c #0029A3",
"r$	c #C1ECFF",
"s$	c #518DDB",
"t$	c #6592D9",
"u$	c #D6F2FF",
"v$	c #C8EBFF",
"w$	c #C1E8FF",
"x$	c #B9E2FF",
"y$	c #AFDBFF",
"z$	c #A5D2FF",
"A$	c #95C6FD",
"B$	c #7AAAF0",
"C$	c #83B4F9",
"D$	c #76A8F5",
"E$	c #689CF2",
"F$	c #588DED",
"G$	c #386FE0",
"H$	c #2865E0",
"I$	c #2061E3",
"J$	c #1F5ADC",
"K$	c #1E53D4",
"L$	c #1D4CCB",
"M$	c #1B45C4",
"N$	c #1A43C3",
"O$	c #1038BC",
"P$	c #082AB1",
"Q$	c #0028A9",
"R$	c #00238F",
"S$	c #BEEAFF",
"T$	c #1158C2",
"U$	c #B7CDF1",
"V$	c #F7F7FC",
"W$	c #F3F3F9",
"X$	c #EFEFF5",
"Y$	c #EAEAF2",
"Z$	c #E6E6EF",
"`$	c #E2E2EB",
" %	c #DEDEE9",
".%	c #D9D9E6",
"+%	c #D5D5E2",
"@%	c #D1D1DF",
"#%	c #CCCCDC",
"$%	c #C8C8D8",
"%%	c #C4C4D5",
"&%	c #C0C0D2",
"*%	c #BCBCCE",
"=%	c #B7B7CC",
"-%	c #B3B3C9",
";%	c #083AAA",
">%	c #001C74",
",%	c #7AB4F1",
"'%	c #1458C1",
")%	c #FAFAFD",
"!%	c #F5F5FA",
"~%	c #F1F1F6",
"{%	c #ECECF4",
"]%	c #E8E8F1",
"^%	c #E3E3ED",
"/%	c #E0E0EA",
"(%	c #DCDCE7",
"_%	c #D7D7E3",
":%	c #D3D3E0",
"<%	c #CECEDD",
"[%	c #CACADB",
"}%	c #C6C6D7",
"|%	c #C1C1D4",
"1%	c #BEBED1",
"2%	c #B9B9CD",
"3%	c #909AC3",
"4%	c #0027A5",
"5%	c #3D80D8",
"6%	c #769EDD",
"7%	c #FCFCFE",
"8%	c #E1E1EB",
"9%	c #DEDEE8",
"0%	c #C3C3D5",
"a%	c #BFBFD2",
"b%	c #536FB8",
"c%	c #00249A",
"d%	c #0C52C0",
"e%	c #D7E5FA",
"f%	c #ECECF3",
"g%	c #DFDFEA",
"h%	c #CACAD9",
"i%	c #C6C6D6",
"j%	c #BDBDD1",
"k%	c #1442AC",
"l%	c #001B78",
"m%	c #2361C4",
"n%	c #FBFBFD",
"o%	c #F2F3F5",
"p%	c #EAEBEF",
"q%	c #E2E3E8",
"r%	c #DBDCE0",
"s%	c #D3D4D9",
"t%	c #CBCCD3",
"u%	c #C2C4CB",
"v%	c #BABDC4",
"w%	c #B3B5BE",
"x%	c #ABADB6",
"y%	c #A4A8B0",
"z%	c #A2A4AE",
"A%	c #9FA2AC",
"B%	c #9198AA",
"C%	c #0025A3",
"D%	c #1253BF",
"E%	c #4276CC",
"F%	c #4275CC",
"G%	c #4073CB",
"H%	c #4072CA",
"I%	c #3F71CA",
"J%	c #3F70C9",
"K%	c #3D6FC8",
"L%	c #3C6DC7",
"M%	c #3A6BC4",
"N%	c #3867C2",
"O%	c #3464BF",
"P%	c #3261BD",
"Q%	c #305EBA",
"R%	c #2C5BB8",
"S%	c #2A58B5",
"T%	c #0D43AE",
"U%	c #002EA9",
"V%	c #002AA6",
"W%	c #0029A6",
"X%	c #0026A4",
"Y%	c #00239C",
"                                                                                                                                ",
"                                                                                                                                ",
"                                                                                                                                ",
"                                                                                                                                ",
"                                                                                                                                ",
"                                                                                                                                ",
"                                                                                                                                ",
"                                                                                                                                ",
"                                                                                                                                ",
"                                                                                                                                ",
"                                                        .                                                                       ",
"                                                      + @ #                                                                     ",
"                                                      $ % &                                                                     ",
"                    # # * = = .   . =               . - ; > ,                       . # * * * * * * = #                         ",
"                  # ' ) ) ! ~ '   { ] +             # ^ / ( _                       = : ) ' ' ) ) @ < [ .                       ",
"                  } | 1 1 2 3 4 * ! 5 6 .           # 7 8 9 0 .                   . 6 a 2 b c d e 3 8 f g                       ",
"              * } h | f % i j k - ] < a {           # 7 i l m .                   * n f o p q r o 8 s t / =                     ",
"            . ' ] u v w x y z A B f C D 7           # 7 B E 3 .                   # F ~ q j G p H I J K L :                     ",
"            = M i 6 y J N O P Q R S T U C .         # 7 B V 1 .                   . _ W X Y Z ` N  . ...+.@.                    ",
"          . 6 a 7 b #.J $.%.&.z I *.=.-.o .         # ] i ;.1 .                     + 5 >.,.%.'.).!.%.$.~.)                     ",
"          * < 3 {.9  .Q 2 d G ].^.*.O /.(..         # _.1 -.e # . . .                 @.o :.<.[.}.L d e F =                     ",
"          = ~ 2 ^.|.1.u @.{ 2.3.Q ( 4.5.(..     . = * F =.6.T g , , g { ,             # : 7.5 8.-.| & { g .                     ",
"          + M 9.H 0.a.F # . # b.c.].d.e.(..     * : , r f.g.G 7.@ @ ! % h..               + i.9.1.i.. .                         ",
"          + n ( '.C h.)       , B X P 5.(..     & k j.k.l.S <.m.m.m.n.v (.@..             = i.9.o.i.                            ",
"          , s c.p.v = .       . ! q.l }.(..     [ r.#.j G ,.W 3 3 3 3 T ].f =             = i.9.o.i.                            ",
"          } i S  .4             + k x Z o .     $ r s.x t.u.X v.v.v.w.x.y.Q :             = i.9.o.i.                            ",
"          { b z.l ] #           . v A.U 0 .     , s f./.B.O -.V V V V O Z C.)             = i.9.o.i.                            ",
"          { 9.x.D.E.{             * i.L v       . { w +.K 6.y.F.G.G.G.G.H.u g             = i.9.o.i.                            ",
"          g s I.Q :.h , # . #       ) ^ '         # ; m b -.c.M F F F F / 4 #             = i.9.o.i.                            ",
"          . ! I.<.{.w ^ } { 6 +     . = .           + J.3 ;.*.g , , , , + *               = i.9.o.i.                            ",
"            g G z C.K.G ~ 0 3 b..                   # 7 B V 1 .                           = i.9.o.i.                            ",
"            . ~ L.M.0.a N.u u 0 7.*                 # 7 B V 1 .                           = i.9.o.i.                            ",
"              = r.I O.P.L T t F.l.^ #               # 7 B V 1 .                           = i.9.o.i.                            ",
"                @ (.y +.Q.R.S.>.w i & .             # 7 B V 1 .                           = i.9.o.i.                            ",
"                # : ~ x t.;.O G.3 y B '             # 7 B V 1 .                           = i.9.o.i.                            ",
"                    ' d z y Q ^.q +.H T.            # 7 B V 1 .                           = i.9.o.i.                            ",
"                    . @ [ - 7 c  .U.%.r +           # 7 B V 1 .                           = i.9.o.i.            # *             ",
"                      . # * + 6 P.k.V.W.[           # 7 B V 1 .                           = i.9.o.i.            @.T.*           ",
"                              * X.Y.Z.`.M           # 7 B V 1 .                           = i.9.o.i.          # ; 0 @..         ",
"            } '                +.+++@+#+$+.         # 7 B V 1 .                           = i.9.o.i.          * ] r.C '         ",
"          # h.J.*         %+&+*+=+-+;+>+,+'+        # 7 B V 1 .                           = i.9.o.i.          * ~ B L.-         ",
")+!+~+{+]+^+^+/+! #     (+_+:+<+[+-+;+}+|+1+        # 7 B V 1 .                           = i.9.o.i.          * < k &.<         ",
"2+3+4+5+6+7+8+9+0+a+b+c+d+e+<+f+[+-+;+g+h+i+j+      # h i V 1 .                           = i.9.o.i.          * < n.;.F         ",
"k+l+m+n+o+p+q+r+s+t+u+e+v+w+<+f+[+-+;+g+x+>+y+z+    # M a O 1 .                           = i.9.o.i.          * < n.1.M         ",
"k+l+m+n+o+p+A+B+C+D+>+E+=+w+<+f+[+-+;+g+x+F+G+H+I+  * o l.E d .       = : } .             = i.G o.i.          * < <.1.M         ",
"J+l+m+n+o+K+L+M+>+>+>+E+=+w+<+f+[+-+;+g+x+x+w+N+O+  * C c.` n..     # { n / =             * n u u.i.          * < <.1.M         ",
"P+l+m+Q+R+S+T+>+>+>+>+E+=+w+<+f+[+-+;+U+V+W+X+Y+Z+`+ @.@+@C.@@: # # ) a F C b.#     . . # * o ]...F # # # # # * < n.1.M         ",
"#@l+m+$@%@>+>+>+>+>+>+E+=+w+<+f+[+-+&@*@=@-@;@>@,@'@)@!@~@{@#.< } ) _.5 ~ @@m :     * g g = <.K }.r.g g g g g + F n.1.M         ",
"]@l+m+n+^@/@>+>+>+>+>+E+=+w+<+f+[+(@_@:@<@[@}@}@|@1@2@3@4@5@z.t n | k (.^.K.J -   . @.> / F 6@p ;.T M F F F F M r c u.M         ",
"7@l+m+n+8@9@0@a@b@c@d@e@f@g@h@i@j@k@l@m@n@o@p@p@q@r@s@t@u@b S B :.C h.q F.v@R.T.  # > N.k k n.3 =.m T T T T T *.< j -.M         ",
"w@l+m+x@y@z@A@B@C@D@E@F@G@H@I@J@K@L@M@N@O@p@p@P@Q@R@S@T@U@M 5@6@^.[.0.H I V@y $   # n 4 8.P.W@K.P q.^.^.^.^.^.W@X@Y@Z@M         ",
"`@l+m+ #.#+#@###$#%#&#*#=#-#;#>#,#'#)#!#o@p@~#{#]#^#/#(#_#$ t V@:#<#%.o.#.0 h ,   . h [#}#:#<#X |.'.<#<#<#<#<#:#k.V |#/         ",
"1#l+m+2#3#4#5#6#7#8#9#Q+0#a#b#c#d#e#f#g#h#i#j#k#l#m#n#o#  = h.D l E V S.b ' = .     ' r <#t.E O ;.E E E E E E E E p#R.7         ",
"q#l+r#s#t#u#v#w#x#y#0#z#A#B#C#D#E#F#G#H#I#J#K#L#M#m#N#O#    + 8 W @@@@m.~ #         . b.c {.@@@@@@@@@@@@@@@@@@@@@@{.E.@         ",
"P#l+Q#R#S#T#&#U#V#W#X#Y#Z#`# $.$+$@$#$$$%$&$*$=$M#m#-$;$    . & b.! ! b.'             = $ ! ! ! ! ! ! ! ! ! ! ! ! ! 2.*         ",
">$l+,$'$)$w@!$~${$]$^$/$($_$:$<$[$}$|$1$2$3$*$=$M#m#4$        . . # # .                 . . # # # # # # # # # # # # .           ",
"5$6$7$8$9$0$a$b$c$d$e$f$g$h$i$j$k$l$m$n$2$o$*$=$M#p$q$                                                                          ",
"r$s$t$u$v$w$x$y$z$A$B$C$D$E$F$G$H$I$J$K$L$M$N$O$P$Q$R$                                                                          ",
"S$T$U$>+>+>+>+v+V$W$X$Y$Z$`$ %.%+%@%#%$%%%&%*%=%-%;%>%                                                                          ",
",%'%>+>+>+>+>+E+)%!%~%{%]%^%/%(%_%:%<%[%}%|%1%2%3%4%                                                                            ",
"5%6%>+>+>+>+>+>+7%V$W$X$Y$Z$8%9%.%+%@%#%$%0%a%*%b%c%                                                                            ",
"d%e%>+>+>+>+>+>+e+)%!%~%f%]%^%g%(%_%:%<%h%i%|%j%k%l%                                                                            ",
"m%>+>+>+>+>+>+>+>+n%o%p%q%r%s%t%u%v%w%x%y%z%A%B%C%                                                                              ",
"D%E%F%G%H%I%J%K%L%M%N%O%P%Q%R%S%T%U%4$V%W%4%X%C%Y%                                                                              "};
