/* XPM */
static const char * filegcode[] = {
"48 48 657 2",
"  	c None",
". 	c #280000",
"+ 	c #8C0000",
"@ 	c #A00000",
"# 	c #780000",
"$ 	c #140000",
"% 	c #400000",
"& 	c #DF0000",
"* 	c #FF0000",
"= 	c #C00000",
"- 	c #200000",
"; 	c #001000",
"> 	c #003800",
", 	c #001800",
"' 	c #00C300",
") 	c #005400",
"! 	c #006400",
"~ 	c #00B700",
"{ 	c #00F300",
"] 	c #007800",
"^ 	c #001400",
"/ 	c #640000",
"( 	c #3C0000",
"_ 	c #00FF00",
": 	c #00CF00",
"< 	c #005800",
"[ 	c #004000",
"} 	c #003000",
"| 	c #000800",
"1 	c #600000",
"2 	c #00F700",
"3 	c #00E300",
"4 	c #00DF00",
"5 	c #00A800",
"6 	c #001C00",
"7 	c #BF0000",
"8 	c #009B00",
"9 	c #006000",
"0 	c #008800",
"a 	c #00EB00",
"b 	c #00E700",
"c 	c #00AC00",
"d 	c #003C00",
"e 	c #00EF00",
"f 	c #00C700",
"g 	c #004800",
"h 	c #000C00",
"i 	c #002800",
"j 	c #008C00",
"k 	c #00DB00",
"l 	c #00D700",
"m 	c #007400",
"n 	c #002400",
"o 	c #007000",
"p 	c #009000",
"q 	c #00FB00",
"r 	c #000400",
"s 	c #281111",
"t 	c #401818",
"u 	c #400F0F",
"v 	c #182C05",
"w 	c #380F0F",
"x 	c #401D1D",
"y 	c #302C1C",
"z 	c #083D05",
"A 	c #8C3C3C",
"B 	c #DF5353",
"C 	c #DF3333",
"D 	c #549C11",
"E 	c #C33535",
"F 	c #DF6868",
"G 	c #A89961",
"H 	c #1CD410",
"I 	c #A06C6C",
"J 	c #FF8787",
"K 	c #FF2727",
"L 	c #749207",
"M 	c #18BF00",
"N 	c #047000",
"O 	c #645757",
"P 	c #B77171",
"Q 	c #F32E2E",
"R 	c #A28C2F",
"S 	c #50D92A",
"T 	c #0DF907",
"U 	c #C01000",
"V 	c #203800",
"W 	c #788B63",
"X 	c #CCAB77",
"Y 	c #EA2914",
"Z 	c #9A740F",
"` 	c #4D8512",
" .	c #0D1603",
"..	c #A07C7C",
"+.	c #F99C97",
"@.	c #EB331F",
"#.	c #5FA303",
"$.	c #09E600",
"%.	c #02C600",
"&.	c #00C000",
"*.	c #C03800",
"=.	c #20C300",
"-.	c #149C11",
";.	c #4BC914",
">.	c #B54D03",
",.	c #DB5935",
"'.	c #AC5340",
").	c #1D0E0B",
"!.	c #A05656",
"~.	c #EB7C68",
"{.	c #B95912",
"].	c #43BD00",
"^.	c #002000",
"/.	c #BF4000",
"(.	c #20DF00",
"_.	c #7F85B8",
":.	c #767FB1",
"<.	c #F74941",
"[.	c #E74545",
"}.	c #AC8888",
"|.	c #3C3838",
"1.	c #282727",
"2.	c #8C8A8A",
"3.	c #D06458",
"4.	c #CB5824",
"5.	c #768F06",
"6.	c #267600",
"7.	c #C03000",
"8.	c #20A800",
"9.	c #8189B9",
"0.	c #878FBE",
"a.	c #CBCFE6",
"b.	c #828BBC",
"c.	c #FF4C4C",
"d.	c #FF3F3F",
"e.	c #FFBEBE",
"f.	c #605151",
"g.	c #353B2F",
"h.	c #B7CEA5",
"i.	c #DA6B47",
"j.	c #C44B10",
"k.	c #7DB938",
"l.	c #2A4E18",
"m.	c #00A000",
"n.	c #C00800",
"o.	c #201C00",
"p.	c #818AB9",
"q.	c #A2A9CD",
"r.	c #F0F1FA",
"s.	c #F7F7FE",
"t.	c #D2D5E9",
"u.	c #6D77AC",
"v.	c #FF3434",
"w.	c #FF8B8B",
"x.	c #603B3B",
"y.	c #183008",
"z.	c #52A81C",
"A.	c #AD5E0C",
"B.	c #DF5838",
"C.	c #E6DCC2",
"D.	c #575C53",
"E.	c #180000",
"F.	c #540000",
"G.	c #480000",
"H.	c #0C0000",
"I.	c #858DBB",
"J.	c #8C94C0",
"K.	c #DDDFEF",
"L.	c #FBFBFF",
"M.	c #EDEDF9",
"N.	c #EAEAF6",
"O.	c #FFFFFF",
"P.	c #979FC9",
"Q.	c #596190",
"R.	c #FF5050",
"S.	c #60811E",
"T.	c #219600",
"U.	c #747F00",
"V.	c #C96B35",
"W.	c #CD6157",
"X.	c #72605E",
"Y.	c #242424",
"Z.	c #0A56C2",
"`.	c #0953BF",
" +	c #0851BE",
".+	c #0850BD",
"++	c #074FBC",
"@+	c #074EBC",
"#+	c #064DBB",
"$+	c #054BBA",
"%+	c #868EBC",
"&+	c #AEB4D4",
"*+	c #FBFCFF",
"=+	c #F5F5FD",
"-+	c #F0F0FA",
";+	c #ECECF7",
">+	c #F3F4FC",
",+	c #757EB5",
"'+	c #FF2C2C",
")+	c #6D9E0B",
"!+	c #40C000",
"~+	c #AA5702",
"{+	c #E77C64",
"]+	c #C07777",
"^+	c #201414",
"/+	c #4982D4",
"(+	c #FBFFFF",
"_+	c #EBFFFF",
":+	c #E7FCFF",
"<+	c #DFF9FF",
"[+	c #D8F5FF",
"}+	c #D2F2FF",
"|+	c #CAEFFF",
"1+	c #83B8F1",
"2+	c #0F54C1",
"3+	c #1349A4",
"4+	c #868BB7",
"5+	c #989FC7",
"6+	c #DFE1F0",
"7+	c #FDFDFF",
"8+	c #F3F3FC",
"9+	c #E8E8F5",
"0+	c #F6F6FE",
"a+	c #B9BEDD",
"b+	c #606AA4",
"c+	c #8C7402",
"d+	c #738E02",
"e+	c #DF2808",
"f+	c #FB908C",
"g+	c #C0A3A3",
"h+	c #201B1B",
"i+	c #4881D4",
"j+	c #EDFFFF",
"k+	c #CFF5FF",
"l+	c #CBF3FF",
"m+	c #C7F1FF",
"n+	c #C2EDFF",
"o+	c #BEEBFF",
"p+	c #B8E8FF",
"q+	c #B4E6FF",
"r+	c #84AEE2",
"s+	c #7A8ABE",
"t+	c #C1C6DE",
"u+	c #FCFCFF",
"v+	c #F9F9FF",
"w+	c #E5E5F3",
"x+	c #838CC0",
"y+	c #2C4C98",
"z+	c #CE4514",
"A+	c #F7372F",
"B+	c #9B4A4A",
"C+	c #484141",
"D+	c #0C0B0B",
"E+	c #4880D3",
"F+	c #B6E3FF",
"G+	c #9AAFD6",
"H+	c #9CA2C8",
"I+	c #E8EAF5",
"J+	c #FEFEFF",
"K+	c #EBEBF7",
"L+	c #DFE1F2",
"M+	c #5C6BAE",
"N+	c #053596",
"O+	c #FF5B5B",
"P+	c #602727",
"Q+	c #784000",
"R+	c #467FD3",
"S+	c #EAFEFF",
"T+	c #B0D2F2",
"U+	c #929CC4",
"V+	c #CBCEE3",
"W+	c #ABB2D5",
"X+	c #4D5B98",
"Y+	c #FF9090",
"Z+	c #603D3D",
"`+	c #14DF00",
" @	c #457DD2",
".@	c #E7FDFF",
"+@	c #C3EBFF",
"@@	c #9FAFD3",
"#@	c #A8ADCD",
"$@	c #F2F3FB",
"%@	c #BDC9E9",
"&@	c #7194D5",
"*@	c #7192D4",
"=@	c #7295D5",
"-@	c #7899D8",
";@	c #2F56B0",
">@	c #05389B",
",@	c #0036A4",
"'@	c #0036A8",
")@	c #0034A7",
"!@	c #437BD2",
"~@	c #E3FBFF",
"{@	c #BDE0FB",
"]@	c #99A0C4",
"^@	c #BECBEB",
"/@	c #0D4DBA",
"(@	c #3D75CE",
"_@	c #6190DD",
":@	c #5D8EDD",
"<@	c #5D8EDC",
"[@	c #5E8EDC",
"}@	c #5282D5",
"|@	c #4F81D5",
"1@	c #4E80D4",
"2@	c #0B47B6",
"3@	c #002F9D",
"4@	c #407AD1",
"5@	c #E0FAFF",
"6@	c #9FB2D6",
"7@	c #CACEE3",
"8@	c #DEE2F4",
"9@	c #2B62C3",
"0@	c #4A7FD4",
"a@	c #B4D8FF",
"b@	c #8DC1FF",
"c@	c #87BEFF",
"d@	c #8DC3FF",
"e@	c #76ADF9",
"f@	c #5F9CEF",
"g@	c #568FE7",
"h@	c #003DB1",
"i@	c #3E79D1",
"j@	c #DDF9FF",
"k@	c #5892DD",
"l@	c #2964C1",
"m@	c #4881D3",
"n@	c #4780D3",
"o@	c #467DD2",
"p@	c #457CD1",
"q@	c #447ACF",
"r@	c #4378CE",
"s@	c #4077CD",
"t@	c #3F75CC",
"u@	c #3E72CB",
"v@	c #3D71CA",
"w@	c #3B6FC9",
"x@	c #1D58BF",
"y@	c #4C80D4",
"z@	c #B7DBFF",
"A@	c #64AAFF",
"B@	c #529FFF",
"C@	c #509EFF",
"D@	c #52A0FF",
"E@	c #56A3FF",
"F@	c #1C66DF",
"G@	c #0027B1",
"H@	c #0032AC",
"I@	c #3C77CF",
"J@	c #D9F6FF",
"K@	c #AEDDFF",
"L@	c #0954C2",
"M@	c #AEC9F0",
"N@	c #BACEEF",
"O@	c #C7DBF6",
"P@	c #C3D8F6",
"Q@	c #BFD8F5",
"R@	c #BAD6F5",
"S@	c #B6D3F4",
"T@	c #B2CFF4",
"U@	c #ADCCF3",
"V@	c #AACAF3",
"W@	c #A5C7F3",
"X@	c #A1C3F2",
"Y@	c #AACAF7",
"Z@	c #BADDFF",
"`@	c #6BAEFF",
" #	c #57A2FF",
".#	c #519FFF",
"+#	c #58A5FF",
"@#	c #326DE0",
"##	c #032CB7",
"$#	c #002BAF",
"%#	c #002C98",
"&#	c #3A75CF",
"*#	c #D6F5FF",
"=#	c #73ACE9",
"-#	c #3675CF",
";#	c #FAFFFF",
">#	c #D8DFF1",
",#	c #E8F1FB",
"'#	c #F3FFFF",
")#	c #E6FFFF",
"!#	c #D8FAFF",
"~#	c #CBF0FF",
"{#	c #BDE7FF",
"]#	c #AFDEFF",
"^#	c #A2D4FF",
"/#	c #95CBFF",
"(#	c #86C2FF",
"_#	c #79B9FF",
":#	c #6CAFFF",
"<#	c #5EA6FF",
"[#	c #4D96FA",
"}#	c #3D7BE9",
"|#	c #123FC3",
"1#	c #0029B5",
"2#	c #001DAF",
"3#	c #002DAB",
"4#	c #002177",
"5#	c #3873CE",
"6#	c #D3F3FF",
"7#	c #2067CB",
"8#	c #A1C1ED",
"9#	c #F2FFFF",
"0#	c #E1F4FF",
"a#	c #C6D5EA",
"b#	c #EAFFFF",
"c#	c #DFFEFF",
"d#	c #D2F5FF",
"e#	c #ADD9FF",
"f#	c #92C4FE",
"g#	c #81B7FC",
"h#	c #649EF5",
"i#	c #5490F3",
"j#	c #4583F0",
"k#	c #3877EC",
"l#	c #306DE6",
"m#	c #2B65DF",
"n#	c #2758D4",
"o#	c #153DC2",
"p#	c #032CB8",
"q#	c #0023B3",
"r#	c #001BAE",
"s#	c #001EAD",
"t#	c #002FAA",
"u#	c #3572CE",
"v#	c #CFF2FF",
"w#	c #A6D5FB",
"x#	c #0752C1",
"y#	c #EDF9FF",
"z#	c #EBFDFF",
"A#	c #DFFAFF",
"B#	c #C6E3F9",
"C#	c #BFDDF2",
"D#	c #D1F4FF",
"E#	c #90C2FD",
"F#	c #80B4FA",
"G#	c #70A6F7",
"H#	c #6199F4",
"I#	c #518CF1",
"J#	c #427DED",
"K#	c #306FEA",
"L#	c #2563E3",
"M#	c #215ADD",
"N#	c #1D4FD3",
"O#	c #0936C0",
"P#	c #0632BE",
"Q#	c #002EC0",
"R#	c #001EB2",
"S#	c #0025AD",
"T#	c #002BA0",
"U#	c #3370CD",
"V#	c #CCF1FF",
"W#	c #5D98E0",
"X#	c #5389D6",
"Y#	c #F7FFFF",
"Z#	c #E6FCFF",
"`#	c #C1EDFF",
" $	c #99C7F2",
".$	c #9CCCFE",
"+$	c #97C8FF",
"@$	c #89BDFC",
"#$	c #7AAFFA",
"$$	c #6CA3F6",
"%$	c #5C96F3",
"&$	c #4C87F1",
"*$	c #3C79EC",
"=$	c #2B6CE9",
"-$	c #2462E3",
";$	c #134CD4",
">$	c #053AC7",
",$	c #073CC9",
"'$	c #073DCA",
")$	c #002FC1",
"!$	c #0028AA",
"~$	c #00258D",
"{$	c #316FCD",
"]$	c #C8EFFF",
"^$	c #1F65C9",
"/$	c #A0C0EC",
"($	c #F0FFFF",
"_$	c #BAE8FF",
":$	c #A6DDFF",
"<$	c #97CDFF",
"[$	c #85B7F3",
"}$	c #91C3FE",
"|$	c #84B8FC",
"1$	c #76ACFA",
"2$	c #669FF6",
"3$	c #5791F3",
"4$	c #4784F0",
"5$	c #3877ED",
"6$	c #2163E6",
"7$	c #0947D5",
"8$	c #0745D3",
"9$	c #0946D4",
"0$	c #0840CD",
"a$	c #002CA8",
"b$	c #2F6DCC",
"c$	c #C4EDFF",
"d$	c #AAD6FB",
"e$	c #155AC3",
"f$	c #EBF9FF",
"g$	c #D4F3FF",
"h$	c #B8E7FF",
"i$	c #ADE1FF",
"j$	c #A2D9FF",
"k$	c #96CFFF",
"l$	c #81B8F6",
"m$	c #7FB4F6",
"n$	c #80B6FC",
"o$	c #70A8F9",
"p$	c #629BF5",
"q$	c #528EF3",
"r$	c #4381F0",
"s$	c #1F62E2",
"t$	c #084DDB",
"u$	c #0950DF",
"v$	c #0A4EDC",
"w$	c #083FCC",
"x$	c #0022AD",
"y$	c #0029A3",
"z$	c #2C6CCC",
"A$	c #C1ECFF",
"B$	c #518DDB",
"C$	c #6592D9",
"D$	c #D6F2FF",
"E$	c #C8EBFF",
"F$	c #C1E8FF",
"G$	c #B9E2FF",
"H$	c #AFDBFF",
"I$	c #A5D2FF",
"J$	c #95C6FD",
"K$	c #7AAAF0",
"L$	c #83B4F9",
"M$	c #76A8F5",
"N$	c #689CF2",
"O$	c #588DED",
"P$	c #386FE0",
"Q$	c #2865E0",
"R$	c #2061E3",
"S$	c #1F5ADC",
"T$	c #1E53D4",
"U$	c #1D4CCB",
"V$	c #1B45C4",
"W$	c #1A43C3",
"X$	c #1038BC",
"Y$	c #082AB1",
"Z$	c #0028A9",
"`$	c #00238F",
" %	c #2A69CB",
".%	c #BEEAFF",
"+%	c #1158C2",
"@%	c #B7CDF1",
"#%	c #F7F7FC",
"$%	c #F3F3F9",
"%%	c #EFEFF5",
"&%	c #EAEAF2",
"*%	c #E6E6EF",
"=%	c #E2E2EB",
"-%	c #DEDEE9",
";%	c #D9D9E6",
">%	c #D5D5E2",
",%	c #D1D1DF",
"'%	c #CCCCDC",
")%	c #C8C8D8",
"!%	c #C4C4D5",
"~%	c #C0C0D2",
"{%	c #BCBCCE",
"]%	c #B7B7CC",
"^%	c #B3B3C9",
"/%	c #083AAA",
"(%	c #001C74",
"_%	c #2868CB",
":%	c #7AB4F1",
"<%	c #1458C1",
"[%	c #FAFAFD",
"}%	c #F5F5FA",
"|%	c #F1F1F6",
"1%	c #ECECF4",
"2%	c #E8E8F1",
"3%	c #E3E3ED",
"4%	c #E0E0EA",
"5%	c #DCDCE7",
"6%	c #D7D7E3",
"7%	c #D3D3E0",
"8%	c #CECEDD",
"9%	c #CACADB",
"0%	c #C6C6D7",
"a%	c #C1C1D4",
"b%	c #BEBED1",
"c%	c #B9B9CD",
"d%	c #909AC3",
"e%	c #0027A5",
"f%	c #2667CA",
"g%	c #3D80D8",
"h%	c #769EDD",
"i%	c #FCFCFE",
"j%	c #E1E1EB",
"k%	c #DEDEE8",
"l%	c #C3C3D5",
"m%	c #BFBFD2",
"n%	c #536FB8",
"o%	c #00249A",
"p%	c #2465CA",
"q%	c #0C52C0",
"r%	c #D7E5FA",
"s%	c #ECECF3",
"t%	c #DFDFEA",
"u%	c #CACAD9",
"v%	c #C6C6D6",
"w%	c #BDBDD1",
"x%	c #1442AC",
"y%	c #001B78",
"z%	c #0043B7",
"A%	c #2361C4",
"B%	c #FBFBFD",
"C%	c #F2F3F5",
"D%	c #EAEBEF",
"E%	c #E2E3E8",
"F%	c #DBDCE0",
"G%	c #D3D4D9",
"H%	c #CBCCD3",
"I%	c #C2C4CB",
"J%	c #BABDC4",
"K%	c #B3B5BE",
"L%	c #ABADB6",
"M%	c #A4A8B0",
"N%	c #A2A4AE",
"O%	c #9FA2AC",
"P%	c #9198AA",
"Q%	c #0025A3",
"R%	c #0044B8",
"S%	c #1253BF",
"T%	c #4276CC",
"U%	c #4275CC",
"V%	c #4073CB",
"W%	c #4072CA",
"X%	c #3F71CA",
"Y%	c #3F70C9",
"Z%	c #3D6FC8",
"`%	c #3C6DC7",
" &	c #3A6BC4",
".&	c #3867C2",
"+&	c #3464BF",
"@&	c #3261BD",
"#&	c #305EBA",
"$&	c #2C5BB8",
"%&	c #2A58B5",
"&&	c #0D43AE",
"*&	c #002EA9",
"=&	c #002AA6",
"-&	c #0029A6",
";&	c #0026A4",
">&	c #00239C",
"                                                                                                ",
"                                                                                                ",
"                                                                                                ",
"        . + @ # $                                                                               ",
"        % & * = -                           ; > ,                                               ",
"        % & * = -                           > ' )                                               ",
"        % & * = -                         ! ~ { ' ] ^                               / @ @ (     ",
"        % & * = -                     ; > ~ _ _ _ : < [ } |                         @ * * 1     ",
"        % & * = -                     > ' { _ _ _ 2 3 4 5 6                         @ * * 1     ",
"        % & * 7 -                   ! ~ { 8 9 9 9 0 a _ b c d                       @ * * 1     ",
"        % & * = -               ; > ~ e f g       } 5 b _ _ 9                       @ * * 1     ",
"        % & * = -               > ' { f d h       | 6 c _ _ 9                       @ * * 1     ",
"        % & * = -             ! ~ { 8 g h         i j k l m n                       @ * * 1     ",
"        % & * = -         ; > ~ e f g           i o b l p ,                         @ * * 1     ",
"        % & * = -         > ' { f d h           j b q m , r                         @ * * 1     ",
"        % & * 7 -       ! ~ { 8 g h         i j k l m n           ! ] ^             @ * * 1     ",
"        % & * = -   ; > ~ e f g     s t u v o b l p ,     w x y z ~ : < ,           @ * * 1     ",
"        % & * = -   > ' { f d h     A B C D b q m , r   w E F G H { 2 3 )           @ * * 1     ",
"        % & * = - ! ~ { 8 g h       I J K L M N n     O P Q R S T _ _ _ 9           @ * * 1     ",
"        % & * U V ~ e f g           W X Y Z `  .      ..+.@.#.$.%.&.: 2 0 } |       @ * * 1     ",
"        % & * *.=.{ f d h           -.;.>.,.'.).      !.~.{.].%.d ^.< 3 a 5 6       @ * * 1     ",
"        % & * /.(.8 g h         i j k _.:.<.[.}.|.1.2.3.4.5.6.g h   , ) ' b c d     @ * * 1     ",
"        % & * 7.8.g           i o 9.0.a.b.c.d.e.f.g.h.i.j.k.l.          m._ _ 9     @ * * 1     ",
"        % & * n.o.h           j p.q.r.s.t.u.v.w.x.y.z.A.B.C.D.          m._ _ 9     @ * * 1     ",
"        E.F.1 G.H.        i I.J.K.L.M.N.O.P.Q.R.S.T.U.V.W.X.Y.      i j k l m n     @ * * 1     ",
"Z.`. +.+++@+#+#+$+      i %+&+*+=+-+M.N.;+>+,+'+)+!+~+{+]+^+      i o b l p ,       @ * * 1     ",
"/+(+_+:+<+[+}+|+1+2+3+4+5+6+7+=+8+-+M.N.9+0+a+b+c+d+e+f+g+h+      j b q m , r       @ * * 1     ",
"i+j+k+l+m+n+o+p+q+r+s+t+7+u+v+=+8+-+M.N.9+w+O.x+y+z+A+B+C+D+  i j k l m n           @ * * 1     ",
"E+j+k+l+m+n+o+F+G+H+I+O.J+L.v+=+8+-+M.N.9+w+K+L+M+N+O+P+    i o b l p ,         ; > Q+7.n.G.    ",
"R+S+k+l+m+n+T+U+V+O.O.O.J+L.v+=+8+-+M.N.9+w+w+v+W+X+Y+Z+    j b q m , r         > ' `+8.o.H.    ",
" @.@k+l++@@@#@$@O.O.O.O.J+L.v+=+8+-+M.N.%@&@*@=@-@;@>@,@'@)@k l m n           ! ~ { 8 g h       ",
"!@~@k+l+{@]@O.O.O.O.O.O.J+L.v+=+8+-+M.^@/@(@_@:@<@[@}@|@1@2@3@p ,         ; > ~ e f g           ",
"4@5@k+l+m+6@7@O.O.O.O.O.J+L.v+=+8+-+8@9@0@a@b@c@c@d@e@f@g@h@m , r         > ' { f d h           ",
"i@j@k+l+m+k@l@m@n@o@p@q@r@s@t@u@v@w@x@y@z@A@B@C@C@D@E@F@G@H@n           ! ~ { 8 g h             ",
"I@J@k+l+K@L@M@N@O@P@Q@R@S@T@U@V@W@X@Y@Z@`@ #C@C@.#+#@###$#%#        ; > ~ e f g                 ",
"&#*#k+l+=#-#;#>#,#'#)#!#~#{#]#^#/#(#_#:#<#B@C@[#}#|#1#2#3#4#        > ' { f d h                 ",
"5#6#k+l+7#8#9#0#a#b#c#d#+@e#f#g#h#i#j#k#l#m#n#o#p#q#r#s#t#        ! ~ { 8 g h                   ",
"u#v#k+w#x#y#z#A#B#C#D#e#E#F#G#H#I#J#K#L#M#N#O#P#Q#R#r#S#T#    ; > ~ e f g                       ",
"U#V#k+W#X#Y#Z#!#`# $.$+$@$#$$$%$&$*$=$-$;$>$,$'$)$R#r#!$~$    > ' { f d h                       ",
"{$]$k+^$/$($J@_$:$<$[$}$|$1$2$3$4$5$6$7$8$9$0$'$)$R#r#a$    ! ~ { 8 g h                         ",
"b$c$d$e$f$g$h$i$j$k$l$m$n$o$p$q$r$s$t$u$v$9$w$'$)$R#x$y$; > ~ e f g                             ",
"z$A$B$C$D$E$F$G$H$I$J$K$L$M$N$O$P$Q$R$S$T$U$V$W$X$Y$Z$`$> ' { f d h                             ",
" %.%+%@%O.O.O.O.u+#%$%%%&%*%=%-%;%>%,%'%)%!%~%{%]%^%/%(%~ { 8 g h                               ",
"_%:%<%O.O.O.O.O.J+[%}%|%1%2%3%4%5%6%7%8%9%0%a%b%c%d%e%~ e f g                                   ",
"f%g%h%O.O.O.O.O.O.i%#%$%%%&%*%j%k%;%>%,%'%)%l%m%{%n%o%{ f d h                                   ",
"p%q%r%O.O.O.O.O.O.7+[%}%|%s%2%3%t%5%6%7%8%u%v%a%w%x%y%8 g h                                     ",
"z%A%O.O.O.O.O.O.O.O.B%C%D%E%F%G%H%I%J%K%L%M%N%O%P%Q%&.g                                         ",
"R%S%T%U%V%W%X%Y%Z%`% &.&+&@&#&$&%&&&*&a$=&-&e%;&Q%>&^.h                                         "};
