/* XPM */
static const char *fitall[]={
"32 32 5 1",
". c #000000",
"c c #b0b0b0",
"# c #c7c7c7",
"a c #ffff00",
"b c #ffffff",
"................................",
".##############################.",
".##############################.",
".###aaaa#################aaaa##.",
".###aa#####################aa##.",
".###a#a###################a#a##.",
".###a##a#########.....###a##a##.",
".#######a######..bb###..a######.",
".########a####.bb#######.######.",
".############.b###b######.#####.",
".############.b#b########.#####.",
".###########.b############.####.",
".###########.b#b##########.####.",
".###########.#############.####.",
".###########.##b##########.####.",
".###########.############c.####.",
".############.###########.#####.",
".############.##########c.#####.",
".###########.c.########c.######.",
".##########...#..####c..#######.",
".#########...####.....#########.",
".########...###################.",
".#######...############a#######.",
".######.a.##############a######.",
".###a#.a.################a##a##.",
".###a#a.##################a#a##.",
".###aa#####################aa##.",
".###aaaa#################aaaa##.",
".##############################.",
".##############################.",
".##############################.",
"................................"};
