/* XPM */
static const char *front[]={
"32 32 6 1",
". c #000000",
"a c #3b3b39",
"b c #777773",
"c c #b2b2ac",
"# c #c3c3c3",
"d c #ffff00",
"................................",
".##############################.",
".##############################.",
".###########abbbbbbbbbbbbbab###.",
".##########bb############ccb###.",
".#########b#b###########cc#b###.",
".########b##b##########cc##b###.",
".#######b###b#########cc###b###.",
".######b####b########cc####b###.",
".#####b#####b#######cc#####b###.",
".####b######b######cc######b###.",
".###b#######b#####cc#######b###.",
".##abbbbbbbbabbbbbc########b###.",
".##bdddddddddddddb#########b###.",
".##bdddddddddddddb#########b###.",
".##bdddddddddddddb#########b###.",
".##bdddddddddddddb#########b###.",
".##bdddddddddddddabbbbbbbbbb###.",
".##bdddddddddddddb########b####.",
".##bdddddddddddddb#######b#####.",
".##bdddddddddddddb######b######.",
".##bdddddddddddddb#####b#######.",
".##bdddddddddddddb####b########.",
".##bdddddddddddddb###b#########.",
".##bdddddddddddddb##b##########.",
".##bdddddddddddddb#b###########.",
".##adddddddddddddbb############.",
".##bbbbbbbbbbbbbbb#############.",
".##############################.",
".##############################.",
".##############################.",
"................................"};
