/* XPM */
static char * help_xpm[] = {
"16 16 123 2",
"  	c None",
". 	c #3879FF",
"+ 	c #3778FF",
"@ 	c #3B7CFF",
"# 	c #3C7CFF",
"$ 	c #4180FF",
"% 	c #5C90FA",
"& 	c #5D90FA",
"* 	c #3276FF",
"= 	c #2E72FF",
"- 	c #538BFE",
"; 	c #A9C5FD",
"> 	c #E2EBFE",
", 	c #DAE4F8",
"' 	c #D8E2F8",
") 	c #DDE7FB",
"! 	c #BBD0F9",
"~ 	c #568CFB",
"{ 	c #2A70FF",
"] 	c #699AFC",
"^ 	c #D0DFFE",
"/ 	c #CADAF9",
"( 	c #DCE6F8",
"_ 	c #FFFFFF",
": 	c #EEF2FC",
"< 	c #D4E0F8",
"[ 	c #D6E4FE",
"} 	c #77A0F4",
"| 	c #266DFF",
"1 	c #4F88FE",
"2 	c #BCD2FE",
"3 	c #BED2FB",
"4 	c #EDF2FB",
"5 	c #EAF1FF",
"6 	c #E2ECFF",
"7 	c #FCFDFF",
"8 	c #CFDEFC",
"9 	c #C2D6FE",
"0 	c #4E87FC",
"a 	c #236CFF",
"b 	c #87AEFD",
"c 	c #B0CAFF",
"d 	c #B7CDFA",
"e 	c #F0F5FF",
"f 	c #C7D7F8",
"g 	c #DEE9FF",
"h 	c #AAC6FE",
"i 	c #7EA7F9",
"j 	c #226BFF",
"k 	c #407FFF",
"l 	c #94B7FE",
"m 	c #9ABCFF",
"n 	c #A0BFFE",
"o 	c #DEEAFF",
"p 	c #B5CEFF",
"q 	c #9AB9F9",
"r 	c #DCE4F6",
"s 	c #AAC5FD",
"t 	c #568EFE",
"u 	c #548DFF",
"v 	c #2E73FF",
"w 	c #4A85FD",
"x 	c #84AEFF",
"y 	c #86ACF7",
"z 	c #DDE6F7",
"A 	c #D9E5FD",
"B 	c #5B91FD",
"C 	c #3678FF",
"D 	c #1A66FE",
"E 	c #3577FF",
"F 	c #4883FE",
"G 	c #6C9DFF",
"H 	c #6D9DFF",
"I 	c #C5D4F2",
"J 	c #D7E3FD",
"K 	c #5F94FD",
"L 	c #558EFF",
"M 	c #3578FE",
"N 	c #1A65FE",
"O 	c #3D7EFF",
"P 	c #5E93FF",
"Q 	c #5E94FE",
"R 	c #5D92FF",
"S 	c #5B91FF",
"T 	c #EBEFF8",
"U 	c #F8FAFF",
"V 	c #6396FE",
"W 	c #5A91FF",
"X 	c #2B70FD",
"Y 	c #3275FF",
"Z 	c #5C91FE",
"` 	c #6094FF",
" .	c #B6CDFC",
"..	c #ACC7FF",
"+.	c #5A90FE",
"@.	c #1B65FC",
"#.	c #4984FC",
"$.	c #6E9EFF",
"%.	c #6D9CFC",
"&.	c #BFD0F4",
"*.	c #C8D8FA",
"=.	c #709FFF",
"-.	c #3E7CFA",
";.	c #1A64FA",
">.	c #5F90F6",
",.	c #7CA8FF",
"'.	c #79A3F9",
").	c #FDFEFF",
"!.	c #88B0FF",
"~.	c #598CF4",
"{.	c #256DFF",
"].	c #548AF7",
"^.	c #87ADFA",
"/.	c #8CB2FF",
"(.	c #A6C3FF",
"_.	c #87ACF8",
":.	c #4E85F5",
"<.	c #286EFB",
"[.	c #4B82F3",
"}.	c #568CFC",
"|.	c #4880F0",
"1.	c #2369F8",
"2.	c #1A64FD",
"              . +               ",
"        @ # $ % & # * =         ",
"      @ - ; > , ' ) ! ~ {       ",
"    @ ] ^ / ( _ _ : < [ } |     ",
"  @ 1 2 3 4 _ 5 6 7 _ 8 9 0 a   ",
"  # b c d _ e c c f _ g h i j   ",
"  k l m n o p m q r _ s t u v   ",
". w x x x x x y z _ A B u u C D ",
"E F G G G G H I _ J K L L L M N ",
"  O P Q P R S T U V W W W W X   ",
"  Y Z ` ` ` `  ...` ` ` ` +.@.  ",
"  = #.$.$.$.%.&.*.=.$.$.$.-.;.  ",
"    { >.,.,.'.)._ !.,.,.~.;.    ",
"      {.].^./.(.../._.:.;.      ",
"        j <.[.}.~ |.1.;.        ",
"              D 2.              "};
