/* XPM */
static const char *leftView[]={
"32 32 6 1",
". c #000000",
"a c #3b3b39",
"b c #777773",
"c c #b2b2ac",
"# c #c3c3c3",
"d c #ffff00",
"................................",
".##############################.",
".##############################.",
".###########abbbbbbbbbbbbbab###.",
".##########bb############ccb###.",
".#########bdb###########cc#b###.",
".########bddb##########cc##b###.",
".#######bdddb#########cc###b###.",
".######bddddb########cc####b###.",
".#####bdddddb#######cc#####b###.",
".####bddddddb######cc######b###.",
".###bdddddddb#####cc#######b###.",
".##abbbbbbbbabbbbbc########b###.",
".##bddddddddb####b#########b###.",
".##bddddddddb####b#########b###.",
".##bddddddddb####b#########b###.",
".##bddddddddb####b#########b###.",
".##bddddddddbbbbbabbbbbbbbbb###.",
".##bdddddddcc####b########b####.",
".##bddddddcc#####b#######b#####.",
".##bdddddcc######b######b######.",
".##bddddcc#######b#####b#######.",
".##bdddcc########b####b########.",
".##bddcc#########b###b#########.",
".##bdcc##########b##b##########.",
".##bcc###########b#b###########.",
".##ac############bb############.",
".##bbbbbbbbbbbbbbb#############.",
".##############################.",
".##############################.",
".##############################.",
"................................"};
