/* XPM */
static const char *measang[]={
"24 24 5 1",
". c #000000",
"c c #0058c0",
"# c #c3c3c3",
"a c #ff0000",
"b c #ffff00",
".......................#",
".###############a#bb##.#",
".##############a#abb##.#",
".#############a#bbbbbb.#",
".############a##bbbbbb.#",
".###########a#####bb##.#",
".##########a######bb##.#",
".#########a###########.#",
".########a############.#",
".#######a#aa####ccc###.#",
".######a###aa###c#c###.#",
".#####a#####a##c##cc##.#",
".####a######a##c#c#c##.#",
".a##a#######a##cc##c##.#",
".#aabb######a###c#c###.#",
".##abb######a###ccc###.#",
".#bbbbbb###aa#########.#",
".#bbbbbb##aa######bb##.#",
".###bbaaaaaaaaaaaabb##.#",
".###bb##########bbbbbb.#",
".###############bbbbbb.#",
".#################bb##.#",
".#################bb##.#",
".......................#"};
