/* XPM */
static const char *measdist[]={
"24 24 4 1",
". c #000000",
"# c #c3c3c3",
"a c #ff0000",
"b c #ffff00",
".......................#",
".###############a#bb##.#",
".##############a#abb##.#",
".#############a#bbbbbb.#",
".###a##a#####a##bbbbbb.#",
".####aa#####a#####bb##.#",
".####aa####a######bb##.#",
".###a##a##a###########.#",
".########a############.#",
".#######a#############.#",
".######a##############.#",
".#####a###############.#",
".####a################.#",
".a##a#################.#",
".#aabb################.#",
".##abb################.#",
".#bbbbbb##############.#",
".#bbbbbb##############.#",
".###bb################.#",
".###bb################.#",
".#####################.#",
".#####################.#",
".#####################.#",
".......................#"};
