/* XPM */
static const char * multi[] = {
"32 32 69 1",
" 	c None",
".	c #000000",
"+	c #C3C3C3",
"@	c #808080",
"#	c #A8A864",
"$	c #BFBFBD",
"%	c #ECEC2B",
"&	c #BBBB3A",
"*	c #FFFF00",
"=	c #ACAC2B",
"-	c #999956",
";	c #9D9D9B",
">	c #B0B0AF",
",	c #B6B6B2",
"'	c #DDDD1D",
")	c #C9C961",
"!	c #DCDC13",
"~	c #CACA8A",
"{	c #ACAC6A",
"]	c #C5C581",
"^	c #CACA61",
"/	c #F0F00D",
"(	c #FEFE00",
"_	c #E6E618",
":	c #CCCC83",
"<	c #C3C369",
"[	c #F3F30A",
"}	c #FDFD01",
"|	c #BFBF6A",
"1	c #E8E809",
"2	c #C2C280",
"3	c #B0B099",
"4	c #CDCD16",
"5	c #FAFA00",
"6	c #F0F000",
"7	c #A2A209",
"8	c #B6B694",
"9	c #D9D914",
"0	c #D9D900",
"a	c #F9F900",
"b	c #DBDB00",
"c	c #B1B100",
"d	c #EEEE14",
"e	c #E8E800",
"f	c #F5F500",
"g	c #D7D700",
"h	c #F1F100",
"i	c #BEBE00",
"j	c #EAEA00",
"k	c #D2D200",
"l	c #BFBF00",
"m	c #BEBEB0",
"n	c #D9D92C",
"o	c #C0C03A",
"p	c #C6C6B2",
"q	c #DDDD0E",
"r	c #D5D53A",
"s	c #C7C7B5",
"t	c #DCDC26",
"u	c #FBFB02",
"v	c #F6F606",
"w	c #D5D549",
"x	c #C2C2B6",
"y	c #C5C5A2",
"z	c #DEDE2C",
"A	c #B6B602",
"B	c #D4D449",
"C	c #C0C0B0",
"D	c #A2A258",
"................................",
".+++++@@@@@@@@+..+++++@@@@@@@@+.",
".++++@@+++++@@+..++++@@+++++@#+.",
".+++@+@++++@$@+..+++@+@++++@%&+.",
".++@++@+++@$+@+..++@++@+++@%*&+.",
".+@+++@++@$++@+..+@+++@++@%**&+.",
".@&&&&=&-$+++@+..@@@@@@@@%***&+.",
".@******&++++@+..@++++@+@****&+.",
".@******=;;;;@+..@++++@@@****&+.",
".@******&+++@>+..@+++,$+@***'@+.",
".@******&++@>++..@++,$++@**'@++.",
".@******&+@>+++..@+,$+++@*'@+++.",
".@******&@>++++..@,$++++@'@++++.",
".@&&&&&&->+++++..@@@@@@@@@+++++.",
".++++++++++++++..++++++++++++++.",
"................................",
"................................",
".+++++@@@@@@@@+..+++++)!~++++++.",
".++++{******]@+..++++^/(_:+++++.",
".+++{******]$@+..+++<[(*}_~++++.",
".++{******]$+@+..++|******12+++.",
".+{******]$++@+..+345*****67+++.",
".@@@@@@@@$+++@+..+890a***6bc+++.",
".@++++@+@++++@+..+8de05*fghi+++.",
".@++++@@@@@@@@+..+8d*jb6kf*l+++.",
".@+++@$+@+++@>+..+8d**eif**l+++.",
".@++@$++@++@>++..+mn***l**ao+++.",
".@+@$+++@+@>+++..++pq**l*5rs+++.",
".@@$++++@@>++++..+++ptulvwx++++.",
".@@@@@@@@>+++++..++++yzABC+++++.",
".++++++++++++++..+++++yDx++++++.",
"................................"};
