/* XPM */
static char * ok[] = {
"32 32 146 2",
"  	c None",
". 	c #000000",
"+ 	c #191F19",
"@ 	c #7D9F7D",
"# 	c #96BF96",
"$ 	c #C9FFC9",
"% 	c #436F43",
"& 	c #3E4F3E",
"* 	c #9CEB9B",
"= 	c #18AE15",
"- 	c #042004",
"; 	c #0D110D",
"> 	c #AFDFAF",
", 	c #35C234",
"' 	c #15B113",
") 	c #138E11",
"! 	c #647F64",
"~ 	c #77E076",
"{ 	c #11B70F",
"] 	c #13B411",
"^ 	c #15B212",
"/ 	c #0C630B",
"( 	c #252F25",
"_ 	c #BDFBBD",
": 	c #18C116",
"< 	c #0EBA0C",
"[ 	c #10B80E",
"} 	c #12B510",
"| 	c #14B312",
"1 	c #052C04",
"2 	c #50D94F",
"3 	c #09C008",
"4 	c #0BBE0A",
"5 	c #0DBB0C",
"6 	c #0FB90D",
"7 	c #11B60F",
"8 	c #042D04",
"9 	c #4B5F4B",
"0 	c #97F197",
"a 	c #04C604",
"b 	c #07C406",
"c 	c #08C107",
"d 	c #0BBF09",
"e 	c #0DBC0B",
"f 	c #054505",
"g 	c #BCEFBC",
"h 	c #27D627",
"i 	c #02CA01",
"j 	c #04C703",
"k 	c #06C505",
"l 	c #08C207",
"m 	c #056004",
"n 	c #718F71",
"o 	c #79EB79",
"p 	c #0BCF0B",
"q 	c #03CD03",
"r 	c #01CB01",
"s 	c #03C803",
"t 	c #037B03",
"u 	c #BFFCBF",
"v 	c #2BD72B",
"w 	c #18D318",
"x 	c #0FD00F",
"y 	c #06CE06",
"z 	c #019901",
"A 	c #576F57",
"B 	c #C7FEC7",
"C 	c #8EE38E",
"D 	c #0E1D0E",
"E 	c #8EBD8E",
"F 	c #BEFCBE",
"G 	c #69E769",
"H 	c #2ED82E",
"I 	c #24D624",
"J 	c #1BD31B",
"K 	c #0EAA0E",
"L 	c #000D00",
"M 	c #A2DBA2",
"N 	c #B8FAB8",
"O 	c #88EE88",
"P 	c #65BF65",
"Q 	c #081008",
"R 	c #415D41",
"S 	c #ADF8AD",
"T 	c #94F194",
"U 	c #43DD43",
"V 	c #3ADB3A",
"W 	c #31D931",
"X 	c #25C925",
"Y 	c #041C04",
"Z 	c #293D29",
"` 	c #A7F6A7",
" .	c #A1F5A1",
"..	c #91F191",
"+.	c #87EE87",
"@.	c #509450",
"#.	c #090F09",
"$.	c #92E492",
"%.	c #9BF39B",
"&.	c #66E666",
"*.	c #50E150",
"=.	c #47DE47",
"-.	c #3ACE3A",
";.	c #092809",
">.	c #4B794B",
",.	c #95F295",
"'.	c #A2F5A2",
").	c #9DF49D",
"!.	c #8BEF8B",
"~.	c #66B366",
"{.	c #8AEF8A",
"].	c #7EEC7E",
"^.	c #5CE45C",
"/.	c #53E153",
"(.	c #174517",
"_.	c #5B965B",
":.	c #B3F9B3",
"<.	c #AAF7AA",
"[.	c #A0F5A0",
"}.	c #97F297",
"|.	c #8EF08E",
"1.	c #81ED81",
"2.	c #7CEB7C",
"3.	c #72E972",
"4.	c #235523",
"5.	c #769D76",
"6.	c #B6FAB6",
"7.	c #A4F5A4",
"8.	c #9AF39A",
"9.	c #7FEC7F",
"0.	c #499249",
"a.	c #789E78",
"b.	c #B9FBB9",
"c.	c #B0F8B0",
"d.	c #9EF49E",
"e.	c #579557",
"f.	c #485E48",
"g.	c #BDFCBD",
"h.	c #B4F9B4",
"i.	c #83C783",
"j.	c #0A110A",
"k.	c #495F49",
"l.	c #C0FCC0",
"m.	c #94CB94",
"n.	c #0B100B",
"o.	c #242F24",
"                                                                ",
"                                                                ",
"                                                                ",
"                                                                ",
"                                        . .                     ",
"                                        + @ .                   ",
"                                      . # $ % .                 ",
"                                      & $ * = -                 ",
"                                    ; > $ , ' ) .               ",
"                                  . ! $ ~ { ] ^ / .             ",
"                                  ( $ _ : < [ } | 1             ",
"                                . # $ 2 3 4 5 6 7 8             ",
"                                9 $ 0 a b c d e f .             ",
"                              ; g $ h i j k l m .               ",
"              . + .         . n $ o p q r s t .                 ",
"              ; $ &         ( $ u v w x y z .                   ",
"              A B C D     . E F G H I J K L                     ",
"            . M N O P Q   R S T U V W X Y                       ",
"            Z `  ...+.@.#.$.%.&.*.=.-.;.                        ",
"            >.,.'.).T !.~.{.].&.^./.(.                          ",
"            . _.:.<.[.}.|.1.2.3.G 4..                           ",
"              . 5.6.S 7.8...O 9.0..                             ",
"                . a.b.c.` d.,.e..                               ",
"                  . f.g.h.<.i.j.                                ",
"                    . k.l.m.n.                                  ",
"                      . & o.                                    ",
"                                                                ",
"                                                                ",
"                                                                ",
"                                                                ",
"                                                                ",
"                                                                "};
