/* XPM */
static const char *okcur[]={
"32 32 3 1",
". c None",
"# c #00ff00",
"a c #dcdcdc",
"................................",
"................................",
"................................",
"................................",
"................................",
".......#####......###.......##..",
"......#######.....###......###..",
"...a.#########....###.....####..",
"....####...####...###.....####..",
"...####.....####..###....####...",
"...####.....####..###...####....",
"...####.....####..###...###.....",
"..####.......####.###..####.....",
"..####.......####.###.####......",
"..####.......####.###.####......",
"..####.......####.########......",
"..####.......####.#########.....",
"..####.......####.#########.....",
"..####.......####.####.####.....",
"...####.....####..####..####....",
"...####.....####..###...####....",
"...####.....####..###...#####...",
"....####...####...###....####...",
".....#########....###.....####..",
"......#######.....###.....####..",
".......#####......###......###..",
"................................",
"................................",
"................................",
"................................",
"................................",
"................................"};
