/* XPM */
static char *ok[]={
"32 32 5 1",
". c None",
"a c #000000",
"b c #00ff00",
"c c #808080",
"# c #ffffff",
"................................",
"................................",
"................................",
"................................",
"........................##a.....",
".......................##bac....",
"......................##bbac....",
".....................##bbbac....",
"....................##bbbaac....",
"...................##bbbaacc....",
"..................##bbbaaccc....",
".................##bbbaacccc....",
".....####.......##bbbaacccc.....",
".....#bbba.....##bbbaacccc......",
"....##bbbacc..##bbbbacccc.......",
"....#bbbbacc.##bbbbaaccc........",
"....#bbbbacc##bbbbaaccc.........",
"....#bbbbac##bbbbaacccc.........",
"....#bbbbb##bbbbaacccc..........",
"....#bbbbbbbbbbaacccc...........",
"....#bbbbbbbbbaacccc............",
"....#bbbbbbbbaacccc.............",
"....#bbbbbbbaacccc..............",
"....#bbbbbbaacccc...............",
".....#bbbbaacccc................",
"......abbaacccc.................",
".......aaacccc..................",
"........ccccc...................",
".........ccc....................",
"................................",
"................................",
"................................"};
