/* XPM */
static const char *ortho[]={
"32 32 5 1",
". c #000000",
"a c #3b3b39",
"b c #777773",
"c c #b2b2ac",
"# c #c3c3c3",
"................................",
".##############################.",
".##############################.",
".###########abbbbbbbbbbbbbab###.",
".##########bb############ccb###.",
".#########b#b###########cc#b###.",
".########b##b##########cc##b###.",
".#######b###b#########cc###b###.",
".######b####b########cc####b###.",
".#####b#####b#######cc#####b###.",
".####b######b######cc######b###.",
".###b#######b#####cc#######b###.",
".##abbbbbbbbabbbbbc########b###.",
".##b########b####b#########b###.",
".##b########b####b#########b###.",
".##b########b####b#########b###.",
".##b########b####b#########b###.",
".##b########bbbbbabbbbbbbbbb###.",
".##b#######cc####b########b####.",
".##b######cc#####b#######b#####.",
".##b#####cc######b######b######.",
".##b####cc#######b#####b#######.",
".##b###cc########b####b########.",
".##b##cc#########b###b#########.",
".##b#cc##########b##b##########.",
".##bcc###########b#b###########.",
".##ac############bb############.",
".##bbbbbbbbbbbbbbb#############.",
".##############################.",
".##############################.",
".##############################.",
"................................"};
