/* XPM */
static const char *pancursor[]={
"33 33 5 1",
". c None",
"a c #000000",
"# c #808080",
"c c #c0c0c0",
"b c #ffffff",
".................................",
".................................",
".................................",
".................................",
".................................",
"...............#a................",
"..............#bca...............",
".............#bbcca..............",
"............#bbbccca.............",
"...........#bbbbcccca............",
"...........aaaaaaaaaa............",
".........#a...#bca...#a..........",
"........#ba...#bca...#ba.........",
".......#bba...#bca...#bba........",
"......#bbba####bc#####bbba.......",
".....#bbbbabbbbbbbbbb#bbbba......",
".....accccaccccbccccc#cccca......",
"......acccaaaa#bcaaaa#ccca.......",
".......acca...#bca...#cca........",
"........aca...#bca...#ca.........",
".........aa...#bca...aa..........",
"...........##########............",
"...........abbbbcccca............",
"............abbbccca.............",
".............abbcca..............",
"..............abca...............",
"...............aa................",
".................................",
".................................",
".................................",
".................................",
".................................",
"................................."};
