/* XPM */
static char * paste_xpm[] = {
"16 16 109 2",
"  	c None",
". 	c #8888A1",
"+ 	c #C1C1CE",
"@ 	c #C3C3CF",
"# 	c #C2C2CF",
"$ 	c #8E8EA5",
"% 	c #DAA146",
"& 	c #928584",
"* 	c #D4D4DD",
"= 	c #F2F2F5",
"- 	c #DEDEE4",
"; 	c #8E858C",
"> 	c #DCA44B",
", 	c #D9AC4F",
"' 	c #FEFE98",
") 	c #ABAA95",
"! 	c #D8D8E0",
"~ 	c #A6A59E",
"{ 	c #FEFE97",
"] 	c #E0BA59",
"^ 	c #D8B656",
"/ 	c #FCF683",
"( 	c #CBC67F",
"_ 	c #A9A57C",
": 	c #A8A47C",
"< 	c #C0BB7E",
"[ 	c #E1BC5B",
"} 	c #CDAA50",
"| 	c #FAEE78",
"1 	c #FAE974",
"2 	c #D8AC50",
"3 	c #C29E4A",
"4 	c #F8E56C",
"5 	c #EAE2AD",
"6 	c #ECE8CB",
"7 	c #EAE5CA",
"8 	c #E6DFC6",
"9 	c #D7CCBC",
"0 	c #A5A1AC",
"a 	c #B89344",
"b 	c #F6DD60",
"c 	c #EAE4C7",
"d 	c #FFFFFF",
"e 	c #FCFCFD",
"f 	c #F4F4F8",
"g 	c #C9C9D7",
"h 	c #A9A9BC",
"i 	c #B48C3E",
"j 	c #F3D555",
"k 	c #F3D454",
"l 	c #F2CA4F",
"m 	c #F2C54C",
"n 	c #F2C44C",
"o 	c #E7DBC0",
"p 	c #D5D5E0",
"q 	c #EAEAF0",
"r 	c #9999B3",
"s 	c #B28838",
"t 	c #F0C948",
"u 	c #F0B63E",
"v 	c #F0B33C",
"w 	c #E4D5BC",
"x 	c #CECEDC",
"y 	c #C4C4D6",
"z 	c #B6B6CD",
"A 	c #B18432",
"B 	c #EDAF34",
"C 	c #ECAA31",
"D 	c #E0D0B7",
"E 	c #E8E8F2",
"F 	c #E1E1ED",
"G 	c #CBCBDE",
"H 	c #AF7628",
"I 	c #EAA226",
"J 	c #DDCBB3",
"K 	c #FCFCFE",
"L 	c #F6F6F9",
"M 	c #ECECF4",
"N 	c #E7E7F1",
"O 	c #E4E4EF",
"P 	c #CACADE",
"Q 	c #AE6E20",
"R 	c #E8991B",
"S 	c #DAC6B0",
"T 	c #FAFAFC",
"U 	c #F3F3F8",
"V 	c #F0F0F6",
"W 	c #EDEDF4",
"X 	c #EAEAF2",
"Y 	c #915820",
"Z 	c #D58614",
"` 	c #D78714",
" .	c #D2BEAB",
"..	c #F9F9FB",
"+.	c #F6F6FA",
"@.	c #CCCCDF",
"#.	c #744426",
"$.	c #B5AFB9",
"%.	c #B9B9CC",
"&.	c #FEFEFF",
"*.	c #CCCCE0",
"=.	c #ACACC5",
"-.	c #E1E1EB",
";.	c #DFDFEA",
">.	c #DCDCE8",
",.	c #D8D8E6",
"'.	c #D4D4E4",
").	c #D0D0E2",
"!.	c #B3B3D0",
"        . + @ # $               ",
"    % & * = = = - ; >           ",
"  , ' ) ! ! ! ! ! ~ { ]         ",
"  ^ / ( _ _ _ _ : < / [         ",
"  } | | | | | | | | 1 2         ",
"  3 4 4 4 4 4 5 6 7 8 9 0       ",
"  a b b b b b c d d e f g h     ",
"  i j k l m n o d d e f p q r   ",
"  s t u v v v w d d e f x y z   ",
"  A B C C C C D d d e f E F G   ",
"  H I I I I I J d K L M N O P   ",
"  Q R R R R R S T U V W X N G   ",
"  Y Z ` ` ` `  ...+.U V W X @.  ",
"    #.#.#.#.#.$.e ..+.U V W @.  ",
"              %.&.e ..+.U V *.  ",
"              =.-.;.>.,.'.).!.  "};
