/* XPM */
static const char *pause_xpm[]={
"50 32 48 1",
"# c None",
". c #000000",
"a c #010101",
"b c #040404",
"c c #090909",
"e c #0b0b0b",
"x c #0c0c0c",
"d c #0d0d0d",
"B c #0e0e0e",
"H c #101010",
"y c #111111",
"l c #151515",
"r c #171717",
"M c #222222",
"R c #242424",
"k c #393939",
"T c #454545",
"Q c #494949",
"S c #4d4d4d",
"j c #515151",
"O c #616161",
"i c #6b6b6b",
"I c #6f6f6f",
"w c #727272",
"P c #7c7c7c",
"s c #888888",
"h c #8a8a8a",
"m c #8b8b8b",
"C c #8d8d8d",
"g c #8e8e8e",
"E c #909090",
"f c #919191",
"z c #949494",
"D c #989898",
"K c #a0a0a0",
"F c #a5a5a5",
"q c #afafaf",
"G c #b3b3b3",
"v c #b4b4b4",
"N c #bcbcbc",
"u c #cbcbcb",
"n c #cecece",
"L c #dcdcdc",
"p c #e1e1e1",
"o c #e3e3e3",
"J c #e6e6e6",
"t c #efefef",
"A c #ffffff",
"..................................................",
".################################################.",
".################################################.",
".################################################.",
".################################################.",
".##############abcddcba##abcddcba################.",
".##############efghijkb##efghijkb################.",
".##############lmnopqjc##lmnopqjc################.",
".##############rstuvwjx##rstuvwjx################.",
".##############yzApvwjB##yzApvwjB################.",
".##############azApvwba##azApvwba################.",
".##############ezApvwkb##ezApvwkb################.",
".##############lzApvwjc##lzApvwjc################.",
".##############rsApvwjx##rzApvwjx################.",
".##############yCApDwjB##yCApDwjB################.",
".##############BEApFwjB##BEApFwjB################.",
".##############BzApGwjB##BzApGwjB################.",
".##############BzApGwjB##BzApGwjB################.",
".##############BzApGwjB##BzApGwjB################.",
".##############BzApGwjB##BzApGwjB################.",
".##############BzApGwjB##BzApGwjB################.",
".##############BzApGwjB##BzApGwjB################.",
".##############HIJpKwj.##HIJLKwj.################.",
".##############MiLNDwj.##MiLNDwj.################.",
".##############aOwPwjQ.##aOwPwjQ.################.",
".##############.RjjjST.##.RjjjST.################.",
".##############........##........################.",
".################################################.",
".################################################.",
".################################################.",
".################################################.",
".................................................."};
