/* XPM */
static const char *persp[]={
"32 32 4 1",
". c #000000",
"a c #777773",
"b c #a0a0a0",
"# c #c3c3c3",
"................................",
".##############################.",
".##############################.",
".##############################.",
".##############aaaaaaaaaa######.",
".#############aa########a######.",
".###########aa#a#######ba######.",
".##########a###a######bba######.",
".########aa####a#####bb#a######.",
".#######a######a####bb##a######.",
".#####aa#######a###bb###a######.",
".###aa#########a##bb####a######.",
".##aaaaaaaaaaaaaaab#####a######.",
".##a###########a#a######a######.",
".##a###########baaaaaaaaa######.",
".##a##########bb#a#####a#######.",
".##a#########bb##a####a########.",
".##a########bb###a####a########.",
".##a#######bb####a###a#########.",
".##a######bb#####a###a#########.",
".##a#####bb######a##a##########.",
".##a####bb#######a##a##########.",
".##a###bb########a#a###########.",
".##a##bb#########a#a###########.",
".##a#bb##########aa############.",
".##abb###########aa############.",
".##ab############a#############.",
".##aaaaaaaaaaaaaaa#############.",
".##############################.",
".##############################.",
".##############################.",
"................................"};
