/* XPM */
static const char *pickbloc[]={
"24 24 89 2",
".# c None",
"Qt c #000000",
".T c #620000",
".Z c #630000",
".L c #6d0000",
".1 c #6e0000",
".5 c #750000",
".Y c #770000",
".S c #800000",
".8 c #850000",
".4 c #860000",
".x c #890000",
"#. c #8a0000",
".W c #8c0000",
".O c #8d0000",
".X c #930000",
".u c #96130c",
"#a c #970000",
".7 c #980000",
"#k c #9a0000",
".G c #9e0200",
"#o c #a90000",
"#d c #aa1313",
"## c #ac0000",
"#f c #ae0000",
".w c #b10000",
".K c #b40000",
".D c #b60000",
".v c #b8110b",
".R c #bd0000",
"#s c #be0000",
"#j c #c10000",
"#h c #c53232",
"#e c #c70a0a",
"#l c #ce4343",
".P c #d20000",
".a c #d31414",
"#n c #d40000",
".f c #d41919",
"#p c #d44e4e",
"#w c #d60000",
"#g c #d93535",
"#c c #d93636",
".b c #da3b3b",
".c c #db3d3d",
".e c #db3f3f",
".d c #db4040",
".A c #dc3928",
".g c #dc4343",
".o c #dc4545",
".l c #dc4646",
".s c #dd4949",
".p c #dd4a4a",
".M c #de4f4f",
".U c #de5151",
".F c #df5151",
".N c #df5353",
".Q c #e00000",
"#t c #e05858",
".6 c #e05c5c",
".3 c #e05d5d",
"#i c #e12020",
"#b c #e16262",
".9 c #e16363",
".k c #e36969",
".h c #e36a6a",
".j c #e36b6b",
".i c #e46c6c",
".n c #e46e6e",
".m c #e46f6f",
".r c #e47474",
".q c #e47575",
".y c #e57676",
".t c #e57878",
".E c #e67b7b",
".z c #e77c7c",
".0 c #e88585",
".2 c #e98686",
".V c #e98787",
"#r c #ec0000",
".J c #ef0000",
"#m c #f22b2b",
".C c #f60100",
".H c #f7190e",
"#v c #fb0000",
".B c #fc523b",
".I c #fe2515",
"#q c #fe3030",
"#u c #ff2c2c",
"QtQtQtQtQtQtQtQtQtQtQtQtQtQtQtQtQtQtQtQtQtQtQtQt",
"Qt.#.#.#.#.#.#.#.#.#.#.#.#.#.#.#.#.#.#.#.#.#.#Qt",
"Qt.#.#.#.#.a.#.#.#.#.#.b.b.#.#.#.#.#.a.#.#.#.#Qt",
"Qt.#.#.#.#.#.#.#.c.#.#.#.#.#.#.c.#.#.#.#.#.#.#Qt",
"Qt.#.#.#.#.#.d.#.#.#.#.#.#.#.#.#.#.e.#.#.#.#.#Qt",
"Qt.#.f.#.#.g.#.#.#.h.i.#.#.j.k.#.#.#.g.#.#.f.#Qt",
"Qt.#.#.#.l.#.#.#.m.#.#.#.#.#.#.n.#.#.#.o.#.#.#Qt",
"Qt.#.#.#.#.#.#.#.#.#.#.#.#.#.#.#.#.#.#.#.#.#.#Qt",
"Qt.#.#.p.#.#.q.#.#.#.#.#.#.#.#.#.#.r.#.#.s.#.#Qt",
"Qt.#.#.#.#.t.#.#.#.#.u.v.w.x.#.#.#.#.y.#.#.#.#Qt",
"Qt.#.#.#.#.z.#.#.#.#.A.B.C.D.#.#.#.#.E.#.#.#.#Qt",
"Qt.#.F.#.#.#.#.#.#.G.H.I.J.K.L.#.#.#.#.#.#.M.#Qt",
"Qt.#.N.#.#.#.#.#.#.O.P.Q.R.S.T.#.#.#.#.#.#.U.#Qt",
"Qt.#.#.#.#.V.#.#.#.#.W.X.Y.Z.#.#.#.#.0.#.#.#.#Qt",
"Qt.#.#.#.#.V.#.#.#.#.#.1.Z.#.#.#.#.#.2.#.#.#.#Qt",
"Qt.#.#.3.#.#.#.#.#.#.#.4.5.#.#.#.#.#.#.#.6.#.#Qt",
"Qt.#.#.#.#.#.#.#.#.#.#.7.8.#.#.#.#.#.#.#.#.#.#Qt",
"Qt.#.#.#.9.#.#.#.#.##.###a.Y.#.#.#.#.##b.#.#.#Qt",
"Qt.##c.#.#.#.#.#.#.##d#e#f.x.#.#.#.#.#.#.##g.#Qt",
"Qt.#.#.#.#.#.#.#.#.##h#i#j#k.#.#.#.#.#.#.#.#.#Qt",
"Qt.#.#.#.#.#.#.#.#.##l#m#n#o.#.#.#.#.#.#.#.#.#Qt",
"Qt.#.#.#.#.#.#.#.#.##p#q#r#s.#.#.#.#.#.#.#.#.#Qt",
"Qt.#.#.#.#.#.#.#.#.##t#u#v#w.#.#.#.#.#.#.#.#.#Qt",
"QtQtQtQtQtQtQtQtQtQtQtQtQtQtQtQtQtQtQtQtQtQtQtQt"};
