/* XPM */
static const char *pickcursor[]={
"33 33 6 1",
". c None",
"# c #808000",
"a c #808080",
"b c #c0c0c0",
"c c #ffff00",
"d c #ffffff",
".................................",
".................................",
".................................",
".............#####...............",
".............#aab#...............",
".............#acb#...............",
".............#acb#...............",
".............#acb#...............",
".............#acb#...............",
".............#acb#...............",
".............#acb#...............",
"............##acb###.............",
"...........#aadcdbb##............",
"..........#add.c.ddb#............",
"...########ad.....db########.....",
"...#aaaaaaad.......dbbbbbbb#.....",
"...#acccccccc.....cccccccdb#.....",
"...#aaaaaaad.......dbbbbbbb#.....",
"...########ad.....db########.....",
"..........#add.c.ddb#............",
"...........#aadcdbb#.............",
"............##acb##..............",
".............#acb#...............",
".............#acb#...............",
".............#acb#...............",
".............#acb#...............",
".............#acb#...............",
".............#aab#...............",
".............#####...............",
".................................",
".................................",
".................................",
"................................."};
