/* XPM */
static const char *pickplay[]={
"50 32 79 2",
".# c None",
"Qt c #000000",
".b c #010101",
".f c #040404",
".d c #050505",
".j c #090909",
".m c #0c0c0c",
".r c #0e0e0e",
".i c #0f0f0f",
".v c #131313",
".l c #171717",
".q c #191919",
".9 c #222222",
".y c #252525",
".Y c #313131",
"#m c #373737",
"#k c #424242",
"#l c #4c4c4c",
"#i c #4e4e4e",
".8 c #515151",
"#f c #545454",
"#b c #565656",
".X c #585858",
"#. c #5b5b5b",
".h c #5d5d5d",
"#j c #5f5f5f",
".c c #606060",
"#g c #666666",
".4 c #686868",
"#h c #6b6b6b",
"#c c #6d6d6d",
".2 c #6f6f6f",
"## c #707070",
"#e c #727272",
".1 c #747474",
".Z c #777777",
".6 c #787878",
".S c #7e7e7e",
".5 c #7f7f7f",
".P c #838383",
".L c #858585",
".N c #868686",
".K c #878787",
".3 c #8d8d8d",
".H c #8e8e8e",
".U c #919191",
".V c #949494",
".I c #959595",
".Q c #989898",
".0 c #9b9b9b",
".F c #9d9d9d",
".g c #9e9e9e",
".B c #a4a4a4",
".W c #a5a5a5",
".T c #a8a8a8",
".D c #a9a9a9",
".E c #aaaaaa",
".z c #acacac",
".k c #b3b3b3",
".R c #b4b4b4",
".w c #b6b6b6",
".O c #b7b7b7",
".7 c #bbbbbb",
"#d c #bcbcbc",
"#a c #bebebe",
".u c #c1c1c1",
".p c #c2c2c2",
".A c #c3c3c3",
".M c #c5c5c5",
".n c #c6c6c6",
".s c #c7c7c7",
".J c #d3d3d3",
".x c #dadada",
".o c #dcdcdc",
".G c #e0e0e0",
".C c #eeeeee",
".t c #efefef",
".a c #ff0000",
".e c #ffc0c0",
"QtQtQtQtQtQtQtQtQtQtQtQtQtQtQtQtQtQtQtQtQtQtQtQtQtQtQtQtQtQtQtQtQtQtQtQtQtQtQtQtQtQtQtQtQtQtQtQtQtQt",
"Qt.#.#.#.#.#.#.#.#.#.#.#.#.#.#.#.#.#.#.#.#.#.#.#.#.#.#.#.#.#.#.#.#.#.#.#.#.#.#.#.#.#.#.#.#.#.#.#.#Qt",
"Qt.#.#.#.#.#.#.#.#.#.#.#.#.#.#.#.#.#.#.#.#.#.#.#.#.#.#.#.#.#.a.a.a.#.#.#.#.#.#.#.#.#.#.#.#.#.#.#.#Qt",
"Qt.#.#.#.#.#.#.#.#.#.#.#.#.#.#.#.#.#QtQt.#.#.#.#.#.#.#.#.#.#.a.a.a.#.#.#.#.#.#.#.#.#.#.#.#.#.#.#.#Qt",
"Qt.#.#.#.#.#.#.#.#.#.#.#.#.#.#.#.#.#.b.c.d.#.#.#.#.#.#.#.#.#.a.e.a.#.#.#.#.#.#.#.#.#.#.#.#.#.#.#.#Qt",
"Qt.#.#.#.#.#.#.#.#.#.#.#.#.#.#.#.#.#.f.g.h.i.#.#.#.#.#.a.a.a.a.e.a.a.a.a.#.#.#.#.#.#.#.#.#.#.#.#.#Qt",
"Qt.#.#.#.#.#.#.#.#.#.#.#.#.#.#.#.#.#.j.k.g.h.l.#.#.#.#.a.a.e.e.e.e.e.a.a.#.#.#.#.#.#.#.#.#.#.#.#.#Qt",
"Qt.#.#.#.#.#.#.#.#.#.#.#.#.#.#.#.#.#.m.n.o.p.h.q.#.#.#.a.a.a.a.e.a.a.a.a.#.#.#.#.#.#.#.#.#.#.#.#.#Qt",
"Qt.#.#.#.#.#.#.#.#.#.#.#.#.#.#.#.#.#.r.s.t.o.u.h.q.#.#.#.#.#.a.e.a.#.#.#.#.#.#.#.#.#.#.#.#.#.#.#.#Qt",
"Qt.#.#.#.#.#.#.#.#.#.#.#.#.#.#.#.#.#.v.w.t.s.x.u.h.q.#.#.#.#.a.a.a.#.#.#.#.#.#.#.#.#.#.#.#.#.#.#.#Qt",
"Qt.#.#.#.#.#.#.#.#.#.#.#.#.#.#.#.#.#.y.z.t.A.p.x.u.h.q.#.#.#.a.a.a.#.#.#.#.#.#.#.#.#.#.#.#.#.#.#.#Qt",
"Qt.#.#.#.#.#.#.#.#.#.#.#.#.#.#.#.#.#Qt.B.C.w.D.E.o.u.h.q.#.#.#.#.#.#.#.#.#.#.#.#.#.#.#.#.#.#.#.#.#Qt",
"Qt.#.#.#.#.#.#.#.#.#.#.#.#.#.#.#.#.#Qt.F.G.D.H.H.D.o.u.h.q.#.#.#.#.#.#.#.#.#.#.#.#.#.#.#.#.#.#.#.#Qt",
"Qt.#.#.#.#.#.#.#.#.#.#.#.#.#.#.#.#.#Qt.I.J.H.K.L.H.D.o.u.h.q.#.#.#.#.#.#.#.#.#.#.#.#.#.#.#.#.#.#.#Qt",
"Qt.#.#.#.#.#.#.#.#.#.#.#.#.#.#.#.#.#Qt.H.M.K.L.L.L.H.D.o.u.h.v.#.#.#.#.#.#.#.#.#.#.#.#.#.#.#.#.#.#Qt",
"Qt.#.#.#.#.#.#.#.#.#.#.#.#.#.#.#.#.#Qt.N.O.L.P.P.L.K.Q.R.o.u.h.j.#.#.#.#.#.#.#.#.#.#.#.#.#.#.#.#.#Qt",
"Qt.#.#.#.#.#.#.#.#.#.#.#.#.#.#.#.#.#Qt.S.T.P.P.P.K.U.V.W.D.X.Y.j.#.#.#.#.#.#.#.#.#.#.#.#.#.#.#.#.#Qt",
"Qt.#.#.#.#.#.#.#.#.#.#.#.#.#.#.#.#.#Qt.Z.0.P.L.K.U.Q.W.1.X.Y.v.#.#.#.#.#.#.#.#.#.#.#.#.#.#.#.#.#.#Qt",
"Qt.#.#.#.#.#.#.#.#.#.#.#.#.#.#.#.#.#Qt.2.3.U.U.U.Q.W.1.X.Y.q.#.#.#.#.#.#.#.#.#.#.#.#.#.#.#.#.#.#.#Qt",
"Qt.#.#.#.#.#.#.#.#.#.#.#.#.#.#.#.#.#Qt.4.5.V.U.0.k.1.X.Y.q.#.#.#.#.#.#.#.#.#.#.#.#.#.#.#.#.#.#.#.#Qt",
"Qt.#.#.#.#.#.#.#.#.#.#.#.#.#.#.#.#.#.Y.c.6.Q.F.7.1.8.Y.q.#.#.#.#.#.#.#.#.#.#.#.#.#.#.#.#.#.#.#.#.#Qt",
"Qt.#.#.#.#.#.#.#.#.#.#.#.#.#.#.#.#.#.9#.##.0#a.1.8.Y.q.#.#.#.#.#.#.#.#.#.#.#.#.#.#.#.#.#.#.#.#.#.#Qt",
"Qt.#.#.#.#.#.#.#.#.#.#.#.#.#.#.#.#.#.v#b#c#d#e.8.Y.q.#.#.#.#.#.#.#.#.#.#.#.#.#.#.#.#.#.#.#.#.#.#.#Qt",
"Qt.#.#.#.#.#.#.#.#.#.#.#.#.#.#.#.#.#.r#f#g#h.8.Y.q.#.#.#.#.#.#.#.#.#.#.#.#.#.#.#.#.#.#.#.#.#.#.#.#Qt",
"Qt.#.#.#.#.#.#.#.#.#.#.#.#.#.#.#.#.#.m#i#j.8.Y.q.#.#.#.#.#.#.#.#.#.#.#.#.#.#.#.#.#.#.#.#.#.#.#.#.#Qt",
"Qt.#.#.#.#.#.#.#.#.#.#.#.#.#.#.#.#.#.j#k#l.Y.l.#.#.#.#.#.#.#.#.#.#.#.#.#.#.#.#.#.#.#.#.#.#.#.#.#.#Qt",
"Qt.#.#.#.#.#.#.#.#.#.#.#.#.#.#.#.#.#.f#m.Y.i.#.#.#.#.#.#.#.#.#.#.#.#.#.#.#.#.#.#.#.#.#.#.#.#.#.#.#Qt",
"Qt.#.#.#.#.#.#.#.#.#.#.#.#.#.#.#.#.#.b.Y.d.#.#.#.#.#.#.#.#.#.#.#.#.#.#.#.#.#.#.#.#.#.#.#.#.#.#.#.#Qt",
"Qt.#.#.#.#.#.#.#.#.#.#.#.#.#.#.#.#.#QtQt.#.#.#.#.#.#.#.#.#.#.#.#.#.#.#.#.#.#.#.#.#.#.#.#.#.#.#.#.#Qt",
"Qt.#.#.#.#.#.#.#.#.#.#.#.#.#.#.#.#.#.#.#.#.#.#.#.#.#.#.#.#.#.#.#.#.#.#.#.#.#.#.#.#.#.#.#.#.#.#.#.#Qt",
"Qt.#.#.#.#.#.#.#.#.#.#.#.#.#.#.#.#.#.#.#.#.#.#.#.#.#.#.#.#.#.#.#.#.#.#.#.#.#.#.#.#.#.#.#.#.#.#.#.#Qt",
"QtQtQtQtQtQtQtQtQtQtQtQtQtQtQtQtQtQtQtQtQtQtQtQtQtQtQtQtQtQtQtQtQtQtQtQtQtQtQtQtQtQtQtQtQtQtQtQtQtQt"};
