/* XPM */
static const char *playstep[]={
"50 32 101 2",
".# c None",
"Qt c #000000",
".a c #010101",
".d c #040404",
".c c #050505",
".h c #090909",
".q c #0b0b0b",
".l c #0c0c0c",
".k c #0d0d0d",
".x c #0e0e0e",
".g c #0f0f0f",
"#q c #101010",
".R c #111111",
".H c #131313",
".B c #151515",
".j c #171717",
".p c #191919",
"#m c #222222",
"#D c #242424",
".O c #252525",
"#d c #313131",
"#I c #373737",
".w c #393939",
"#G c #424242",
"#F c #454545",
"#A c #494949",
"#H c #4c4c4c",
"#E c #4d4d4d",
"#B c #4e4e4e",
".v c #515151",
"#w c #545454",
"#t c #565656",
"#c c #585858",
"#n c #5b5b5b",
".f c #5d5d5d",
"#C c #5f5f5f",
".b c #606060",
"#y c #616161",
"#x c #666666",
"#i c #686868",
".u c #6b6b6b",
"#u c #6d6d6d",
"#h c #6f6f6f",
"#o c #707070",
".N c #727272",
"#g c #747474",
"#e c #777777",
"#k c #787878",
"#z c #7c7c7c",
"#a c #7e7e7e",
"#j c #7f7f7f",
"## c #838383",
".7 c #858585",
".9 c #868686",
".6 c #878787",
".K c #888888",
".t c #8a8a8a",
".C c #8b8b8b",
".S c #8d8d8d",
".s c #8e8e8e",
".Z c #909090",
".r c #919191",
".3 c #949494",
".4 c #959595",
".U c #989898",
"#f c #9b9b9b",
".1 c #9d9d9d",
".e c #9e9e9e",
"#s c #a0a0a0",
".V c #a4a4a4",
".0 c #a5a5a5",
"#b c #a8a8a8",
".X c #a9a9a9",
".Y c #aaaaaa",
".P c #acacac",
".G c #afafaf",
".i c #b3b3b3",
".M c #b4b4b4",
".I c #b6b6b6",
"#. c #b7b7b7",
"#l c #bbbbbb",
"#v c #bcbcbc",
"#p c #bebebe",
".A c #c1c1c1",
".o c #c2c2c2",
".Q c #c3c3c3",
".8 c #c5c5c5",
".m c #c6c6c6",
".y c #c7c7c7",
".L c #cbcbcb",
".D c #cecece",
".5 c #d3d3d3",
".J c #dadada",
".n c #dcdcdc",
".2 c #e0e0e0",
".F c #e1e1e1",
".E c #e3e3e3",
"#r c #e6e6e6",
".W c #eeeeee",
".z c #efefef",
".T c #ffffff",
"QtQtQtQtQtQtQtQtQtQtQtQtQtQtQtQtQtQtQtQtQtQtQtQtQtQtQtQtQtQtQtQtQtQtQtQtQtQtQtQtQtQtQtQtQtQtQtQtQtQt",
"Qt.#.#.#.#.#.#.#.#.#.#.#.#.#.#.#.#.#.#.#.#.#.#.#.#.#.#.#.#.#.#.#.#.#.#.#.#.#.#.#.#.#.#.#.#.#.#.#.#Qt",
"Qt.#.#.#.#.#.#.#.#.#.#.#.#.#.#.#.#.#.#.#.#.#.#.#.#.#.#.#.#.#.#.#.#.#.#.#.#.#.#.#.#.#.#.#.#.#.#.#.#Qt",
"Qt.#.#.#.#.#.#.#.#.#.#.#.#.#QtQt.#.#.#.#.#.#.#.#.#.#.#.#.#.#.#.#.#.#.#.#.#.#.#.#.#.#.#.#.#.#.#.#.#Qt",
"Qt.#.#.#.#.#.#.#.#.#.#.#.#.#.a.b.c.#.#.#.#.#.#.#.#.#.#.#.#.#.#.#.#.#.#.#.#.#.#.#.#.#.#.#.#.#.#.#.#Qt",
"Qt.#.#.#.#.#.#.#.#.#.#.#.#.#.d.e.f.g.#.#.#.#.#.#.#.#.#.#.#.#.#.#.#.#.#.#.#.#.#.#.#.#.#.#.#.#.#.#.#Qt",
"Qt.#.#.#.#.#.#.#.#.#.#.#.#.#.h.i.e.f.j.#.#.#.#.#.#.#.#.#.a.d.h.k.k.h.d.a.#.#.#.#.#.#.#.#.#.#.#.#.#Qt",
"Qt.#.#.#.#.#.#.#.#.#.#.#.#.#.l.m.n.o.f.p.#.#.#.#.#.#.#.#.q.r.s.t.u.v.w.d.#.#.#.#.#.#.#.#.#.#.#.#.#Qt",
"Qt.#.#.#.#.#.#.#.#.#.#.#.#.#.x.y.z.n.A.f.p.#.#.#.#.#.#.#.B.C.D.E.F.G.v.h.#.#.#.#.#.#.#.#.#.#.#.#.#Qt",
"Qt.#.#.#.#.#.#.#.#.#.#.#.#.#.H.I.z.y.J.A.f.p.#.#.#.#.#.#.j.K.z.L.M.N.v.l.#.#.#.#.#.#.#.#.#.#.#.#.#Qt",
"Qt.#.#.#.#.#.#.#.#.#.#.#.#.#.O.P.z.Q.o.J.A.f.p.#.#.#.#.#.R.S.T.F.U.N.v.x.#.#.#.#.#.#.#.#.#.#.#.#.#Qt",
"Qt.#.#.#.#.#.#.#.#.#.#.#.#.#Qt.V.W.I.X.Y.n.A.f.p.#.#.#.#.x.Z.T.F.0.N.v.x.#.#.#.#.#.#.#.#.#.#.#.#.#Qt",
"Qt.#.#.#.#.#.#.#.#.#.#.#.#.#Qt.1.2.X.s.s.X.n.A.f.p.#.#.#.x.3.T.F.i.N.v.x.#.#.#.#.#.#.#.#.#.#.#.#.#Qt",
"Qt.#.#.#.#.#.#.#.#.#.#.#.#.#Qt.4.5.s.6.7.s.X.n.A.f.p.#.#.x.Z.T.F.0.N.v.x.#.#.#.#.#.#.#.#.#.#.#.#.#Qt",
"Qt.#.#.#.#.#.#.#.#.#.#.#.#.#Qt.s.8.6.7.7.7.s.X.n.A.f.H.#.x.3.T.F.i.N.v.x.#.#.#.#.#.#.#.#.#.#.#.#.#Qt",
"Qt.#.#.#.#.#.#.#.#.#.#.#.#.#Qt.9#..7####.7.6.U.M.n.A.f.h.x.3.T.F.i.N.v.x.#.#.#.#.#.#.#.#.#.#.#.#.#Qt",
"Qt.#.#.#.#.#.#.#.#.#.#.#.#.#Qt#a#b######.6.r.3.0.X#c#d.h.x.3.T.F.i.N.v.x.#.#.#.#.#.#.#.#.#.#.#.#.#Qt",
"Qt.#.#.#.#.#.#.#.#.#.#.#.#.#Qt#e#f##.7.6.r.U.0#g#c#d.H.#.x.3.T.F.i.N.v.x.#.#.#.#.#.#.#.#.#.#.#.#.#Qt",
"Qt.#.#.#.#.#.#.#.#.#.#.#.#.#Qt#h.S.r.r.r.U.0#g#c#d.p.#.#.x.3.T.F.i.N.v.x.#.#.#.#.#.#.#.#.#.#.#.#.#Qt",
"Qt.#.#.#.#.#.#.#.#.#.#.#.#.#Qt#i#j.3.r#f.i#g#c#d.p.#.#.#.x.3.T.F.i.N.v.x.#.#.#.#.#.#.#.#.#.#.#.#.#Qt",
"Qt.#.#.#.#.#.#.#.#.#.#.#.#.##d.b#k.U.1#l#g.v#d.p.#.#.#.#.x.3.T.F.i.N.v.x.#.#.#.#.#.#.#.#.#.#.#.#.#Qt",
"Qt.#.#.#.#.#.#.#.#.#.#.#.#.##m#n#o#f#p#g.v#d.p.#.#.#.#.##q#h#r.n#s.N.vQt.#.#.#.#.#.#.#.#.#.#.#.#.#Qt",
"Qt.#.#.#.#.#.#.#.#.#.#.#.#.#.H#t#u#v.N.v#d.p.#.#.#.#.#.##m.u.n#v.U.N.vQt.#.#.#.#.#.#.#.#.#.#.#.#.#Qt",
"Qt.#.#.#.#.#.#.#.#.#.#.#.#.#.x#w#x.u.v#d.p.#.#.#.#.#.#.#.a#y.N#z.N.v#AQt.#.#.#.#.#.#.#.#.#.#.#.#.#Qt",
"Qt.#.#.#.#.#.#.#.#.#.#.#.#.#.l#B#C.v#d.p.#.#.#.#.#.#.#.#Qt#D.v.v.v#E#FQt.#.#.#.#.#.#.#.#.#.#.#.#.#Qt",
"Qt.#.#.#.#.#.#.#.#.#.#.#.#.#.h#G#H#d.j.#.#.#.#.#.#.#.#.#QtQtQtQtQtQtQtQt.#.#.#.#.#.#.#.#.#.#.#.#.#Qt",
"Qt.#.#.#.#.#.#.#.#.#.#.#.#.#.d#I#d.g.#.#.#.#.#.#.#.#.#.#.#.#.#.#.#.#.#.#.#.#.#.#.#.#.#.#.#.#.#.#.#Qt",
"Qt.#.#.#.#.#.#.#.#.#.#.#.#.#.a#d.c.#.#.#.#.#.#.#.#.#.#.#.#.#.#.#.#.#.#.#.#.#.#.#.#.#.#.#.#.#.#.#.#Qt",
"Qt.#.#.#.#.#.#.#.#.#.#.#.#.#QtQt.#.#.#.#.#.#.#.#.#.#.#.#.#.#.#.#.#.#.#.#.#.#.#.#.#.#.#.#.#.#.#.#.#Qt",
"Qt.#.#.#.#.#.#.#.#.#.#.#.#.#.#.#.#.#.#.#.#.#.#.#.#.#.#.#.#.#.#.#.#.#.#.#.#.#.#.#.#.#.#.#.#.#.#.#.#Qt",
"Qt.#.#.#.#.#.#.#.#.#.#.#.#.#.#.#.#.#.#.#.#.#.#.#.#.#.#.#.#.#.#.#.#.#.#.#.#.#.#.#.#.#.#.#.#.#.#.#.#Qt",
"QtQtQtQtQtQtQtQtQtQtQtQtQtQtQtQtQtQtQtQtQtQtQtQtQtQtQtQtQtQtQtQtQtQtQtQtQtQtQtQtQtQtQtQtQtQtQtQtQtQt"};
