/* XPM */
static const char * quit_xpm[] = {
"25 25 3 1",
" 	c None",
".	c #FFFFFF",
"+	c #FF0000",
"                         ",
"                         ",
"                         ",
"                         ",
"                         ",
"                         ",
"                         ",
"                         ",
"     +++        +        ",
"    +++++       + ++     ",
"   ++   ++++ .+ +++++    ",
"   ++   ++++ .+ + ++     ",
"   ++  +++++ .+ + ++     ",
"    +   ++.+.++ + ++     ",
"         +               ",
"                         ",
"                         ",
"                         ",
"                         ",
"                         ",
"                         ",
"                         ",
"                         ",
"                         ",
"                         "};
