/* XPM */
static char * reload_xpm[] = {
"16 16 116 2",
"  	c None",
". 	c #3268CD",
"+ 	c #3268CC",
"@ 	c #326AD2",
"# 	c #326CD6",
"$ 	c #3472E5",
"% 	c #5183E0",
"& 	c #5B88DC",
"* 	c #3472E4",
"= 	c #326AD3",
"- 	c #4980E6",
"; 	c #A8C2F5",
"> 	c #E4EBF8",
", 	c #F2F5FB",
"' 	c #EBF0FA",
") 	c #B9CCF0",
"! 	c #5789E4",
"~ 	c #3268CE",
"{ 	c #6494EC",
"] 	c #D4E0F4",
"^ 	c #E1E9F8",
"/ 	c #D8E2F2",
"( 	c #CBD5E9",
"_ 	c #D6E0F2",
": 	c #DEE7F7",
"< 	c #DCE6F6",
"[ 	c #799FE5",
"} 	c #3269CF",
"| 	c #C4D4F1",
"1 	c #CDDAF4",
"2 	c #CAD4E6",
"3 	c #E5E8EF",
"4 	c #FFFFFF",
"5 	c #EEF0F4",
"6 	c #D4DEF2",
"7 	c #CBD9F3",
"8 	c #5A8AE3",
"9 	c #3268CA",
"0 	c #90B1EC",
"a 	c #B8CCEE",
"b 	c #C9D3E5",
"c 	c #D9E4F6",
"d 	c #B7CAEE",
"e 	c #97B3E4",
"f 	c #3873E0",
"g 	c #A1BAE9",
"h 	c #A3B9E1",
"i 	c #FDFEFE",
"j 	c #9AB5E7",
"k 	c #A4BCE9",
"l 	c #9CB6E8",
"m 	c #A3BCEA",
"n 	c #CEDAF3",
"o 	c #7AA6F8",
"p 	c #3B80FF",
"q 	c #3471E3",
"r 	c #3264C1",
"s 	c #4A7FE2",
"t 	c #8CACE5",
"u 	c #B2C5E8",
"v 	c #CEDCF4",
"w 	c #92AFE6",
"x 	c #A3B7DD",
"y 	c #C6D3EC",
"z 	c #9DC0FF",
"A 	c #3676EB",
"B 	c #3266C8",
"C 	c #447CE5",
"D 	c #6E99E8",
"E 	c #A5BEED",
"F 	c #B1CAF8",
"G 	c #4F8AF6",
"H 	c #8AACEA",
"I 	c #9ABEFE",
"J 	c #3C81FF",
"K 	c #3776EB",
"L 	c #3572E4",
"M 	c #4686FC",
"N 	c #6C9BF0",
"O 	c #F6F8FC",
"P 	c #699CFA",
"Q 	c #5891FA",
"R 	c #EDF0F7",
"S 	c #83ACF8",
"T 	c #4083FF",
"U 	c #3264C0",
"V 	c #326BD4",
"W 	c #4887FC",
"X 	c #4888FC",
"Y 	c #BAD0F8",
"Z 	c #E9ECF1",
"` 	c #719FF3",
" .	c #4A80E4",
"..	c #6696EE",
"+.	c #B4CAF2",
"@.	c #F7F9FD",
"#.	c #FAFBFE",
"$.	c #C2D4F5",
"%.	c #E4ECFA",
"&.	c #6C98EB",
"*.	c #3265C5",
"=.	c #346ACE",
"-.	c #6C94E0",
";.	c #7EA3E6",
">.	c #84A6E6",
",.	c #7CA1E5",
"'.	c #81A5E6",
").	c #3468C9",
"!.	c #356BCD",
"~.	c #658EDB",
"{.	c #8DACE7",
"].	c #8EADE8",
"^.	c #3D70CF",
"/.	c #5E88D5",
"(.	c #6E95DC",
"_.	c #3D70CE",
"              . +               ",
"        @ # $ % & * = +         ",
"      = - ; > , , ' ) ! ~       ",
"    = { ] ^ / ( _ : ^ < [ .     ",
"  } - | 1 2 3 4 5 6 1 1 7 8 9   ",
"  = 0 a b 4 4 4 4 c a a d e @   ",
"  f g h 4 i d j k l m n o p q r ",
"+ s t u 4 v w w x y 4 4 z p A B ",
"+ C D E 4 F G H 4 4 4 4 I J K B ",
"  L M N 4 O P Q R 4 4 4 S T * U ",
"  V W X Y 4 4 Z 4 4 4 4 ` W =   ",
"  +  .....+.@.4 #.$.%.@.&. .*.  ",
"    =.-.;.;.;.>.;.;.,.'.-.).    ",
"      !.~.{.].].].].{.~.).      ",
"        9 ^./.(.(./._.*.        ",
"            r B B U             "};
