/* XPM */
static const char *resetview[]={
"32 32 4 1",
". c #000000",
"a c #828282",
"# c #c3c3c3",
"b c #ffff00",
"................................",
".##############################.",
".##############################.",
".#################.############.",
".################...###########.",
".################...###########.",
".#################.#######aa###.",
".#################.####....####.",
".#################.###....#####.",
".#################.a..a#.######.",
".#################..a##########.",
".#################.############.",
".##################..###a######.",
".####################....a#####.",
".#########bb###########...a####.",
".########b##b#########.....####.",
".#######b####b#################.",
".#######b####b#################.",
".#######b####b#################.",
".#######b####b#################.",
".#######b####b#################.",
".########b##b##################.",
".#########bb###################.",
".##############################.",
".##############################.",
".##############################.",
".##############################.",
".##############################.",
".##############################.",
".##############################.",
".##############################.",
"................................"};
