/* XPM */
static const char *rewindxpm[]={
"50 32 59 1",
"# c None",
". c #000000",
"Z c #010101",
"L c #020202",
"P c #040404",
"4 c #262626",
"3 c #292929",
"1 c #2a2a2a",
"G c #2b2b2b",
"M c #2c2c2c",
"Q c #2d2d2d",
"Y c #2e2e2e",
"0 c #303030",
"2 c #353535",
"R c #4a4a4a",
"a c #4f4f4f",
"c c #515151",
"f c #5c5c5c",
"g c #5d5d5d",
"s c #5e5e5e",
"d c #606060",
"N c #616161",
"b c #666666",
"X c #707070",
"I c #767676",
"W c #7a7a7a",
"J c #808080",
"U c #818181",
"r c #838383",
"C c #848484",
"A c #858585",
"y c #878787",
"B c #8d8d8d",
"v c #8e8e8e",
"F c #919191",
"O c #929292",
"T c #949494",
"K c #969696",
"H c #979797",
"E c #989898",
"n c #999999",
"z c #9a9a9a",
"q c #a5a5a5",
"u c #a9a9a9",
"S c #ababab",
"D c #b4b4b4",
"k c #b7b7b7",
"V c #b8b8b8",
"p c #b9b9b9",
"m c #bababa",
"x c #bdbdbd",
"i c #cfcfcf",
"e c #d4d4d4",
"t c #eeeeee",
"l c #efefef",
"j c #f0f0f0",
"h c #fafafa",
"w c #fdfdfd",
"o c #fefefe",
"..................................................",
".################################################.",
".################################################.",
".#####################..############..###########.",
".####################.a.###########.a.###########.",
".###################.bc.##########.bc.###########.",
".##################.def.#########.def.###########.",
".#################.ghif.########.ghif.###########.",
".################.ghjkf.#######.ghjkf.###########.",
".###############.ghlmnf.######.ghlmnf.###########.",
".##############.golpqrf.#####.golpqrf.###########.",
".#############.sotpuvrf.####.sotpuvrf.###########.",
".############.gwtxuvyrf.###.gwtxuvyrf.###########.",
".###########.dhtxuzyABf.##.dhtxuzyABf.###########.",
".##########.dhlpuzyrCBf.#.dhlpuzyrCBf.###########.",
".#########.shlpDEyrrrFf..shlpDEyrrrFf.###########.",
".#########.GHIJEFByrrKf..GHIJEFByrrKf.###########.",
".##########LMNIJqOFBBKf.#LMNIJqOFBBKf.###########.",
".###########PQRIrSETFTf.##PQRIrSETFTf.###########.",
".############PQRIUVEEKf.###PQRIUVEEKf.###########.",
".#############PQRIJVEKf.####PQRIJVEKf.###########.",
".##############PQRIWVKf.#####PQRIWVKf.###########.",
".###############PQRXWVfL######PQRXWVfL###########.",
".################PYRfbf.#######PYRfbf.###########.",
".#################Z0Rff.########Z0Rff.###########.",
".##################.1R2.#########.1R2.###########.",
".###################.13.##########.13.###########.",
".####################.4.###########.4.###########.",
".#####################..############..###########.",
".################################################.",
".################################################.",
".................................................."};
