/* XPM */
static const char *rightView[]={
"32 32 6 1",
". c #000000",
"a c #3b3b39",
"b c #777773",
"c c #b2b2ac",
"# c #c3c3c3",
"d c #ffff00",
"................................",
".##############################.",
".##############################.",
".###########abbbbbbbbbbbbbab###.",
".##########bb############ccb###.",
".#########b#b###########ccdb###.",
".########b##b##########ccddb###.",
".#######b###b#########ccdddb###.",
".######b####b########ccddddb###.",
".#####b#####b#######ccdddddb###.",
".####b######b######ccddddddb###.",
".###b#######b#####ccdddddddb###.",
".##abbbbbbbbabbbbbcddddddddb###.",
".##b########b####bdddddddddb###.",
".##b########b####bdddddddddb###.",
".##b########b####bdddddddddb###.",
".##b########b####bdddddddddb###.",
".##b########bbbbbadddddddddb###.",
".##b#######cc####bddddddddb####.",
".##b######cc#####bdddddddb#####.",
".##b#####cc######bddddddb######.",
".##b####cc#######bdddddb#######.",
".##b###cc########bddddb########.",
".##b##cc#########bdddb#########.",
".##b#cc##########bddb##########.",
".##bcc###########bdb###########.",
".##ac############bb############.",
".##bbbbbbbbbbbbbbb#############.",
".##############################.",
".##############################.",
".##############################.",
"................................"};
