/* XPM */
static const char *rotatecursor[]={
"33 33 5 1",
". c None",
"a c #000000",
"# c #808080",
"c c #c0c0c0",
"b c #ffffff",
".................................",
".................................",
".................................",
"...........######a...............",
"..........#bbbcabca..............",
"........#####abcabca.............",
".......#bbbbbcabcabca............",
".........bbbbbcabcacaa...........",
".........aaaabbcacacaca..........",
".............#bcacacaca..........",
".......#a....#bcacacaca..........",
"......#bba....bcacbbbca..........",
"......#bbbaa##bcbbbbbca..........",
".......#bbbbbbbbbbbbbca..........",
".......#bbbbbbbbbbbbbca..........",
"........#bbbbbbbbbbbbca..........",
"........#bbbbbbbbbbbbca..........",
".........#bbbbbbbbbbbca..........",
"..........#bbbbbbbbbbca..........",
"...........#bbbbbbbbbca..........",
"............#bbbbbbbbaaaa........",
".............#bbbbbba####a.......",
"..............#bbbba######a......",
"...............#bba########......",
"................#ac#######.......",
".................acc#####........",
".................accc###.........",
".................acccc#..........",
"..................accc...........",
"...................ac............",
".................................",
".................................",
"................................."};
