/* XPM */
static const char * searchbloc[] = {
"24 24 251 2",
"  	c None",
". 	c #000000",
"+ 	c #265B91",
"@ 	c #427AB2",
"# 	c #003366",
"$ 	c #93B9DE",
"% 	c #CDDCEC",
"& 	c #D0DEEC",
"* 	c #CFDDEC",
"= 	c #CEDDEC",
"- 	c #CCDCEC",
"; 	c #CBDCEC",
"> 	c #CADBEC",
", 	c #C7D9EC",
"' 	c #8CB5DE",
") 	c #002448",
"! 	c #D1E8FF",
"~ 	c #FFFFFF",
"{ 	c #FEFFFF",
"] 	c #FDFEFF",
"^ 	c #FCFDFF",
"/ 	c #FAFDFF",
"( 	c #F9FCFF",
"_ 	c #F8FBFF",
": 	c #F6FBFF",
"< 	c #F5FAFF",
"[ 	c #CAE5FF",
"} 	c #002040",
"| 	c #FBFDFF",
"1 	c #F7FBFF",
"2 	c #F3F9FF",
"3 	c #C9E4FF",
"4 	c #F4F9FF",
"5 	c #F2F8FF",
"6 	c #EDEFF1",
"7 	c #E7EAEC",
"8 	c #EAEDF1",
"9 	c #F0F7FF",
"0 	c #C7E3FF",
"a 	c #FCFCFD",
"b 	c #E3E4E5",
"c 	c #C7C8C9",
"d 	c #A9B2BB",
"e 	c #94A1AF",
"f 	c #A7B0BA",
"g 	c #C3C6C9",
"h 	c #DBE0E5",
"i 	c #F0F7FD",
"j 	c #EFF7FF",
"k 	c #EBF5FF",
"l 	c #B4D9FF",
"m 	c #DEDFE0",
"n 	c #A0AAB4",
"o 	c #94AFCA",
"p 	c #A7C2DE",
"q 	c #A9C3DE",
"r 	c #A4C0DD",
"s 	c #8CA7C4",
"t 	c #95A0AB",
"u 	c #C3CAD0",
"v 	c #E7F3FF",
"w 	c #E4F1FF",
"x 	c #A0CFFF",
"y 	c #8895A1",
"z 	c #B5CEE7",
"A 	c #F2F7FC",
"B 	c #EAF0F8",
"C 	c #A4C0DF",
"D 	c #8492A1",
"E 	c #CEDAE6",
"F 	c #E0EFFF",
"G 	c #9ECEFF",
"H 	c #A8A9AA",
"I 	c #9DBCDD",
"J 	c #EEF5FB",
"K 	c #FFDFDF",
"L 	c #FF8080",
"M 	c #F6D8DB",
"N 	c #E0E6F1",
"O 	c #C7D5EA",
"P 	c #93B2D3",
"Q 	c #9CA3AA",
"R 	c #DEEEFF",
"S 	c #9DCEFF",
"T 	c #EDEFF0",
"U 	c #A9ADB0",
"V 	c #B0CFEE",
"W 	c #FFBFBF",
"X 	c #FF0000",
"Y 	c #E8ADB5",
"Z 	c #D9E0EE",
"` 	c #D3DCEB",
" .	c #9CBBE1",
"..	c #969DA5",
"+.	c #CBDBEC",
"@.	c #9BCDFF",
"#.	c #001F40",
"$.	c #E1E3E6",
"%.	c #91A5B8",
"&.	c #CFE2F5",
"*.	c #FF4040",
"=.	c #F4373B",
"-.	c #D3DCEC",
";.	c #A7C2E4",
">.	c #8198AF",
",.	c #C4D4E6",
"'.	c #9ACCFF",
").	c #D0E7FF",
"!.	c #E2E5E8",
"~.	c #A2ACB6",
"{.	c #C3DBF3",
"].	c #FEFEFE",
"^.	c #F99A9D",
"/.	c #F85A5D",
"(.	c #F3565A",
"_.	c #E78C95",
":.	c #9EBDE3",
"<.	c #8D9DAD",
"[.	c #C4D6E8",
"}.	c #98CBFF",
"|.	c #CFE7FF",
"1.	c #EFF3F7",
"2.	c #A6A7A9",
"3.	c #A6C6E7",
"4.	c #F9FAFC",
"5.	c #F2F4FA",
"6.	c #F1B4B9",
"7.	c #E7ACB5",
"8.	c #86AEDB",
"9.	c #8E949B",
"0.	c #CEE3F7",
"a.	c #97CAFF",
"b.	c #C8E3FF",
"c.	c #F8FCFF",
"d.	c #F7FAFF",
"e.	c #ADB3BA",
"f.	c #93A8BD",
"g.	c #BBD3ED",
"h.	c #EDF1F8",
"i.	c #EBEFF6",
"j.	c #E5EAF4",
"k.	c #D4DDED",
"l.	c #A7C2E1",
"m.	c #889DB2",
"n.	c #9AA9B7",
"o.	c #95CAFF",
"p.	c #B0D7FF",
"q.	c #EEF6FF",
"r.	c #ECF5FF",
"s.	c #E5EEF9",
"t.	c #8F98A2",
"u.	c #8CA2B8",
"v.	c #B2C9E3",
"w.	c #C2D7EF",
"x.	c #C9D9EF",
"y.	c #B9D0EB",
"z.	c #A1BDDC",
"A.	c #7890A9",
"B.	c #51555A",
"C.	c #C1BCC3",
"D.	c #CDDFF3",
"E.	c #93C9FF",
"F.	c #ABD5FF",
"G.	c #F1F8FF",
"H.	c #EFF6FF",
"I.	c #EAF4FF",
"J.	c #E8F3FF",
"K.	c #D2DDE9",
"L.	c #9CA4AD",
"M.	c #7F8A96",
"N.	c #8E9CAB",
"O.	c #819BB6",
"P.	c #8C9BAA",
"Q.	c #798693",
"R.	c #828E9A",
"S.	c #846146",
"T.	c #E7B162",
"U.	c #CEBAA5",
"V.	c #90C2F6",
"W.	c #A9D4FF",
"X.	c #E9F4FF",
"Y.	c #E5F2FF",
"Z.	c #E2F0FF",
"`.	c #DDECFB",
" +	c #CDDBEB",
".+	c #A8B5C3",
"++	c #A1AFBB",
"@+	c #A5B4C3",
"#+	c #C3D6EB",
"$+	c #CEE4FA",
"%+	c #BC9781",
"&+	c #F3B252",
"*+	c #F1B24F",
"=+	c #A29E96",
"-+	c #09203A",
";+	c #A8D3FF",
">+	c #E3F1FF",
",+	c #DCEDFF",
"'+	c #D9EBFF",
")+	c #D7EBFF",
"!+	c #D4EAFF",
"~+	c #D2E8FF",
"{+	c #BFCDDF",
"]+	c #BE916D",
"^+	c #EFAC4D",
"/+	c #EEAF4B",
"(+	c #724C2B",
"_+	c #391300",
":+	c #A6D2FF",
"<+	c #E1F0FF",
"[+	c #DBEDFF",
"}+	c #DAECFF",
"|+	c #CDE6FF",
"1+	c #CAE4FE",
"2+	c #BAC4D3",
"3+	c #BD906C",
"4+	c #F3AF4C",
"5+	c #E9A33D",
"6+	c #B15B1A",
"7+	c #1F0A00",
"8+	c #5A9BDC",
"9+	c #92BFEC",
"0+	c #91BEEC",
"a+	c #8FBEEC",
"b+	c #8EBDEC",
"c+	c #8DBCEC",
"d+	c #8CBBEC",
"e+	c #8ABBEC",
"f+	c #89BAEC",
"g+	c #87B9EC",
"h+	c #86B9EC",
"i+	c #85B8EC",
"j+	c #83B8EC",
"k+	c #82B7EC",
"l+	c #81B6EC",
"m+	c #7FB5EB",
"n+	c #729ECC",
"o+	c #937C6B",
"p+	c #F8B34C",
"q+	c #F2AD44",
"r+	c #392811",
"s+	c #062645",
"t+	c #0D3359",
"u+	c #0C3358",
"v+	c #112034",
"w+	c #A56831",
"x+	c #DF9948",
"y+	c #372613",
"z+	c #1A0C04",
"A+	c #301D0E",
"B+	c #0B0703",
". . . . . . . . . . . . . . . . . . . . . . . . ",
".     + @ @ @ @ @ @ @ @ @ @ @ @ @ @ @ @ +     . ",
".   # $ % & & & & & & & & * = % - ; > , ' )   . ",
".   # ! ~ ~ ~ ~ ~ ~ ~ ~ { ] ^ / ( _ : < [ } . . ",
".   # ! ~ ~ ~ ~ ~ ~ ~ ~ ] ^ | ( _ 1 < 2 3 } . . ",
".   # ! ~ ~ ~ ~ ~ ~ ~ ] ^ | ( _ 1 < 4 5 3 } . . ",
".   # ! ~ ~ ~ ~ ~ ~ ] ^ 6 7 8 : < 4 5 9 0 } . . ",
".   # ! ~ ~ ~ ~ ~ a b c d e f g h i j k l } . . ",
".   # ! ~ ~ ~ ~ ] m n o p q r s t u v w x } . . ",
".   # ! ~ ~ ~ ] b y z A ~ ~ ~ B C D E F G } . . ",
".   # ! ~ ~ ] ^ H I J ~ K L M N O P Q R S } . . ",
".   # ! ~ ] ^ T U V ~ ~ W X Y Z `  ...+.@.#.. . ",
".   # ! ] ^ / $.%.&.~ *.X X X =.-.;.>.,.'.} . . ",
".   # ).^ | ( !.~.{.].^./.X (._.-.:.<.[.}.} . . ",
".   # |.| ( _ 1.2.3.4.5.6.X 7.Z -.8.9.0.a.} . . ",
".   # b.c.d.4 9 e.f.g.h.i.j.N k.l.m.n.! o.} . . ",
".   # p.4 5 q.r.s.t.u.v.w.x.y.z.A.B.C.D.E.} . . ",
".   # F.G.H.r.I.J.K.L.M.N.O.P.Q.R.S.T.U.V.#.. . ",
".   # W.q.r.X.J.Y.Z.`. +.+++@+#+$+%+&+*+=+-+. . ",
".   # ;+r.I.J.Y.>+F R ,+'+)+!+~+|.{+]+^+/+(+_+. ",
".   # :+I.J.Y.>+<+R [+}+)+!+~+|.|+1+2+3+4+5+6+7+",
".   # 8+9+0+a+b+c+d+e+f+g+h+i+j+k+l+m+n+o+p+q+r+",
".     s+t+t+t+t+t+t+t+t+t+t+t+t+t+t+t+u+v+w+x+y+",
". . . . . . . . . . . . . . . . . . . . . z+A+B+"};
