/* XPM */
static const char * snapshot_xpm[] = {
"32 32 6 1",
" 	c None",
".	c #000000",
"+	c #808080",
"@	c #C0C0C0",
"#	c #FFFFFF",
"$	c #3F3F3F",
"                                ",
"                                ",
"                                ",
"               ....             ",
"              .   +.            ",
"       ..+   .@@@@.+.  ....+    ",
"     ..#+....@@@@@@....###+...  ",
"    .@...+@@........+@.....+@@. ",
"   .########################@+. ",
"  . @@@@@@@@@@@@@@@@@@@@@@@@++. ",
"  . @@@@@@@@@.....@@@@@@@@@@++. ",
"  . @@@@@@@..@@@@#.@@@@@@@@@+.. ",
"  .........+#####.............. ",
"  .$$$$$$$.@@@@@##$$$$$$$$$$.@. ",
"  .$$$$$$@@.....@@$$$$$$$$$$.@. ",
"  .$$$$$@+.+++++.+@.$$$$$$$$.@. ",
"  .$$$$$@.++@#@++.+$$$$$$$$$.@. ",
"  .$$$$@.++@#+++++.@.$$$$$$$.@. ",
"  .$$$$@.++#@+++++.@.$$$$$$$.@. ",
"  .$$$$@.++#++++++.@.$$$$$$$.@. ",
"  .$$$$@.++@++++++.@.$$$$$$$.@. ",
"  .$$$$@.+++++++++.@.$$$$$$$.@. ",
"  .$$$$$@.+++++++.@.$$$$$$$$$.. ",
"  .$$$$$@+.+++++.+.$$$$$$$$$$.  ",
"   .$$$$$@@.....@@$$$$$$$$$$.   ",
"    ......+@@@@@+...........    ",
"          +.....+               ",
"                                ",
"                                ",
"                                ",
"                                ",
"                                "};
