/* XPM */
static const char *stl[]={
"32 32 3 1",
". c #000000",
"# c #c3c3c3",
"a c #ff0000",
"................................",
".##############################.",
".##############################.",
".##############################.",
".##############################.",
".##############################.",
".###aaaaaa##aa##########aaaaaa#.",
".###aaaaaa##aa##########aaaaaa#.",
".#aa######aaaa############aa###.",
".#aa######aaaa############aa###.",
".#aa########aa####aa######aa###.",
".#aa########aa####aa######aa###.",
".###aaaa########aaaaaaaa##aa###.",
".###aaaa########aaaaaaaa##aa###.",
".#####aaaaaa######aa######aa###.",
".#####aaaaaa######aa######aa###.",
".#########aaaa####aa######aa###.",
".#########aaaa####aa######aa###.",
".#aa########aa####aa######aa###.",
".#aa########aa####aa######aa###.",
".#aaaa####aaaa####aa######aa###.",
".#aaaa####aaaa####aa######aa###.",
".#aa##aaaaaa########aaaaaaaaaaa.",
".#aa##aaaaaa########aaaaaaaaaaa.",
".##############################.",
".##############################.",
".##############################.",
".##############################.",
".##############################.",
".##############################.",
".##############################.",
"................................"};
