/* XPM */
static const char *stop[]={
"50 32 207 2",
".# c None",
"Qt c #000000",
"#U c #250100",
"#8 c #3f0100",
".9 c #3f0200",
".S c #400200",
"#7 c #580200",
"bl c #590200",
".B c #5e2a21",
"#T c #610200",
"bi c #620200",
"bg c #630200",
"ad c #660200",
"bm c #670200",
"aj c #6b0200",
"ap c #6c0200",
"bk c #7a0200",
".R c #7b0301",
"#o c #7c0300",
"#6 c #7d0200",
".8 c #7d0300",
"bf c #830300",
".A c #886158",
"ac c #8b0300",
"a2 c #8f0300",
"ai c #900300",
"bb c #930300",
"bh c #940300",
"be c #950300",
"bd c #980401",
"a9 c #9a7268",
"#G c #9c0400",
"#n c #9d0400",
".7 c #9d0401",
"bc c #9e3c34",
".Q c #b04e44",
".P c #b14f45",
"#5 c #b80601",
"#F c #b80701",
"bj c #b90601",
"#E c #b90701",
"#m c #b90702",
"#l c #b90902",
".m c #bb4239",
".6 c #bb6158",
".l c #bc4339",
"#D c #bd2717",
"#S c #bd2719",
".k c #bd443a",
".j c #bd453b",
".i c #bf463c",
".h c #c0473d",
"aJ c #c13f36",
"ba c #c14238",
".g c #c1483e",
"aU c #c24036",
"a8 c #c24237",
".f c #c24940",
"#C c #c3443a",
"b# c #c3473c",
".e c #c34a41",
"#J c #c3c3c3",
"a5 c #c4433a",
"aA c #c4463c",
"b. c #c44a3f",
"av c #c44a40",
"ao c #c44b41",
".d c #c44b42",
"a4 c #c4726a",
"aP c #c54b40",
"#k c #c54b41",
"a7 c #c54c40",
".c c #c54c43",
".O c #c5736a",
".b c #c64d43",
"aI c #c65146",
"a6 c #c65246",
".a c #c74e44",
"az c #c7554b",
"aO c #c7564b",
"au c #c7574c",
".n c #c84f46",
"#B c #c85548",
"aH c #c85a50",
".C c #c95047",
"aZ c #c95648",
"a1 c #c95d52",
".5 c #c97069",
".T c #ca5147",
"#j c #ca574c",
"a0 c #ca5a4d",
"#R c #ca5a4f",
"ay c #ca5e52",
"aG c #ca6058",
"aX c #ca6059",
"aV c #cb5d54",
".4 c #cb716a",
".z c #cbbcb6",
"#A c #cc5d54",
".3 c #cc726b",
"#i c #cd5f55",
".2 c #cd736d",
"aQ c #ce5f54",
"#Q c #ce6158",
"#4 c #ce635c",
"aR c #cf635a",
"#z c #cf635c",
"aW c #cf6963",
".1 c #cf746f",
"#h c #d1655a",
"aK c #d1655b",
"ab c #d1655f",
"#P c #d1685f",
"aS c #d16860",
"#y c #d16961",
"aT c #d16963",
"#3 c #d16a63",
"#a c #d17169",
"aB c #d1766f",
"#g c #d26860",
"aC c #d26861",
"#q c #d27269",
".0 c #d27771",
"ah c #d36962",
"#f c #d46c65",
"aL c #d46c67",
"#O c #d46d66",
"aD c #d46e66",
"#x c #d46e67",
".Z c #d47973",
"aw c #d56c65",
"aM c #d57069",
"#2 c #d5706a",
".Y c #d57974",
".X c #d67a75",
"an c #d76c66",
"aq c #d76f68",
"#e c #d76f69",
"aN c #d7726d",
"aa c #d7736d",
"#w c #d8726b",
"#N c #d8726c",
".V c #d88e87",
"ak c #d9706a",
"#d c #d9716a",
"#9 c #da706a",
"ae c #da726a",
"#c c #da726b",
"ar c #da756f",
"#1 c #da7670",
"af c #db6f69",
"#b c #db706a",
"#v c #db756f",
"#M c #db7670",
"aY c #db9189",
"#s c #dc6f6a",
"#r c #dc746d",
"#X c #dc746e",
"a# c #dc7973",
".N c #dc928a",
"a3 c #dcccc7",
"## c #dd9088",
"#p c #dd9089",
".M c #dd938c",
"#I c #de716b",
"#u c #de7670",
"al c #de7671",
"aE c #de7973",
"aF c #de7a75",
"ag c #de7b75",
"#Y c #df726c",
"#H c #df766f",
"#t c #df7671",
"#L c #df7973",
"#0 c #df7a76",
".L c #df958d",
"as c #e07974",
".W c #e07b75",
".K c #e0968f",
"am c #e27b76",
"#K c #e27c76",
"#W c #e27d76",
"a. c #e2807b",
"ax c #e2817c",
".J c #e29890",
"#Z c #e3807a",
"at c #e3817b",
".I c #e49a92",
".H c #e59b93",
".G c #e69c94",
".F c #e79d95",
"#V c #e99f97",
".y c #f2e2e0",
".x c #f3e3e1",
".w c #f4e4e2",
".v c #f5e6e4",
".u c #f6e7e5",
".t c #f8e9e7",
".s c #f9eae8",
".r c #faebe9",
".q c #fbecea",
".p c #fcedeb",
".o c #ffb5af",
".D c #ffb6b0",
".U c #ffb7b2",
"#. c #ffb8b2",
".E c #ffffff",
"QtQtQtQtQtQtQtQtQtQtQtQtQtQtQtQtQtQtQtQtQtQtQtQtQtQtQtQtQtQtQtQtQtQtQtQtQtQtQtQtQtQtQtQtQtQtQtQtQtQt",
"Qt.#.#.#.#.#.#.#.#.#.#.#.#.#.#.#.#.#.#QtQtQtQtQtQtQtQtQtQtQtQtQt.#.#.#.#.#.#.#.#.#.#.#.#.#.#.#.#.#Qt",
"Qt.#.#.#.#.#.#.#.#.#.#.#.#.#.#.#.#.#Qt.a.b.c.d.e.f.g.h.i.j.k.l.mQt.#.#.#.#.#.#.#.#.#.#.#.#.#.#.#.#Qt",
"Qt.#.#.#.#.#.#.#.#.#.#.#.#.#.#.#.#Qt.n.o.p.q.r.s.t.u.v.w.x.y.z.A.BQt.#.#.#.#.#.#.#.#.#.#.#.#.#.#.#Qt",
"Qt.#.#.#.#.#.#.#.#.#.#.#.#.#.#.#Qt.C.D.E.F.G.H.I.J.K.L.M.N.O.P.Q.R.SQt.#.#.#.#.#.#.#.#.#.#.#.#.#.#Qt",
"Qt.#.#.#.#.#.#.#.#.#.#.#.#.#.#Qt.T.U.E.V.W.X.Y.Z.0.0.1.2.3.4.5.6.7.8.9Qt.#.#.#.#.#.#.#.#.#.#.#.#.#Qt",
"Qt.#.#.#.#.#.#.#.#.#.#.#.#.#Qt.T#..E###a#b#c#d#e#f#g#h#i#j#k#k#l#m#n#o.9Qt.#.#.#.#.#.#.#.#.#.#.#.#Qt",
"Qt.#.#.#.#.#.#.#.#.#.#.#.#Qt.C.U.E#p#q#r#s#t#u#v#w#x#y#z#A#B#C#D#E#F#G#o.9Qt.#.#.#.#.#.#.#.#.#.#.#Qt",
"Qt.#.#.#.#.#.#.#.#.#.#.#Qt.n.D.E###q#H#I#J#I#K#L#M#N#O#P#Q#R#J#S#D#F#F#G#T#UQt.#.#.#.#.#.#.#.#.#.#Qt",
"Qt.#.#.#.#.#.#.#.#.#.#Qt.a.o.E#V#W#X#I#J#J#J#Y#Z#0#1#2#3#4#J#J#J#D#F#F#5#6#7#8Qt.#.#.#.#.#.#.#.#.#Qt",
"Qt.#.#.#.#.#.#.#.#.#.#Qt.b.p.F.W#9#s#J#J#J#J#J#Ia.a#aaab#J#J#J#J#J#F#F#5acad#8Qt.#.#.#.#.#.#.#.#.#Qt",
"Qt.#.#.#.#.#.#.#.#.#.#Qt.c.q.G.Xae#t#I#J#J#J#J#Jafagah#J#J#J#J#J#D#F#5#5aiaj#8Qt.#.#.#.#.#.#.#.#.#Qt",
"Qt.#.#.#.#.#.#.#.#.#.#Qt.d.r.H.Yakalam#Y#J#J#J#J#Jan#J#J#J#J#Jao#D#F#5#5aiap#8Qt.#.#.#.#.#.#.#.#.#Qt",
"Qt.#.#.#.#.#.#.#.#.#.#Qt.e.s.I.Zaqarasat#I#J#J#J#J#J#J#J#J#Jauav#D#5#5#5aiap#8Qt.#.#.#.#.#.#.#.#.#Qt",
"Qt.#.#.#.#.#.#.#.#.#.#Qt.f.t.J.0aw#w#M#0axaf#J#J#J#J#J#J#JayazaA#D#5#5#5aiap#8Qt.#.#.#.#.#.#.#.#.#Qt",
"Qt.#.#.#.#.#.#.#.#.#.#Qt.g.u.KaBaCaD#N#1aEaFan#J#J#J#J#JaGaHaIaJ#D#5#5#5aiap#8Qt.#.#.#.#.#.#.#.#.#Qt",
"Qt.#.#.#.#.#.#.#.#.#.#Qt.h.v.L.1aK#yaLaMaNah#J#J#J#J#J#J#JaOaP#D#D#5#5#5aiap#8Qt.#.#.#.#.#.#.#.#.#Qt",
"Qt.#.#.#.#.#.#.#.#.#.#Qt.i.w.M.2aQaRaSaTab#J#J#J#J#J#J#J#J#JaU#D#5#5#5#5aiap#8Qt.#.#.#.#.#.#.#.#.#Qt",
"Qt.#.#.#.#.#.#.#.#.#.#Qt.j.x.N.3#jaV#QaW#J#J#J#J#JaX#J#J#J#J#J#5#F#5#5#5aiap#8Qt.#.#.#.#.#.#.#.#.#Qt",
"Qt.#.#.#.#.#.#.#.#.#.#Qt.k.yaY.4#kaZa0#J#J#J#J#Ja1aHaO#J#J#J#J#J#5#5#5#5a2aj#8Qt.#.#.#.#.#.#.#.#.#Qt",
"Qt.#.#.#.#.#.#.#.#.#.#Qt.la3a4.5#Da5#J#J#J#J#Jauaza6a7a8#J#J#J#J#J#5#5#5acad#8Qt.#.#.#.#.#.#.#.#.#Qt",
"Qt.#.#.#.#.#.#.#.#.#.#Qt.ma9.Q.m#l#D#S#J#J#Javb.b#ba#D#D#5#J#J#J#5#5#5bb#6#7#8Qt.#.#.#.#.#.#.#.#.#Qt",
"Qt.#.#.#.#.#.#.#.#.#.#QtQt.Bbcbd#E#E#E#E#J#D#D#D#D#D#5#5#5#5#J#5#5#5bebf#T#8QtQt.#.#.#.#.#.#.#.#.#Qt",
"Qt.#.#.#.#.#.#.#.#.#.#.#QtQt.S.8#n#F#F#F#F#F#F#5#5#5#5#5#5#5#5#5#5bebfbg#8QtQt.#.#.#.#.#.#.#.#.#.#Qt",
"Qt.#.#.#.#.#.#.#.#.#.#.#.#QtQt.9#o#G#F#F#F#5#F#5#5#5#5#5#5#5#5#5bhbfbi#8QtQt.#.#.#.#.#.#.#.#.#.#.#Qt",
"Qt.#.#.#.#.#.#.#.#.#.#.#.#.#QtQt.9#o#G#5#5#5#5bj#5#5#5#5#F#5#5bbbfbg#8QtQt.#.#.#.#.#.#.#.#.#.#.#.#Qt",
"Qt.#.#.#.#.#.#.#.#.#.#.#.#.#.#QtQt.9bk#6aca2aiaiaiaiaiaiaia2ac#6#T#8QtQt.#.#.#.#.#.#.#.#.#.#.#.#.#Qt",
"Qt.#.#.#.#.#.#.#.#.#.#.#.#.#.#.#QtQt#8blbmajapapapapapapapajbmbl#8QtQt.#.#.#.#.#.#.#.#.#.#.#.#.#.#Qt",
"Qt.#.#.#.#.#.#.#.#.#.#.#.#.#.#.#.#QtQt#8#8#8#8#8#8#8#8#8#8#8#8#8QtQt.#.#.#.#.#.#.#.#.#.#.#.#.#.#.#Qt",
"Qt.#.#.#.#.#.#.#.#.#.#.#.#.#.#.#.#.#QtQtQtQtQtQtQtQtQtQtQtQtQtQtQt.#.#.#.#.#.#.#.#.#.#.#.#.#.#.#.#Qt",
"Qt.#.#.#.#.#.#.#.#.#.#.#.#.#.#.#.#.#.#QtQtQtQtQtQtQtQtQtQtQtQtQt.#.#.#.#.#.#.#.#.#.#.#.#.#.#.#.#.#Qt",
"QtQtQtQtQtQtQtQtQtQtQtQtQtQtQtQtQtQtQtQtQtQtQtQtQtQtQtQtQtQtQtQtQtQtQtQtQtQtQtQtQtQtQtQtQtQtQtQtQtQt"};
