/* XPM */
static char * tmp_xpm[] = {
"32 32 262 2",
"  	c None",
". 	c #C2C2CF",
"+ 	c #BDBDCA",
"@ 	c #D8D8E0",
"# 	c #F1F1F4",
"$ 	c #B6B6C5",
"% 	c #D3D3DC",
"& 	c #FFFFFF",
"* 	c #DFDFE5",
"= 	c #A5A5B7",
"- 	c #B8B8C6",
"; 	c #B5B5C4",
"> 	c #CFCFD9",
", 	c #CECED8",
"' 	c #E1E1E7",
") 	c #A9A9BA",
"! 	c #C9C9D4",
"~ 	c #FCFCFD",
"{ 	c #B0B0C0",
"] 	c #DDDDE4",
"^ 	c #9C9CB0",
"/ 	c #C2C2CE",
"( 	c #F6F6F8",
"_ 	c #A8A8BA",
": 	c #BABAC8",
"< 	c #D7D7DF",
"[ 	c #9090A7",
"} 	c #F0F0F3",
"| 	c #9F9FB3",
"1 	c #9494A6",
"2 	c #EDEDF0",
"3 	c #FDFDFD",
"4 	c #F9F9FA",
"5 	c #CDCDD7",
"6 	c #84849D",
"7 	c #B3B3C2",
"8 	c #E9E9EE",
"9 	c #9797AD",
"0 	c #9B9BAF",
"a 	c #E5E5EB",
"b 	c #F4F4F6",
"c 	c #C3C3CF",
"d 	c #787893",
"e 	c #ABABBC",
"f 	c #E3E3E9",
"g 	c #8F8FA6",
"h 	c #8F8FA5",
"i 	c #DCDCE3",
"j 	c #EBEBF0",
"k 	c #E7E7EC",
"l 	c #B9B9C7",
"m 	c #696987",
"n 	c #A3A3B6",
"o 	c #8787A0",
"p 	c #83839C",
"q 	c #D2D2DB",
"r 	c #E3E3E8",
"s 	c #DEDEE5",
"t 	c #AFAFBF",
"u 	c #5F5F7F",
"v 	c #D6D6DE",
"w 	c #7F7F99",
"x 	c #787892",
"y 	c #DADAE1",
"z 	c #D5D5DE",
"A 	c #A4A4B7",
"B 	c #6D6D8B",
"C 	c #C8C8D4",
"D 	c #D0D0DA",
"E 	c #777793",
"F 	c #6C6C89",
"G 	c #BFBFCC",
"H 	c #D1D1DA",
"I 	c #CCCCD7",
"J 	c #9D9DB1",
"K 	c #6B6B8A",
"L 	c #72728F",
"M 	c #60607F",
"N 	c #C8C8D3",
"O 	c #C4C4D0",
"P 	c #6A6A89",
"Q 	c #5B5B7C",
"R 	c #9393A9",
"S 	c #8A8AA2",
"T 	c #846E64",
"U 	c #CD902C",
"V 	c #E1BB35",
"W 	c #E2C136",
"X 	c #DCB834",
"Y 	c #C48D2C",
"Z 	c #B77829",
"` 	c #5A5A7C",
" .	c #757592",
"..	c #E6E6EB",
"+.	c #957E66",
"@.	c #D18D2A",
"#.	c #D9A52F",
"$.	c #FCF23E",
"%.	c #FFFA3F",
"&.	c #E8D038",
"*.	c #B57B2A",
"=.	c #554437",
"-.	c #5D5973",
";.	c #9B9BB0",
">.	c #B7AD56",
",.	c #EDC933",
"'.	c #CF8F2B",
").	c #FCE838",
"!.	c #FFEE39",
"~.	c #FDE938",
"{.	c #F0C934",
"].	c #EEC333",
"^.	c #F4D335",
"/.	c #FAE638",
"(.	c #B8842B",
"_.	c #DBAE36",
":.	c #C28D3B",
"<.	c #D7B93F",
"[.	c #FFE434",
"}.	c #F8D832",
"|.	c #FCDE33",
"1.	c #D2912A",
"2.	c #96651E",
"3.	c #B47A24",
"4.	c #DCA32D",
"5.	c #F9DC33",
"6.	c #A66E29",
"7.	c #C48428",
"8.	c #C68528",
"9.	c #B47925",
"0.	c #E7BF33",
"a.	c #F7E038",
"b.	c #D6972B",
"c.	c #F5CA2D",
"d.	c #FFD92E",
"e.	c #E8B82C",
"f.	c #865A1C",
"g.	c #D2982B",
"h.	c #DAAC2B",
"i.	c #975F28",
"j.	c #B87B27",
"k.	c #D7A02D",
"l.	c #EFCC33",
"m.	c #FFEC38",
"n.	c #F2D234",
"o.	c #F5D935",
"p.	c #CF902B",
"q.	c #F4C028",
"r.	c #FFCD28",
"s.	c #DBA328",
"t.	c #9C6723",
"u.	c #F1BD28",
"v.	c #9A6527",
"w.	c #AB7125",
"x.	c #DBA62D",
"y.	c #FFE334",
"z.	c #D29A2C",
"A.	c #C08128",
"B.	c #F2B624",
"C.	c #FFC222",
"D.	c #EFB223",
"E.	c #A46A27",
"F.	c #7D501E",
"G.	c #E9AD23",
"H.	c #B27A25",
"I.	c #C68A2A",
"J.	c #FFDB2F",
"K.	c #F2C22E",
"L.	c #EDB92E",
"M.	c #CE952B",
"N.	c #B97C27",
"O.	c #F1AC1F",
"P.	c #FFB81C",
"Q.	c #C18223",
"R.	c #7F5121",
"S.	c #E6A21F",
"T.	c #C58722",
"U.	c #905F20",
"V.	c #E5B12A",
"W.	c #FFD32B",
"X.	c #E2A72B",
"Y.	c #B77B25",
"Z.	c #B47A25",
"`.	c #CA9029",
" +	c #B17527",
".+	c #EFA21A",
"++	c #F8A717",
"@+	c #C07C1F",
"#+	c #895526",
"$+	c #7F4F24",
"%+	c #7C4C23",
"&+	c #B17221",
"*+	c #FFAD16",
"=+	c #A56923",
"-+	c #A46C26",
";+	c #FAC627",
">+	c #F4BE27",
",+	c #B77B27",
"'+	c #B57926",
")+	c #FFCB27",
"!+	c #C68B28",
"~+	c #AB6E26",
"{+	c #EE9715",
"]+	c #FFA110",
"^+	c #F09713",
"/+	c #E08C15",
"(+	c #E89315",
"_+	c #804F26",
":+	c #B27726",
"<+	c #FFC323",
"[+	c #DC9F26",
"}+	c #734C19",
"|+	c #C28527",
"1+	c #A06625",
"2+	c #CD7E1A",
"3+	c #F9930D",
"4+	c #FF970B",
"5+	c #E88A10",
"6+	c #8A5425",
"7+	c #BD8026",
"8+	c #FFBB1E",
"9+	c #D69623",
"0+	c #BE8125",
"a+	c #71481D",
"b+	c #8B5725",
"c+	c #AB671F",
"d+	c #A8651F",
"e+	c #9E5E21",
"f+	c #784A23",
"g+	c #935F24",
"h+	c #FFB31A",
"i+	c #DC971F",
"j+	c #9B6427",
"k+	c #7F5220",
"l+	c #E29C1E",
"m+	c #9F6627",
"n+	c #855522",
"o+	c #EC9E19",
"p+	c #F9A617",
"q+	c #9B6226",
"r+	c #A06624",
"s+	c #976127",
"t+	c #5F3C19",
"u+	c #BD7920",
"v+	c #FFA312",
"w+	c #E99415",
"x+	c #975E24",
"y+	c #825025",
"z+	c #985E24",
"A+	c #845323",
"B+	c #EA8F12",
"C+	c #FF9B0D",
"D+	c #E38B14",
"E+	c #8C5826",
"F+	c #905824",
"G+	c #E28410",
"H+	c #FF9309",
"I+	c #915925",
"J+	c #724621",
"K+	c #9C5D21",
"L+	c #B2681B",
"M+	c #784923",
"                        . +                                     ",
"                        @ # $                                   ",
"                        % & * =                                 ",
"      - ;               > & & =                                 ",
"      , ' )             ! ~ ~ {                                 ",
"      @ & ] ^           / ( ( _                                 ",
"      : & & < [         : } } |                                 ",
"      1 2 3 4 5 6       7 8 8 9                                 ",
"        0 a b } c d     e f f g                                 ",
"          h i j k l m   n ] ] o                                 ",
"            p q r s t u ^ v v w                                 ",
"              x ! y z A B C D E                                 ",
"                F G H I J K . L                                 ",
"                  M $ N O 9 P P                                 ",
"                    Q t l R S T       U V W X Y Z               ",
"                      `  ...} +.@.  #.$.%.%.%.%.&.*.            ",
"                      =.-.R ;.>.,.'.).!.~.{.].^.!./.(.          ",
"                        _.:.<.[.[.}.[.|.1.2.  3.4.|.5.6.        ",
"                  7.8.9.0.a.b.c.d.d.d.e.        f.g.d.h.i.      ",
"              j.k.l.m.l.n.m.o.p.q.r.r.s.          t.u.r.v.      ",
"            w.x.y.y.y.y.y.y.y.z.A.B.C.D.E.        F.G.C.H.      ",
"            I.J.J.K.L.K.J.J.J.M.  N.O.P.Q.        R.S.P.T.      ",
"          U.V.W.X.Y.  Z.X.W.W.`.     +.+++@+#+$+%+&+*+*+=+      ",
"          -+;+>+,+      '+>+)+!+      ~+{+]+^+/+/+]+]+(+_+      ",
"          :+<+[+        }+[+<+|+        1+2+3+4+4+4+5+6+        ",
"          7+8+9+          9+8+0+          a+b+c+d+e+f+          ",
"          g+h+i+j+      k+l+h+m+                                ",
"          n+o+p+q+      r+p+o+s+                                ",
"          t+u+v+w+x+y+z+w+v+u+                                  ",
"            A+B+C+C+C+C+C+D+E+                                  ",
"              F+G+H+H+H+G+I+                                    ",
"                J+K+L+K+M+                                      "};
