/* XPM */
static const char *top[]={
"32 32 6 1",
". c #000000",
"a c #3b3b39",
"b c #777773",
"d c #b2b2ac",
"# c #c3c3c3",
"c c #ffff00",
"................................",
".##############################.",
".##############################.",
".###########abbbbbbbbbbbbbab###.",
".##########bcccccccccccccddb###.",
".#########bcccccccccccccdd#b###.",
".########bcccccccccccccdd##b###.",
".#######bcccccccccccccdd###b###.",
".######bcccccccccccccdd####b###.",
".#####bcccccccccccccdd#####b###.",
".####bcccccccccccccdd######b###.",
".###bcccccccccccccdd#######b###.",
".##abbbbbbbbabbbbbd########b###.",
".##b########b####b#########b###.",
".##b########b####b#########b###.",
".##b########b####b#########b###.",
".##b########b####b#########b###.",
".##b########bbbbbabbbbbbbbbb###.",
".##b#######dd####b########b####.",
".##b######dd#####b#######b#####.",
".##b#####dd######b######b######.",
".##b####dd#######b#####b#######.",
".##b###dd########b####b########.",
".##b##dd#########b###b#########.",
".##b#dd##########b##b##########.",
".##bdd###########b#b###########.",
".##ad############bb############.",
".##bbbbbbbbbbbbbbb#############.",
".##############################.",
".##############################.",
".##############################.",
"................................"};
