/* XPM */
static const char * trimafter[] = {
"24 24 226 2",
"  	c None",
". 	c #000000",
"+ 	c #240000",
"@ 	c #FF0000",
"# 	c #140000",
"$ 	c #671919",
"% 	c #9D5D5D",
"& 	c #DE9E9E",
"* 	c #8B4C4C",
"= 	c #612E2E",
"- 	c #878787",
"; 	c #FAFAFA",
"> 	c #BABABA",
", 	c #643434",
"' 	c #400000",
") 	c #9A1A1A",
"! 	c #AC6C6C",
"~ 	c #E6E6E6",
"{ 	c #DEDEDE",
"] 	c #7A7A7A",
"^ 	c #B11818",
"/ 	c #494949",
"( 	c #CECECE",
"_ 	c #E7E7E7",
": 	c #B9B9B9",
"< 	c #4E4E4E",
"[ 	c #330000",
"} 	c #D70B0B",
"| 	c #A6A6A6",
"1 	c #ECECEC",
"2 	c #D6D6D6",
"3 	c #888888",
"4 	c #8B1E1E",
"5 	c #D60A0A",
"6 	c #040404",
"7 	c #505050",
"8 	c #E5E5E5",
"9 	c #DDDDDD",
"0 	c #CCCCCC",
"a 	c #575757",
"b 	c #2A2A2A",
"c 	c #282828",
"d 	c #6E2E2E",
"e 	c #0E0E0E",
"f 	c #881A1A",
"g 	c #8F8F8F",
"h 	c #ACACAC",
"i 	c #2F2F2F",
"j 	c #3A3A3A",
"k 	c #565656",
"l 	c #717171",
"m 	c #999999",
"n 	c #6B6B6B",
"o 	c #0F0F0F",
"p 	c #482525",
"q 	c #502222",
"r 	c #322B2B",
"s 	c #4C4C4C",
"t 	c #CBCBCB",
"u 	c #DADADA",
"v 	c #C9C9C9",
"w 	c #757575",
"x 	c #5F5F5F",
"y 	c #868686",
"z 	c #A1A1A1",
"A 	c #B8B8B8",
"B 	c #C6C6C6",
"C 	c #C7C7C7",
"D 	c #989898",
"E 	c #434343",
"F 	c #090909",
"G 	c #B70E0E",
"H 	c #412929",
"I 	c #974242",
"J 	c #C44040",
"K 	c #D63B3B",
"L 	c #7F2D2D",
"M 	c #372A2A",
"N 	c #492121",
"O 	c #7D7474",
"P 	c #D9DADA",
"Q 	c #D4D4D4",
"R 	c #ADADAD",
"S 	c #7E7E7E",
"T 	c #BBBBBB",
"U 	c #BCBCBC",
"V 	c #AEAEAE",
"W 	c #424242",
"X 	c #170808",
"Y 	c #592424",
"Z 	c #B45555",
"` 	c #AC3A3A",
" .	c #612020",
"..	c #B21515",
"+.	c #DD2020",
"@.	c #5B1F1F",
"#.	c #4C2626",
"$.	c #9D3B3B",
"%.	c #AC9C9C",
"&.	c #A6A8A8",
"*.	c #B0B0B0",
"=.	c #8E8E8E",
"-.	c #919191",
";.	c #B5B5B5",
">.	c #B3B3B3",
",.	c #AAAAAA",
"'.	c #AD1D1D",
").	c #D40808",
"!.	c #100707",
"~.	c #914646",
"{.	c #F16E6E",
"].	c #4D1A1A",
"^.	c #631313",
"/.	c #FA0808",
"(.	c #CF2929",
"_.	c #DC3B3B",
":.	c #B54747",
"<.	c #C6C9C9",
"[.	c #989B9B",
"}.	c #969797",
"|.	c #737373",
"1.	c #8D8D8D",
"2.	c #7C7C7C",
"3.	c #5D5D5D",
"4.	c #414141",
"5.	c #1C0909",
"6.	c #B75454",
"7.	c #F87575",
"8.	c #541E1E",
"9.	c #1E0D0D",
"0.	c #761F1F",
"a.	c #FF0A0A",
"b.	c #EA1212",
"c.	c #9A1616",
"d.	c #6D5050",
"e.	c #CBC4C4",
"f.	c #D1C7C7",
"g.	c #989292",
"h.	c #444444",
"i.	c #8C2D2D",
"j.	c #9A1B1B",
"k.	c #951515",
"l.	c #130707",
"m.	c #984040",
"n.	c #F87C7C",
"o.	c #B84F4F",
"p.	c #823939",
"q.	c #D23939",
"r.	c #E10606",
"s.	c #790F0F",
"t.	c #4C2C2C",
"u.	c #D05C5C",
"v.	c #E25151",
"w.	c #683535",
"x.	c #2E3333",
"y.	c #080909",
"z.	c #3E2323",
"A.	c #A23939",
"B.	c #E25353",
"C.	c #E04040",
"D.	c #B71A1A",
"E.	c #4D1D1D",
"F.	c #7A1C1C",
"G.	c #5D2222",
"H.	c #D45E5E",
"I.	c #EB5858",
"J.	c #762020",
"K.	c #681D1D",
"L.	c #3E1C1C",
"M.	c #5A2323",
"N.	c #562222",
"O.	c #3F1F1F",
"P.	c #542020",
"Q.	c #B91919",
"R.	c #DA5C5C",
"S.	c #FF7373",
"T.	c #E94444",
"U.	c #8D1C1C",
"V.	c #A01010",
"W.	c #B81212",
"X.	c #4D2727",
"Y.	c #BF6262",
"Z.	c #F57575",
"`.	c #CA3D3D",
" +	c #DD3737",
".+	c #F12323",
"++	c #920E0E",
"@+	c #3A2525",
"#+	c #D40707",
"$+	c #A65252",
"%+	c #F88181",
"&+	c #812C2C",
"*+	c #201D1D",
"=+	c #3A2222",
"-+	c #BF2A2A",
";+	c #DA0606",
">+	c #AB0B0B",
",+	c #282222",
"'+	c #C56262",
")+	c #F47070",
"!+	c #782828",
"~+	c #282525",
"{+	c #3B2323",
"]+	c #B82929",
"^+	c #B70B0B",
"/+	c #491E1E",
"(+	c #A44848",
"_+	c #FE6969",
":+	c #E13A3A",
"<+	c #A11818",
"[+	c #BA1616",
"}+	c #DE0F0F",
"|+	c #7B1111",
"1+	c #E10505",
"2+	c #442727",
"3+	c #A63636",
"4+	c #DD3232",
"5+	c #E11414",
"6+	c #BE0707",
"7+	c #591919",
"8+	c #273636",
"9+	c #432121",
"0+	c #7D1B1B",
"a+	c #861010",
"b+	c #4E1818",
"c+	c #2D2A2A",
". . . . . . . . . . . . . . . . . . . . . . . . ",
"+ @ @ @ @ @ @ @ @ @ @ @ @ @ @ @ @ @ @ @ @ @   . ",
"#                           $ % & *         @ . ",
"#                         = - ; > ,         @ . ",
"' @ @ @ @ @ @ @ @ @ @ @ ) ! ~ { ] ^ @ @ @ @   . ",
"' @                     / ( _ : <             . ",
"[ @ @ @ @ @ @ @ @ @ @ } | 1 2 3 4 @ @ @ @ @ 5 6 ",
".                     7 8 9 0 a b       c = d e ",
"[ @ @ @ @ @ @ @ @ @ f g _ 2 h i b c j k l m n o ",
"' @     p q r       s t u v w x y z A B C D E F ",
"' G H I J K L M   N O P Q R S T U T > V y W   . ",
"X Y Z `  ...+.@.#.$.%.&.*.=.-.;.>.,.y k '.).  . ",
"!.~.{.].  ^./.(._.:.<.[.}.|.1.2.3.4.b       @ . ",
"5.6.7.8.9.0.a.b.c.d.e.f.g.h.i.j.k.).@ @ @ @ @ . ",
"l.m.n.o.p.q.r.s.  t.u.v.w.x.                  . ",
"y.z.A.B.C.D.E.F.G.H.I.J.K.                    . ",
".   L.M.N.O.P.Q.R.S.T.U.V.W.@ @ @ @ @ @ @ @ @ . ",
".           X.Y.Z.`. +.+++@+                @ . ",
"' @ @ @ @ #+$+%+&+*+=+-+;+>+@ @ @ @ @ @ @ @   . ",
"' @       ,+'+)+!+~+{+]+^+/+                  . ",
"' @ @ @ @ #+(+_+:+<+[+}+|+1+@ @ @ @ @ @ @ @   . ",
".           2+3+4+5+6+7+8+                    . ",
".             9+0+a+b+c+                      . ",
". . . . . . . . . . . . . . . . . . . . . . . . "};
