/* XPM */
static const char * trimbefore[] = {
"24 24 225 2",
"  	c None",
". 	c #000000",
"+ 	c #FF0000",
"@ 	c #240000",
"# 	c #8B4C4C",
"$ 	c #DE9E9E",
"% 	c #9D5D5D",
"& 	c #671919",
"* 	c #140000",
"= 	c #643434",
"- 	c #BABABA",
"; 	c #FAFAFA",
"> 	c #878787",
", 	c #612E2E",
"' 	c #B11818",
") 	c #7A7A7A",
"! 	c #DEDEDE",
"~ 	c #E6E6E6",
"{ 	c #AC6C6C",
"] 	c #9A1A1A",
"^ 	c #400000",
"/ 	c #4E4E4E",
"( 	c #B9B9B9",
"_ 	c #E7E7E7",
": 	c #CECECE",
"< 	c #494949",
"[ 	c #040404",
"} 	c #D60A0A",
"| 	c #8B1E1E",
"1 	c #888888",
"2 	c #D6D6D6",
"3 	c #ECECEC",
"4 	c #A6A6A6",
"5 	c #D70B0B",
"6 	c #330000",
"7 	c #0E0E0E",
"8 	c #6E2E2E",
"9 	c #282828",
"0 	c #2A2A2A",
"a 	c #575757",
"b 	c #CCCCCC",
"c 	c #DDDDDD",
"d 	c #E5E5E5",
"e 	c #505050",
"f 	c #0F0F0F",
"g 	c #6B6B6B",
"h 	c #999999",
"i 	c #717171",
"j 	c #565656",
"k 	c #3A3A3A",
"l 	c #2F2F2F",
"m 	c #ACACAC",
"n 	c #8F8F8F",
"o 	c #881A1A",
"p 	c #090909",
"q 	c #434343",
"r 	c #989898",
"s 	c #C7C7C7",
"t 	c #C6C6C6",
"u 	c #B8B8B8",
"v 	c #A1A1A1",
"w 	c #868686",
"x 	c #5F5F5F",
"y 	c #757575",
"z 	c #C9C9C9",
"A 	c #DADADA",
"B 	c #CBCBCB",
"C 	c #4C4C4C",
"D 	c #322B2B",
"E 	c #502222",
"F 	c #492525",
"G 	c #424242",
"H 	c #AEAEAE",
"I 	c #BBBBBB",
"J 	c #BCBCBC",
"K 	c #7E7E7E",
"L 	c #ADADAD",
"M 	c #D4D4D4",
"N 	c #7D7474",
"O 	c #492121",
"P 	c #372A2A",
"Q 	c #7F2D2D",
"R 	c #D63B3B",
"S 	c #C44040",
"T 	c #974242",
"U 	c #412929",
"V 	c #B70E0E",
"W 	c #D40808",
"X 	c #AD1D1D",
"Y 	c #AAAAAA",
"Z 	c #B3B3B3",
"` 	c #B5B5B5",
" .	c #919191",
"..	c #8E8E8E",
"+.	c #B0B0B0",
"@.	c #A6A8A8",
"#.	c #AC9C9C",
"$.	c #9D3B3B",
"%.	c #4C2626",
"&.	c #5B1F1F",
"*.	c #DD2020",
"=.	c #B21515",
"-.	c #612020",
";.	c #AC3A3A",
">.	c #B45555",
",.	c #592424",
"'.	c #170808",
").	c #414141",
"!.	c #5D5D5D",
"~.	c #7C7C7C",
"{.	c #8D8D8D",
"].	c #737373",
"^.	c #969797",
"/.	c #989B9B",
"(.	c #C6C9C9",
"_.	c #B54747",
":.	c #DC3B3B",
"<.	c #CF2929",
"[.	c #FA0808",
"}.	c #631313",
"|.	c #4D1A1A",
"1.	c #F16E6E",
"2.	c #914646",
"3.	c #100707",
"4.	c #951515",
"5.	c #9A1B1B",
"6.	c #8C2D2D",
"7.	c #444444",
"8.	c #989292",
"9.	c #D1C7C7",
"0.	c #CBC4C4",
"a.	c #6D5050",
"b.	c #9A1616",
"c.	c #EA1212",
"d.	c #FF0A0A",
"e.	c #761F1F",
"f.	c #1E0E0E",
"g.	c #541E1E",
"h.	c #F87575",
"i.	c #B75454",
"j.	c #1C0909",
"k.	c #2E3333",
"l.	c #683535",
"m.	c #E25151",
"n.	c #D05C5C",
"o.	c #4C2C2C",
"p.	c #790F0F",
"q.	c #E10606",
"r.	c #D23939",
"s.	c #823939",
"t.	c #B84F4F",
"u.	c #F87C7C",
"v.	c #984040",
"w.	c #130707",
"x.	c #681D1D",
"y.	c #762020",
"z.	c #EB5858",
"A.	c #D45E5E",
"B.	c #5D2222",
"C.	c #7A1C1C",
"D.	c #4D1D1D",
"E.	c #B71A1A",
"F.	c #E04040",
"G.	c #E25353",
"H.	c #A23939",
"I.	c #3E2323",
"J.	c #080909",
"K.	c #B81212",
"L.	c #A01010",
"M.	c #8D1C1C",
"N.	c #E94444",
"O.	c #FF7373",
"P.	c #DA5C5C",
"Q.	c #B91919",
"R.	c #542020",
"S.	c #3F1F1F",
"T.	c #562222",
"U.	c #5A2323",
"V.	c #3E1C1C",
"W.	c #3A2525",
"X.	c #920E0E",
"Y.	c #F12323",
"Z.	c #DD3737",
"`.	c #CA3D3D",
" +	c #F57575",
".+	c #BF6262",
"++	c #4D2727",
"@+	c #AB0B0B",
"#+	c #DA0606",
"$+	c #BF2A2A",
"%+	c #3A2222",
"&+	c #201D1D",
"*+	c #812C2C",
"=+	c #F88181",
"-+	c #A65252",
";+	c #D40707",
">+	c #491E1E",
",+	c #B70B0B",
"'+	c #B82929",
")+	c #3B2323",
"!+	c #282525",
"~+	c #782828",
"{+	c #F47070",
"]+	c #C56262",
"^+	c #282222",
"/+	c #E10505",
"(+	c #7B1111",
"_+	c #DE0F0F",
":+	c #BA1616",
"<+	c #A11818",
"[+	c #E13A3A",
"}+	c #FE6969",
"|+	c #A44848",
"1+	c #273636",
"2+	c #591919",
"3+	c #BE0707",
"4+	c #E11414",
"5+	c #DD3232",
"6+	c #A63636",
"7+	c #442727",
"8+	c #2D2A2A",
"9+	c #4E1818",
"0+	c #861010",
"a+	c #7D1B1B",
"b+	c #432121",
". . . . . . . . . . . . . . . . . . . . . . . . ",
".   + + + + + + + + + + + + + + + + + + + + + @ ",
". +         # $ % &                           * ",
". +         = - ; > ,                         * ",
".   + + + + ' ) ! ~ { ] + + + + + + + + + + + ^ ",
".             / ( _ : <                     + ^ ",
"[ } + + + + + | 1 2 3 4 5 + + + + + + + + + + 6 ",
"7 8 , 9       0 a b c d e                     . ",
"f g h i j k 9 0 l m 2 _ n o + + + + + + + + + 6 ",
"p q r s t u v w x y z A B C       D E F     + ^ ",
".   G w H - I J I K L M A N O   P Q R S T U V ^ ",
".   W X j w Y Z `  ...+.@.#.$.%.&.*.=.-.;.>.,.'.",
". +       0 ).!.~.{.].^./.(._.:.<.[.}.  |.1.2.3.",
". + + + + + W 4.5.6.7.8.9.0.a.b.c.d.e.f.g.h.i.j.",
".                   k.l.m.n.o.  p.q.r.s.t.u.v.w.",
".                     x.y.z.A.B.C.D.E.F.G.H.I.J.",
". + + + + + + + + + K.L.M.N.O.P.Q.R.S.T.U.V.  . ",
". +                 W.X.Y.Z.`. +.+++          . ",
".   + + + + + + + + @+#+$+%+&+*+=+-+;++ + + + ^ ",
".                   >+,+'+)+!+~+{+]+^+      + ^ ",
".   + + + + + + + + /+(+_+:+<+[+}+|+;++ + + + ^ ",
".                     1+2+3+4+5+6+7+          . ",
".                       8+9+0+a+b+            . ",
". . . . . . . . . . . . . . . . . . . . . . . . "};
