/* XPM */
static char *view[]={
"32 32 4 1",
". c None",
"# c #3b3b39",
"a c #777773",
"b c #b2b2ac",
"................................",
"................................",
"................................",
"............#aaaaaaaaaaaaa#a....",
"...........aa............bba....",
"..........a.a...........bb.a....",
".........a..a..........bb..a....",
"........a...a.........bb...a....",
".......a....a........bb....a....",
"......a.....a.......bb.....a....",
".....a......a......bb......a....",
"....a.......a.....bb.......a....",
"...#aaaaaaaa#aaaaab........a....",
"...a........a....a.........a....",
"...a........a....a.........a....",
"...a........a....a.........a....",
"...a........a....a.........a....",
"...a........aaaaa#aaaaaaaaaa....",
"...a.......bb....a........a.....",
"...a......bb.....a.......a......",
"...a.....bb......a......a.......",
"...a....bb.......a.....a........",
"...a...bb........a....a.........",
"...a..bb.........a...a..........",
"...a.bb..........a..a...........",
"...abb...........a.a............",
"...#b............aa.............",
"...aaaaaaaaaaaaaaa..............",
"................................",
"................................",
"................................",
"................................"};
