/* XPM */
static const char *zoomcursor[]={
"33 33 5 1",
". c None",
"# c #000000",
"a c #808080",
"c c #c0c0c0",
"b c #ffffff",
".................................",
"...........####..................",
"...........#ab#..................",
"...........#ab#..................",
"........####ab####...............",
"........#bbbabbbb#...............",
"........#aaaaaaaa#...............",
"........####ab####...............",
"...........#ab#..................",
"...........#ab#..................",
".........ba########...b..........",
"..........ba#cccccc##ba..........",
"..........#aab####bbca...........",
".........#abba....#bac#..........",
".........#b#.ba...ba#b#..........",
"........#ab#..ba.ba.#bc#.........",
"........#a#....baa...#c#.........",
"........#a#....baa...#c#.........",
"........#aa#..ba.ba.#bc#.........",
".........#a#.ba...ba#b#..........",
".........#aa#a.....b#b#..........",
"..........#aa#######bbc#.........",
"..........ba#aaaaaaaabbc#........",
".........ba..########abbc#.......",
".....................#abbc#......",
"......................#abbc#.....",
"........#########......#abb#.....",
"........#bbbbbbb#.......####.....",
"........#aaaaaaa#................",
"........#########................",
".................................",
".................................",
"................................."};
