/* XPM */
static const char *zoomwin[]={
"32 32 6 1",
". c #000000",
"b c #828282",
"d c #b0b0b0",
"# c #c7c7c7",
"a c #ffff00",
"c c #ffffff",
"................................",
".##############################.",
".##############################.",
".####a#########################.",
".####a#########################.",
".##aaaaa.....bbbbbbb.......####.",
".####a########.....#######.####.",
".####a######..cc###..#####.####.",
".####.#####.cc#######.####.####.",
".####.####.c###c######.###.####.",
".####.####.c#c########.###.####.",
".####.###.c############.##.####.",
".####.###.c#c##########.##.####.",
".####.###.#############.##.####.",
".####.###.##c##########.##.####.",
".####.###.############d.##.####.",
".####.####.###########.###.####.",
".####.####.##########d.###.####.",
".####.####b.########d.####.####.",
".####.###.bb..####d..#####.####.",
".####.##...###.....#######.####.",
".####.#...################.####.",
".####b...#################.####.",
".####...##################a####.",
".###...###################a####.",
".####.bbbb..............aaaaa##.",
".#########################a####.",
".#########################a####.",
".##############################.",
".##############################.",
".##############################.",
"................................"};
