/* XPM */
static const char *zoomwincursor[]={
"33 33 5 1",
". c None",
"# c #000000",
"a c #808080",
"c c #c0c0c0",
"b c #ffffff",
".................................",
".................................",
"....####.........................",
"....#ab#.........................",
"....#ab#.........................",
"....#ab#.........................",
".####ab####......................",
".#bbbabbbb#......................",
".#aaaaaaaa#......................",
".####ab####......................",
"....#ab#.####################....",
"....#ab#.#ccccccccccccccccca#....",
"....####.#cbbbbbbbbbbbbbbbba#....",
".........#cbaaaaaaaaaaaaacba#....",
".........#cba............cba#....",
".........#cba............cba#....",
".........#cba............cba#....",
".........#cba............cba#....",
".........#cba............cba#....",
".........#cba............cba#....",
".........#cba............cba#....",
".........#cba............cba#....",
".........#cbccccccccccccccba#....",
".........#cbbbbbbbbbbbbbbbba#....",
".........#caaaaaaaaaaaaaaaaa#....",
".........####################....",
".................................",
".................................",
".................................",
".................................",
".................................",
".................................",
"................................."};
